<svg width="111" height="133" viewBox="0 0 111 133" fill="none" xmlns="http://www.w3.org/2000/svg">
<g filter="url(#filter0_d_1080_424)">
<circle cx="35.0002" cy="79.8176" r="68.1818" fill="#ECEFF1"/>
</g>
<mask id="mask0_1080_424" style="mask-type:alpha" maskUnits="userSpaceOnUse" x="-34" y="0" width="138" height="148">
<path d="M103.182 79.8175C103.182 117.473 72.6559 147.999 35.0002 147.999C-2.65561 147.999 -33.1816 117.473 -33.1816 79.8175C-33.1816 42.1617 -26.4997 0.63534 35.0002 0.499597C96.5 0.363855 103.182 42.1617 103.182 79.8175Z" fill="#ECEFF1"/>
</mask>
<g mask="url(#mask0_1080_424)">
<path d="M66.1654 15.9998H-3.72833C-5.53538 15.9998 -7 17.3126 -7 18.9323V116.723C-7 118.343 -5.53538 119.656 -3.72833 119.656H66.1654C67.9724 119.656 69.438 118.343 69.438 116.723V18.9323C69.438 17.3126 67.9724 15.9998 66.1654 15.9998V15.9998Z" fill="#E9E9EA"/>
<path d="M66.1661 15.9998H59.9121C61.7192 15.9998 63.1838 17.3126 63.1838 18.9323V116.723C63.1838 118.343 61.7192 119.656 59.9121 119.656H66.1661C67.9732 119.656 69.4387 118.343 69.4387 116.723V18.9323C69.4387 17.3126 67.9732 15.9998 66.1661 15.9998V15.9998Z" fill="#C5C4CC"/>
<path d="M-0.617188 119.656V126.998C-0.617188 127.245 -0.39332 127.446 -0.117281 127.446H6.09977C6.37676 127.446 6.60063 127.245 6.60063 126.998V125.808C6.60063 125.561 6.8245 125.36 7.10054 125.36H55.3382C55.6152 125.36 55.8391 125.561 55.8391 125.808V126.998C55.8391 127.245 56.0629 127.446 56.339 127.446H62.556C62.833 127.446 63.0569 127.245 63.0569 126.998V119.656H-0.617188Z" fill="#575B7A"/>
<path d="M-7 47.7961V57.3708H7.94592C8.21152 57.3708 8.46574 57.2765 8.65356 57.1081L13.1537 53.0745C13.3415 52.9062 13.5966 52.8118 13.8613 52.8118H69.438V47.7961H-7Z" fill="#575B7A"/>
<path d="M63.1836 47.7961H69.4387V52.8118H63.1836V47.7961Z" fill="#252D4C"/>
<path d="M3.90527 42.3635C2.89882 42.3635 2.08398 41.6332 2.08398 40.731V31.1928C2.08398 30.2907 2.89882 29.5603 3.90527 29.5603C4.91078 29.5603 5.72656 30.2907 5.72656 31.1928V40.731C5.72656 41.6332 4.91078 42.3635 3.90527 42.3635Z" fill="#575B7A"/>
<path d="M3.90527 74.5481C2.89882 74.5481 2.08398 73.8168 2.08398 72.9155V63.376C2.08398 62.4747 2.89882 61.7434 3.90527 61.7434C4.91078 61.7434 5.72656 62.4747 5.72656 63.376V72.9155C5.72656 73.8168 4.91078 74.5481 3.90527 74.5481Z" fill="#575B7A"/>
<path d="M102.362 80.7043H26.8679C24.43 80.7043 22.4531 82.4763 22.4531 84.6615V123.489C22.4531 125.674 24.43 127.446 26.8679 127.446H102.362C104.799 127.446 106.776 125.674 106.776 123.489V84.6615C106.776 82.4763 104.799 80.7043 102.362 80.7043Z" fill="#575B7A"/>
<path d="M102.361 80.7043H95.7812C98.2192 80.7043 100.196 82.4763 100.196 84.6615V123.489C100.196 125.674 98.2192 127.446 95.7812 127.446H102.361C104.799 127.446 106.776 125.674 106.776 123.489V84.6615C106.776 82.4763 104.799 80.7043 102.361 80.7043Z" fill="#252D4C"/>
<path d="M81.9781 80.7043H26.8679C24.43 80.7043 22.4531 82.4763 22.4531 84.6615V123.489C22.4531 125.674 24.43 127.446 26.8679 127.446H81.979V80.7043H81.9781Z" fill="#5692D8"/>
<path d="M27.9355 121.636V86.514C27.9355 86.0183 28.3833 85.6169 28.9363 85.6169H75.4975C76.0506 85.6169 76.4983 86.0183 76.4983 86.514V121.636C76.4983 122.131 76.0506 122.533 75.4975 122.533H28.9363C28.3833 122.533 27.9355 122.131 27.9355 121.636Z" fill="#C8E7F7"/>
<path d="M98.6943 95.7637C98.6943 97.9012 96.7612 99.634 94.3765 99.634C91.9918 99.634 90.0586 97.9012 90.0586 95.7637C90.0586 93.6261 91.9918 91.8933 94.3765 91.8933C96.7612 91.8933 98.6943 93.6261 98.6943 95.7637Z" fill="#AED559"/>
<path d="M91.3244 109.229H89.4737C88.4681 109.229 87.6523 108.498 87.6523 107.597C87.6523 106.695 88.4681 105.964 89.4737 105.964H91.3244C92.3309 105.964 93.1458 106.695 93.1458 107.597C93.1458 108.498 92.3309 109.229 91.3244 109.229Z" fill="#E9E9EA"/>
<path d="M99.2832 109.23H97.4326C96.4271 109.23 95.6113 108.499 95.6113 107.597C95.6113 106.695 96.4271 105.965 97.4326 105.965H99.2832C100.29 105.965 101.104 106.695 101.104 107.597C101.104 108.499 100.29 109.23 99.2832 109.23Z" fill="#E9E9EA"/>
<path d="M91.3244 115.644H89.4737C88.4681 115.644 87.6523 114.912 87.6523 114.011C87.6523 113.109 88.4681 112.378 89.4737 112.378H91.3244C92.3309 112.378 93.1458 113.109 93.1458 114.011C93.1458 114.912 92.3309 115.644 91.3244 115.644Z" fill="#E9E9EA"/>
<path d="M99.2832 115.644H97.4326C96.4271 115.644 95.6113 114.913 95.6113 114.011C95.6113 113.109 96.4271 112.379 97.4326 112.379H99.2832C100.29 112.379 101.104 113.109 101.104 114.011C101.104 114.913 100.29 115.644 99.2832 115.644Z" fill="#E9E9EA"/>
</g>
<defs>
<filter id="filter0_d_1080_424" x="-36.1816" y="8.63574" width="146.363" height="146.364" filterUnits="userSpaceOnUse" color-interpolation-filters="sRGB">
<feFlood flood-opacity="0" result="BackgroundImageFix"/>
<feColorMatrix in="SourceAlpha" type="matrix" values="0 0 0 0 0 0 0 0 0 0 0 0 0 0 0 0 0 0 127 0" result="hardAlpha"/>
<feOffset dx="2" dy="2"/>
<feGaussianBlur stdDeviation="2.5"/>
<feComposite in2="hardAlpha" operator="out"/>
<feColorMatrix type="matrix" values="0 0 0 0 0 0 0 0 0 0 0 0 0 0 0 0 0 0 0.15 0"/>
<feBlend mode="normal" in2="BackgroundImageFix" result="effect1_dropShadow_1080_424"/>
<feBlend mode="normal" in="SourceGraphic" in2="effect1_dropShadow_1080_424" result="shape"/>
</filter>
</defs>
</svg>
