<svg width="107" height="115" viewBox="0 0 107 115" fill="none" xmlns="http://www.w3.org/2000/svg">
<path d="M-26.3723 84.457H102.973C105.247 78.3374 106.482 71.7893 106.482 64.9811C106.482 31.0869 75.9416 3.61011 38.2683 3.61011C8.89707 3.61011 -16.1369 20.3118 -25.7447 43.7341L-27.7224 49.3923C-28.2837 51.3211 -28.7425 53.2872 -29.095 55.2852L-29.7237 60.027C-29.8687 61.6615 -29.9453 63.3133 -29.9453 64.9811C-29.9453 71.7066 -28.7389 78.1779 -26.5168 84.2336L-26.3723 84.457Z" fill="#ECEFF1"/>
<path d="M-34.8926 78.5161C-34.8592 78.6085 -34.8277 78.7017 -34.794 78.7939L-20.6456 100.66C-8.16213 113.096 9.89928 120.912 29.9912 120.912C60.3031 120.912 85.9925 103.122 94.8765 78.5161H-34.8926Z" fill="#2A428C"/>
<path d="M5.19978 78.5164C6.82606 78.851 8.42227 79.2809 9.88205 79.996C15.2523 82.628 15.8175 87.7048 11.121 91.5626C7.11451 94.8536 0.759747 96.1001 -1.63498 100.717C-2.75898 102.884 -2.66933 105.457 -1.78199 107.711C-0.894651 109.965 0.731627 111.932 2.58231 113.649C4.11448 115.071 5.80424 116.336 7.57307 117.514C14.5952 119.713 22.1372 120.912 29.9918 120.912C60.3036 120.912 85.993 103.122 94.877 78.5161H5.19978V78.5164Z" fill="#1A3372"/>
<path d="M42.6044 19.0022C42.0888 19.0022 41.5926 18.7454 41.3479 18.3016C38.3843 12.9277 33.721 10.2354 31.2048 9.10889C30.5121 8.79852 30.2301 8.04178 30.5748 7.41854C30.9197 6.79506 31.7609 6.54206 32.4536 6.85142C35.2843 8.11893 40.5304 11.1467 43.8585 17.1808C44.2026 17.8046 43.9194 18.5613 43.2261 18.8704C43.0262 18.9599 42.8138 19.0022 42.6044 19.0022Z" fill="#FFB332"/>
<path d="M22.4762 26.7029L20.9655 23.6497L7.92126 30.1878L-14.661 67.6493C-16.1692 70.1627 -19.0883 71.7293 -22.2629 71.7293H-28.0391C-31.7422 71.7293 -34.7441 74.4301 -34.7441 77.7617V78.929C-34.5465 79.4638 -34.3424 79.9961 -34.1285 80.5244C-31.7202 77.4281 -27.7342 75.395 -23.2243 75.395C-19.2411 75.395 -15.6633 76.9789 -13.2229 79.4816L13.1217 35.092C13.9322 33.7263 15.5131 32.8734 17.234 32.8734H19.5029L22.7881 27.226L22.7079 27.0459C22.6174 26.9427 22.5383 26.8289 22.4762 26.7029Z" fill="#8FC114"/>
<path d="M-10.3777 84.2393L19.6519 32.6174H16.9497C15.2288 32.6174 13.6479 33.4704 12.8374 34.8361L-13.4961 79.2076C-12.0394 80.6123 -10.9527 82.3322 -10.3777 84.2393Z" fill="#9FD332"/>
<path d="M59.2432 119.082C84.1451 119.082 104.332 100.92 104.332 78.5164C104.332 56.1126 84.1451 37.9507 59.2432 37.9507C34.3413 37.9507 14.1543 56.1126 14.1543 78.5164C14.1543 100.92 34.3413 119.082 59.2432 119.082Z" fill="#4F71B6"/>
<path d="M82.4206 43.7148C80.3402 44.6534 77.2066 46.7982 78.6477 50.871C80.7359 56.7724 96.3436 78.5158 96.3436 78.5158C96.3436 78.5158 99.4869 82.6316 104.292 80.1653C104.316 79.6179 104.332 79.0684 104.332 78.5158C104.332 63.7376 95.547 50.8063 82.4206 43.7148Z" fill="#6289CC"/>
<path d="M73.3894 109.374C73.3894 109.374 61.2253 50.2384 55.7239 45.2889C52.3358 42.2406 53.1209 39.7026 54.2243 38.2019C31.6848 40.4481 14.1543 57.639 14.1543 78.5162C14.1543 100.92 34.3415 119.082 59.2435 119.082C64.9061 119.082 70.3231 118.14 75.3164 116.426C70.9538 113.948 73.3894 109.374 73.3894 109.374Z" fill="#3C58A0"/>
<path d="M59.243 109.373C78.1852 109.373 93.5408 95.5578 93.5408 78.5159C93.5408 61.4739 78.1852 47.6587 59.243 47.6587C40.3009 47.6587 24.9453 61.4739 24.9453 78.5159C24.9453 95.5578 40.3009 109.373 59.243 109.373Z" fill="#E9EFFF"/>
<path d="M75.2037 92.8953C84.03 84.9544 84.03 72.0798 75.2037 64.1389C66.3775 56.1981 52.0673 56.1981 43.2411 64.1389C34.4148 72.0798 34.4148 84.9544 43.2411 92.8953C52.0673 100.836 66.3775 100.836 75.2037 92.8953Z" fill="#DAE2FE"/>
<path d="M59.243 111.895C38.7857 111.895 22.1426 96.921 22.1426 78.5159C22.1426 60.1108 38.7857 45.1372 59.243 45.1372C79.7003 45.1372 96.3435 60.1108 96.3435 78.5159C96.3435 96.921 79.7001 111.895 59.243 111.895ZM59.243 50.1804C41.8765 50.1804 27.7478 62.8918 27.7478 78.5161C27.7478 94.1405 41.8765 106.852 59.243 106.852C76.6095 106.852 90.7382 94.1405 90.7382 78.5161C90.7382 62.8918 76.6095 50.1804 59.243 50.1804Z" fill="#2A428C"/>
<path d="M32.2985 27.5177C33.2955 27.1212 34.3863 27.1715 35.2957 27.5703L29.8049 24.5151C29.656 24.9267 29.3261 25.2836 28.8558 25.4793L24.584 27.2574C23.9982 27.5014 23.3431 27.4348 22.8425 27.1367L22.7891 27.2256L30.3565 31.4363C29.7938 29.8933 30.6124 28.188 32.2985 27.5177Z" fill="#3C58A0"/>
<path d="M18.6323 18.7256L-17.8283 35.5242C-21.371 37.1567 -25.0696 38.1264 -28.8211 38.4069C-30.7339 38.55 -32.469 38.5101 -34.0221 38.2944C-34.7794 40.1406 -35.4398 42.0288 -36 43.9536C-34.443 44.2337 -32.7783 44.3772 -31.0064 44.3772C-30.1233 44.3772 -29.2139 44.3421 -28.2795 44.2722C-23.6727 43.9278 -19.153 42.747 -14.8464 40.7628L21.2117 24.1495L18.776 19.2266C18.6958 19.0635 18.6499 18.8944 18.6323 18.7256Z" fill="#BBEA49"/>
<path d="M20.1572 8.71469L17.1393 7.5188C15.8202 8.40758 15.304 10.0248 15.9989 11.4391L19.095 17.7402C19.2506 17.5877 19.4413 17.4597 19.663 17.3675L23.9348 15.5892C24.0982 15.5213 24.2672 15.478 24.4365 15.4564L21.441 9.35973C20.9732 9.20567 20.5422 8.98548 20.1572 8.71469Z" fill="#2A428C"/>
<path d="M43.6253 80.9552V77.915C42.0568 76.4296 40.5439 74.2779 39.6763 71.1779C39.4876 70.5026 38.725 70.093 37.9755 70.2631C37.2252 70.4329 36.7697 71.1183 36.9588 71.7933C38.3358 76.7142 41.1274 79.6193 43.6384 81.3086C43.6306 81.1916 43.6253 81.0739 43.6253 80.9552Z" fill="#FFB332"/>
<path d="M38.3159 72.7461C37.6889 72.7461 37.1181 72.3648 36.958 71.793C35.2813 65.8006 36.1091 58.0914 39.4182 48.88C39.6563 48.2177 40.4464 47.8543 41.1826 48.0682C41.9191 48.2824 42.3231 48.993 42.085 49.6556C38.9399 58.4098 38.1293 65.6509 39.6757 71.1772C39.8648 71.8523 39.4096 72.5377 38.6589 72.7075C38.5442 72.7338 38.4292 72.7461 38.3159 72.7461Z" fill="#FFDD40"/>
<path d="M43.0126 44.4634C42.8781 44.4634 42.7417 44.4458 42.6067 44.4093C41.866 44.2079 41.447 43.5042 41.6709 42.8379C44.9889 32.9611 44.8801 24.7058 41.3476 18.3011C41.0035 17.6774 41.2866 16.9206 41.9802 16.6115C42.6735 16.3019 43.5144 16.5564 43.8582 17.1804C47.7181 24.1787 47.8846 33.0566 44.3536 43.5676C44.1703 44.1119 43.6143 44.4634 43.0126 44.4634Z" fill="#FFDD40"/>
<path d="M30.9671 5.72795L26.457 4.95217C26.3698 4.93363 26.2832 4.92161 26.1964 4.91284C26.3094 5.27806 26.3743 5.66107 26.3743 6.0586C26.3743 7.04054 26.002 7.94232 25.3828 8.66375C25.4115 8.67101 25.4393 8.68003 25.4686 8.68629L29.9785 9.46207C31.1186 9.70655 32.2735 9.07581 32.5478 8.03951C32.8212 7.00823 32.1131 5.97344 30.9671 5.72795Z" fill="#E9EFFF"/>
<path d="M59.2427 88.543C65.3979 88.543 70.3877 84.0537 70.3877 78.5159C70.3877 72.9781 65.3979 68.4888 59.2427 68.4888C53.0875 68.4888 48.0977 72.9781 48.0977 78.5159C48.0977 84.0537 53.0875 88.543 59.2427 88.543Z" fill="#BEC8F7"/>
<path d="M48.6664 68.4888L53.5933 78.5161L50.6472 84.7493C50.3081 85.4664 49.5257 85.9321 48.6595 85.9321C45.1153 85.9321 42.2422 83.3472 42.2422 80.1586V75.2803C42.2422 74.4514 42.6203 73.6586 43.2883 73.0875L48.6664 68.4888Z" fill="#4F71B6"/>
<path d="M48.6664 68.4888L53.5933 78.5161L50.6472 84.7493C50.3081 85.4664 49.5257 85.9321 48.6595 85.9321C45.1153 85.9321 42.2422 83.3472 42.2422 80.1586V75.2803C42.2422 74.4514 42.6203 73.6586 43.2883 73.0875L48.6664 68.4888Z" fill="#6289CC"/>
<path d="M50.4946 83.3073V85.0127C50.5522 84.9293 50.6035 84.8416 50.6472 84.7492L53.5933 78.516L48.6661 68.4888L43.2882 73.0874C42.6203 73.6586 42.2422 74.4512 42.2422 75.2803V75.4003C43.4158 75.1295 45.1654 74.993 46.0706 76.2274C47.0259 77.5305 48.6634 79.6437 49.6557 80.9165C50.202 81.6174 50.4946 82.4516 50.4946 83.3073Z" fill="#4F71B6"/>
<path d="M45.9787 47.7751C43.7995 48.6769 41.6364 49.5732 39.5195 50.4522L53.1802 78.2543C53.526 78.958 54.3003 79.4116 55.1556 79.4116H61.4697C61.4221 79.2491 61.3642 79.0872 61.2862 78.9287L45.9787 47.7751Z" fill="#4F71B6"/>
<path d="M45.9002 55.6262C45.3336 54.4734 45.8985 53.1255 47.1709 52.5979C47.4956 52.4634 47.823 52.3277 48.1491 52.1926L45.9787 47.7759C43.7995 48.6777 41.6364 49.5739 39.5195 50.4529L53.1802 78.2553C53.526 78.959 54.3006 79.4126 55.1556 79.4126H57.5874L45.9002 55.6262Z" fill="#3C58A0"/>
<path d="M46.1851 48.1945L39.8781 35.3584C37.6988 36.2592 35.5248 37.1595 33.418 38.0342L39.7255 50.8713C41.8441 49.9921 44.0061 49.096 46.1851 48.1945Z" fill="#E9EFFF"/>
<path d="M62.7843 81.7227C64.752 79.9523 64.752 77.0819 62.7843 75.3115C60.8166 73.5411 57.6263 73.5411 55.6586 75.3115C53.6909 77.0819 53.6909 79.9523 55.6586 81.7227C57.6263 83.493 60.8166 83.493 62.7843 81.7227Z" fill="#4F71B6"/>
<path d="M36.7027 28.8943C35.9092 27.2786 33.8085 26.5481 32.0134 27.262C30.2173 27.9762 29.4051 29.8652 30.1989 31.4812L33.5233 38.2468C35.631 37.3718 37.8053 36.4716 39.9834 35.5713L36.7027 28.8943Z" fill="#4F71B6"/>
<path d="M22.1923 26.7024L18.4932 19.2261C18.0981 18.4218 18.4923 17.481 19.3794 17.1117L23.6512 15.3335C24.56 14.9552 25.6372 15.3204 26.0421 16.1446L29.7412 23.6208C30.1363 24.4251 29.742 25.366 28.855 25.7352L24.5831 27.5135C23.6741 27.8917 22.5971 27.5265 22.1923 26.7024Z" fill="#BBEA49"/>
<path d="M39.7267 52.1326C39.1965 52.1326 38.6892 51.8608 38.4531 51.3991C38.1293 50.7669 38.4367 50.0179 39.1397 49.7266L45.5994 47.0498C46.3022 46.758 47.1347 47.0348 47.4585 47.6673C47.7823 48.2995 47.475 49.0485 46.7719 49.3396L40.3122 52.0163C40.1223 52.0955 39.923 52.1326 39.7267 52.1326Z" fill="#4F71B6"/>
<path d="M24.6354 3.37941C24.5764 3.35386 24.4358 3.27595 24.1 3.16849L17.226 0.461914L17.2249 0.464419C18.3378 1.05082 19.0873 2.13521 19.0873 3.37941C19.0873 5.69046 16.5575 7.32994 14.1105 6.57219L14.1094 6.57445L21.1326 9.35768L21.1337 9.35592C23.6083 10.4977 26.5991 8.89001 26.5991 6.34976C26.5991 5.06723 25.8051 3.95179 24.6354 3.37941Z" fill="#3C58A0"/>
<path d="M15.3322 6.7583C17.4065 6.7583 19.0881 5.2454 19.0881 3.37915C19.0881 1.5129 17.4065 0 15.3322 0C13.2578 0 11.5762 1.5129 11.5762 3.37915C11.5762 5.2454 13.2578 6.7583 15.3322 6.7583Z" fill="#4F71B6"/>
<path d="M-5.45569 101.362H0.449707L-20.4514 85.0649C-22.0228 83.7969 -24.4557 83.9775 -25.7751 85.4599C-27.0946 86.9423 -26.7585 89.1175 -25.0398 90.2202L-6.76846 102.149C-6.55351 101.688 -6.0465 101.362 -5.45569 101.362Z" fill="#4F71B6"/>
<path d="M-9.78388 93.3838C-9.46648 94.3723 -9.65887 95.4807 -10.4268 96.3548C-11.2554 97.2981 -12.5339 97.7202 -13.7617 97.585L-6.76939 102.15C-6.55417 101.688 -6.04689 101.363 -5.45635 101.363H0.44873L-9.78388 93.3838Z" fill="#3C58A0"/>
<path d="M8.32971 101.106H-5.45593C-6.39923 101.106 -7.16406 101.795 -7.16406 102.643V104.791C-7.16406 105.64 -6.39923 106.328 -5.45593 106.328H8.32971C9.27301 106.328 10.0378 105.64 10.0378 104.791V102.643C10.0376 101.794 9.27301 101.106 8.32971 101.106Z" fill="#6289CC"/>
<path d="M1.43682 103.717C1.43682 102.275 2.73624 101.106 4.33887 101.106H-5.45592C-6.39923 101.106 -7.16406 101.795 -7.16406 102.643V104.791C-7.16406 105.64 -6.39923 106.328 -5.45592 106.328H4.33887C2.73596 106.328 1.43682 105.159 1.43682 103.717Z" fill="#4F71B6"/>
</svg>
