<svg width="90" height="90" viewBox="0 0 90 90" fill="none" xmlns="http://www.w3.org/2000/svg">
<g clip-path="url(#clip0_1051_3044)">
<path d="M56.0759 58.5321C55.879 58.6392 55.6628 58.69 55.4484 58.69C55.1073 58.69 54.7698 58.5581 54.5167 58.3052L45.3866 49.1753C45.137 48.9257 44.9999 48.5882 44.9999 48.2417C44.9999 48.5882 44.8628 48.9257 44.6132 49.1753L35.4831 58.3052C35.23 58.5581 34.8925 58.69 34.5514 58.69C34.337 58.69 34.1208 58.6392 33.9239 58.5321L11.1621 46.1951V71.1008C11.1619 71.1466 11.1642 71.1919 11.1688 71.2367C11.1707 71.2559 11.1744 71.2745 11.1771 71.2933C11.1804 71.3164 11.183 71.3394 11.1876 71.3621C11.1932 71.3909 11.201 71.4187 11.2083 71.4464C11.2119 71.4594 11.2145 71.4725 11.2184 71.4853C11.227 71.5138 11.2374 71.5412 11.2477 71.5688C11.2523 71.5811 11.2562 71.5936 11.2613 71.6059C11.2715 71.6307 11.2832 71.6546 11.2948 71.6786C11.302 71.6934 11.3085 71.7082 11.3163 71.7229C11.3268 71.7425 11.3384 71.7614 11.3499 71.7802C11.3608 71.7983 11.3711 71.8166 11.3827 71.8346C11.3924 71.8493 11.4033 71.863 11.4137 71.8771C11.4286 71.898 11.4434 71.9186 11.4595 71.9386C11.4685 71.9497 11.4785 71.9599 11.4878 71.9706C11.5065 71.9922 11.5251 72.0135 11.5451 72.0337C11.5557 72.0444 11.5669 72.0539 11.5778 72.064C11.5979 72.0829 11.6176 72.1017 11.6388 72.1193C11.6594 72.1366 11.6812 72.1518 11.7026 72.1677C11.7153 72.177 11.7271 72.1868 11.7401 72.1958C11.7779 72.2213 11.8171 72.2448 11.8575 72.2668L44.3729 89.8425C44.5687 89.9483 44.7842 90.001 44.9999 90.001C45.2156 90.001 45.4313 89.9481 45.6267 89.8425L78.1421 72.2668C78.1825 72.2448 78.2217 72.2211 78.2595 72.1958C78.2725 72.1868 78.2845 72.177 78.297 72.1677C78.3186 72.1518 78.3404 72.1364 78.3608 72.1193C78.3821 72.1017 78.4017 72.0829 78.4218 72.064C78.4325 72.0539 78.4439 72.0444 78.4543 72.0337C78.4743 72.0135 78.493 71.9922 78.5116 71.9706C78.5209 71.9599 78.5309 71.9497 78.5399 71.9386C78.5561 71.9188 78.5708 71.8982 78.5858 71.8771C78.5962 71.863 78.6071 71.8493 78.6167 71.8346C78.6283 71.8166 78.6387 71.7985 78.6496 71.7802C78.661 71.7613 78.6728 71.7425 78.6832 71.7229C78.6909 71.7082 78.6974 71.6934 78.7046 71.6786C78.7162 71.6546 78.728 71.6307 78.7382 71.6059C78.7433 71.5936 78.7472 71.5811 78.7517 71.5688C78.7621 71.5414 78.7725 71.5138 78.7811 71.4853C78.7849 71.4726 78.7876 71.4594 78.7911 71.4464C78.7985 71.4187 78.8062 71.3909 78.8118 71.3621C78.8164 71.3394 78.8191 71.3164 78.8224 71.2933C78.825 71.2745 78.8289 71.2559 78.8307 71.2367C78.8352 71.1917 78.8375 71.1464 78.8373 71.1008V46.1951L56.0759 58.5321Z" fill="#E2AE83"/>
<path d="M44.3085 11.6098C44.6741 11.4131 44.9255 11.0526 44.9852 10.6413C44.994 10.5782 44.9993 10.5149 44.9993 10.4514C44.9993 10.5149 45.0046 10.5782 45.0134 10.6395C45.0731 11.0508 45.3245 11.4096 45.6901 11.6081L78.2097 29.1862C78.4083 29.2936 78.6228 29.3444 78.8373 29.3444C78.6228 29.3444 78.4083 29.3973 78.2097 29.5044L45.6901 47.0826C45.3245 47.2796 45.0731 47.6398 45.0134 48.0511C45.0046 48.1146 44.9993 48.1779 44.9993 48.241C44.9993 48.1779 44.994 48.1146 44.9852 48.0511C44.9255 47.6398 44.6741 47.2796 44.3085 47.0826L11.7889 29.5044C11.6148 29.4114 11.4285 29.3585 11.2422 29.3462C11.4285 29.3339 11.6148 29.2813 11.7889 29.188L44.3085 11.6098Z" fill="#C48D69"/>
<path d="M89.1845 18.7044C89.2443 19.1158 89.1089 19.5304 88.8153 19.8257L79.7731 28.9544C79.52 29.2109 79.1807 29.3445 78.838 29.3445C78.6235 29.3445 78.4091 29.2937 78.2104 29.1863L45.6908 11.6081C45.3252 11.4097 45.0738 11.0509 45.0141 10.6396C45.0053 10.578 45 10.5149 45 10.4515C45 10.4497 45 10.4497 45 10.448C45 10.1019 45.1371 9.764 45.3867 9.5165L54.5168 0.38623C54.9282 -0.0268569 55.5627 -0.118088 56.076 0.159647L88.5077 17.7378C88.8734 17.9343 89.123 18.2931 89.1845 18.7044Z" fill="#D39C72"/>
<path d="M88.8153 38.8646C89.1089 39.1599 89.2443 39.5749 89.1845 39.9862C89.123 40.3958 88.8734 40.7542 88.5077 40.953L56.076 58.5312C55.8791 58.6383 55.6629 58.6891 55.4485 58.6891C55.1074 58.6891 54.7699 58.5572 54.5168 58.3043L45.3867 49.1744C45.1371 48.9247 45 48.5872 45 48.2408C45 48.1777 45.0053 48.1144 45.0141 48.0509C45.0738 47.6396 45.3252 47.2794 45.6908 47.0824L78.2104 29.5042C78.4091 29.3971 78.6235 29.3442 78.838 29.3442C79.1807 29.3442 79.52 29.4796 79.7731 29.7347L88.8153 38.8646Z" fill="#F2C397"/>
<path d="M88.8137 38.8656L79.7715 29.7356C79.5183 29.4806 79.1791 29.3452 78.8363 29.3452C78.6219 29.3452 78.4074 29.3981 78.2088 29.5052L74.7754 31.3621C74.974 31.2551 75.1885 31.2022 75.4029 31.2022C75.7457 31.2022 76.085 31.3375 76.3381 31.5926L85.3803 40.7225C85.6739 41.0178 85.8094 41.4328 85.7495 41.8442C85.6879 42.2537 85.4383 42.6122 85.0727 42.811L88.5061 40.954C88.8717 40.7552 89.1213 40.3968 89.1828 39.9872C89.2426 39.5759 89.1073 39.1609 88.8137 38.8656Z" fill="#E2AE83"/>
<path d="M44.9991 10.4476C44.9991 10.4494 44.9991 10.4494 44.9991 10.4511C44.9991 10.5146 44.9938 10.5779 44.985 10.641C44.9253 11.0523 44.6739 11.4128 44.3083 11.6095L11.7887 29.1877C11.6147 29.281 11.4283 29.3336 11.242 29.3459C11.2051 29.3441 11.1664 29.3441 11.1295 29.3459C10.7973 29.339 10.4721 29.2054 10.226 28.9576L1.18379 19.8271C0.890233 19.5318 0.754881 19.1172 0.814647 18.7058C0.87617 18.2963 1.12578 17.9375 1.49141 17.739L33.9231 0.160875C34.4364 -0.11686 35.071 -0.0238716 35.4823 0.387457L44.6124 9.51773C44.862 9.76752 44.9973 10.1033 44.9991 10.4476Z" fill="#E2AE83"/>
<path d="M44.985 48.0509C44.9938 48.1143 44.9991 48.1776 44.9991 48.2407C44.9991 48.5872 44.862 48.9247 44.6124 49.1743L35.4823 58.3042C35.2292 58.5572 34.8917 58.689 34.5506 58.689C34.3362 58.689 34.12 58.6382 33.9231 58.5312L1.49141 40.953C1.12578 40.7542 0.87617 40.3958 0.814647 39.9862C0.754881 39.5749 0.890233 39.1598 1.18379 38.8645L10.226 29.7346C10.4721 29.4867 10.7973 29.3532 11.1295 29.3459C11.1401 29.3477 11.1506 29.3477 11.1612 29.3477C11.1875 29.3477 11.2139 29.3477 11.242 29.3459C11.4283 29.3583 11.6147 29.4112 11.7887 29.5041L44.3083 47.0823C44.6739 47.2794 44.9253 47.6396 44.985 48.0509Z" fill="#FFD2A6"/>
<path d="M11.2434 29.3451C11.2152 29.3468 11.1889 29.3468 11.1625 29.3468C11.152 29.3468 11.1414 29.3468 11.1309 29.3451C11.1678 29.3433 11.2064 29.3433 11.2434 29.3451Z" fill="#E2AE83"/>
<path d="M78.4565 46.4014C78.4393 46.4345 78.4216 46.4468 78.4034 46.4303H78.4033L73.5633 49.0536V73.9575C73.5633 74.0032 73.5612 74.0485 73.5566 74.0934C73.5547 74.1125 73.551 74.1311 73.5484 74.15C73.545 74.173 73.5424 74.196 73.5378 74.2187C73.5322 74.2475 73.5245 74.2753 73.5171 74.3031C73.5136 74.3161 73.5109 74.3291 73.5071 74.3419C73.4985 74.3704 73.4881 74.3978 73.4777 74.4254C73.4731 74.4377 73.4693 74.4502 73.4642 74.4625C73.454 74.4873 73.4422 74.5112 73.4306 74.5353C73.4236 74.55 73.4169 74.5648 73.4092 74.5796C73.3986 74.5991 73.387 74.6181 73.3756 74.6369C73.3649 74.6552 73.3543 74.6733 73.3427 74.6912C73.333 74.706 73.3221 74.7197 73.3118 74.7337C73.2968 74.7546 73.2821 74.7752 73.2659 74.7952C73.2569 74.8063 73.2469 74.8165 73.2376 74.8272C73.2188 74.8489 73.2003 74.8701 73.1803 74.8904C73.1697 74.9011 73.1585 74.9106 73.1478 74.9206C73.1277 74.9394 73.108 74.9584 73.0868 74.9758C73.0662 74.993 73.0444 75.0085 73.023 75.0241C73.0103 75.0334 72.9985 75.0433 72.9855 75.0522C72.9769 75.0579 72.9676 75.0628 72.959 75.0684L78.1421 72.2666C78.1825 72.2447 78.2217 72.2209 78.2595 72.1956C78.2725 72.1867 78.2844 72.1768 78.2969 72.1675C78.3185 72.1517 78.3403 72.1362 78.3607 72.1192C78.382 72.1016 78.4017 72.0828 78.4217 72.0638C78.4325 72.0538 78.4439 72.0443 78.4542 72.0335C78.4743 72.0133 78.4929 71.9921 78.5115 71.9704C78.5209 71.9597 78.5309 71.9495 78.5399 71.9385C78.556 71.9186 78.5708 71.898 78.5857 71.8769C78.5961 71.8629 78.607 71.8492 78.6167 71.8344C78.6283 71.8165 78.6386 71.7984 78.6495 71.7801C78.661 71.7611 78.6727 71.7423 78.6831 71.7228C78.6908 71.708 78.6974 71.6932 78.7046 71.6785C78.7162 71.6544 78.7279 71.6305 78.7381 71.6057C78.7432 71.5934 78.7471 71.5809 78.7517 71.5686C78.762 71.5412 78.7724 71.5136 78.781 71.4851C78.7849 71.4725 78.7875 71.4593 78.791 71.4463C78.7984 71.4185 78.8062 71.3907 78.8118 71.3619C78.8164 71.3392 78.819 71.3162 78.8223 71.2932C78.825 71.2743 78.8288 71.2557 78.8306 71.2366C78.8352 71.1916 78.8374 71.1462 78.8373 71.1007V46.1951L78.4565 46.4014Z" fill="#D39C72"/>
<path d="M44.6132 49.1753L35.4831 58.3052C35.2299 58.5581 34.8924 58.69 34.5514 58.69C34.337 58.69 34.1208 58.6392 33.9239 58.5321L11.1621 46.1951V71.1008C11.1619 71.1466 11.1642 71.1919 11.1688 71.2367C11.1707 71.2559 11.1744 71.2745 11.1771 71.2933C11.1804 71.3164 11.183 71.3394 11.1876 71.3621C11.1932 71.3909 11.201 71.4187 11.2083 71.4464C11.2119 71.4594 11.2145 71.4725 11.2184 71.4853C11.227 71.5138 11.2374 71.5412 11.2477 71.5688C11.2523 71.5811 11.2562 71.5936 11.2613 71.6059C11.2715 71.6307 11.2832 71.6546 11.2948 71.6786C11.302 71.6934 11.3085 71.7082 11.3163 71.7229C11.3268 71.7425 11.3384 71.7614 11.3499 71.7802C11.3608 71.7983 11.3711 71.8166 11.3827 71.8346C11.3924 71.8493 11.4033 71.863 11.4137 71.8771C11.4286 71.898 11.4434 71.9186 11.4595 71.9386C11.4685 71.9497 11.4785 71.9599 11.4878 71.9706C11.5065 71.9922 11.5251 72.0135 11.5451 72.0337C11.5557 72.0444 11.5669 72.0539 11.5778 72.064C11.5979 72.0829 11.6176 72.1017 11.6388 72.1193C11.6594 72.1366 11.6812 72.1518 11.7026 72.1677C11.7153 72.177 11.7271 72.1868 11.7401 72.1958C11.7779 72.2213 11.8171 72.2448 11.8575 72.2668L44.3729 89.8425C44.5687 89.9483 44.7842 90.001 44.9999 90.001V48.2417C44.9999 48.5882 44.8628 48.9257 44.6132 49.1753Z" fill="#F2C397"/>
</g>
<defs>
<clipPath id="clip0_1051_3044">
<rect width="90" height="90" fill="white"/>
</clipPath>
</defs>
</svg>
