<svg width="60" height="60" viewBox="0 0 60 60" fill="none" xmlns="http://www.w3.org/2000/svg">
<g clip-path="url(#clip0_1051_3032)">
<path d="M37.3839 39.0213C37.2527 39.0927 37.1085 39.1266 36.9656 39.1266C36.7382 39.1266 36.5132 39.0387 36.3445 38.87L30.2577 32.7834C30.0913 32.617 29.9999 32.392 29.9999 32.161C29.9999 32.392 29.9085 32.617 29.7421 32.7834L23.6554 38.87C23.4866 39.0387 23.2616 39.1266 23.0343 39.1266C22.8913 39.1266 22.7472 39.0927 22.6159 39.0213L7.44141 30.7966V47.4005C7.4413 47.431 7.44282 47.4612 7.44587 47.4911C7.44715 47.5038 7.44962 47.5163 7.45137 47.5288C7.4536 47.5442 7.45536 47.5595 7.4584 47.5746C7.46215 47.5938 7.46731 47.6124 7.47223 47.6309C7.47458 47.6395 7.47633 47.6482 7.47891 47.6568C7.48465 47.6758 7.49157 47.694 7.49848 47.7124C7.50153 47.7206 7.50411 47.729 7.50751 47.7372C7.5143 47.7537 7.52215 47.7696 7.52989 47.7857C7.53469 47.7955 7.53903 47.8054 7.54419 47.8152C7.55122 47.8282 7.55895 47.8409 7.56657 47.8534C7.57383 47.8655 7.58075 47.8777 7.58848 47.8896C7.59493 47.8995 7.60219 47.9086 7.60911 47.918C7.61907 47.9319 7.62891 47.9456 7.63969 47.959C7.64567 47.9664 7.65235 47.9732 7.65856 47.9803C7.67098 47.9947 7.68341 48.0089 7.69676 48.0224C7.7038 48.0295 7.7113 48.0359 7.71856 48.0426C7.73192 48.0552 7.74505 48.0678 7.75923 48.0795C7.77294 48.091 7.78747 48.1011 7.80176 48.1117C7.8102 48.1179 7.81805 48.1245 7.82673 48.1304C7.85192 48.1474 7.87805 48.1631 7.90501 48.1778L29.5819 59.8949C29.7125 59.9655 29.8561 60.0006 29.9999 60.0006C30.1437 60.0006 30.2875 59.9653 30.4178 59.8949L52.0947 48.1778C52.1217 48.1631 52.1478 48.1473 52.173 48.1304C52.1817 48.1245 52.1897 48.1179 52.198 48.1117C52.2124 48.1011 52.2269 48.0908 52.2405 48.0795C52.2547 48.0678 52.2678 48.0552 52.2812 48.0426C52.2883 48.0359 52.296 48.0295 52.3029 48.0224C52.3162 48.0089 52.3287 47.9947 52.3411 47.9803C52.3473 47.9732 52.354 47.9664 52.3599 47.959C52.3707 47.9458 52.3806 47.932 52.3905 47.918C52.3974 47.9086 52.4047 47.8995 52.4112 47.8896C52.4189 47.8777 52.4258 47.8656 52.4331 47.8534C52.4407 47.8408 52.4485 47.8282 52.4554 47.8152C52.4606 47.8054 52.4649 47.7955 52.4697 47.7857C52.4775 47.7696 52.4853 47.7537 52.4921 47.7372C52.4955 47.729 52.4981 47.7206 52.5012 47.7124C52.5081 47.6942 52.515 47.6758 52.5207 47.6568C52.5233 47.6483 52.5251 47.6395 52.5274 47.6309C52.5323 47.6124 52.5375 47.5938 52.5412 47.5746C52.5443 47.5595 52.546 47.5442 52.5483 47.5288C52.55 47.5163 52.5526 47.5038 52.5538 47.4911C52.5568 47.4611 52.5583 47.4308 52.5582 47.4005V30.7966L37.3839 39.0213Z" fill="#E2AE83"/>
<path d="M29.5403 7.7398C29.784 7.60866 29.9516 7.36831 29.9915 7.09409C29.9973 7.05202 30.0008 7.00983 30.0008 6.96753C30.0008 7.00983 30.0043 7.05202 30.0102 7.09292C30.0501 7.36714 30.2176 7.60632 30.4614 7.73862L52.1411 19.4574C52.2735 19.529 52.4165 19.5629 52.5595 19.5629C52.4165 19.5629 52.2735 19.5981 52.1411 19.6695L30.4614 31.3883C30.2176 31.5197 30.0501 31.7598 30.0102 32.034C30.0043 32.0763 30.0008 32.1185 30.0008 32.1606C30.0008 32.1185 29.9973 32.0763 29.9915 32.034C29.9516 31.7598 29.784 31.5197 29.5403 31.3883L7.86055 19.6695C7.74453 19.6075 7.62031 19.5722 7.49609 19.564C7.62031 19.5558 7.74453 19.5208 7.86055 19.4586L29.5403 7.7398Z" fill="#C48D69"/>
<path d="M59.4563 12.4697C59.4962 12.7439 59.4059 13.0204 59.2102 13.2172L53.1821 19.303C53.0133 19.474 52.7872 19.5631 52.5586 19.5631C52.4157 19.5631 52.2727 19.5292 52.1403 19.4576L30.4605 7.73883C30.2168 7.60653 30.0492 7.36735 30.0094 7.09313C30.0035 7.05211 30 7.01004 30 6.96774C30 6.96657 30 6.96657 30 6.96539C30 6.73465 30.0914 6.50942 30.2578 6.34442L36.3445 0.257568C36.6188 -0.0178232 37.0418 -0.0786436 37.384 0.106513L59.0052 11.8253C59.2489 11.9563 59.4153 12.1955 59.4563 12.4697Z" fill="#D39C72"/>
<path d="M59.2102 25.9101C59.4059 26.107 59.4962 26.3837 59.4563 26.6579C59.4153 26.9309 59.2489 27.1699 59.0052 27.3024L37.384 39.0212C37.2528 39.0926 37.1086 39.1264 36.9656 39.1264C36.7383 39.1264 36.5133 39.0386 36.3445 38.8699L30.2578 32.7833C30.0914 32.6169 30 32.3919 30 32.1609C30 32.1189 30.0035 32.0767 30.0094 32.0344C30.0492 31.7601 30.2168 31.52 30.4605 31.3887L52.1403 19.6699C52.2727 19.5985 52.4157 19.5632 52.5586 19.5632C52.7872 19.5632 53.0133 19.6535 53.1821 19.8235L59.2102 25.9101Z" fill="#F2C397"/>
<path d="M59.2085 25.9099L53.1803 19.8233C53.0116 19.6532 52.7854 19.563 52.5569 19.563C52.4139 19.563 52.2709 19.5983 52.1385 19.6696L49.8496 20.9076C49.982 20.8362 50.125 20.801 50.268 20.801C50.4965 20.801 50.7227 20.8912 50.8914 21.0612L56.9196 27.1478C57.1153 27.3447 57.2056 27.6214 57.1657 27.8956C57.1246 28.1687 56.9582 28.4076 56.7145 28.5402L59.0034 27.3022C59.2472 27.1696 59.4136 26.9307 59.4546 26.6577C59.4944 26.3834 59.4042 26.1068 59.2085 25.9099Z" fill="#E2AE83"/>
<path d="M29.9988 6.96499C29.9988 6.96617 29.9988 6.96617 29.9988 6.96734C29.9988 7.00964 29.9952 7.05183 29.9894 7.0939C29.9495 7.36812 29.782 7.60847 29.5382 7.7396L7.85848 19.4584C7.74246 19.5206 7.61824 19.5556 7.49402 19.5638C7.46941 19.5627 7.44363 19.5627 7.41902 19.5638C7.19754 19.5593 6.98074 19.4702 6.81668 19.305L0.788541 13.218C0.592838 13.0211 0.502603 12.7447 0.542447 12.4705C0.583463 12.1974 0.749869 11.9582 0.99362 11.8259L22.6148 0.107169C22.9569 -0.0779881 23.38 -0.0159958 23.6542 0.258223L29.7409 6.34507C29.9073 6.51159 29.9976 6.73542 29.9988 6.96499Z" fill="#E2AE83"/>
<path d="M29.9894 32.0339C29.9952 32.0762 29.9988 32.1184 29.9988 32.1605C29.9988 32.3915 29.9073 32.6165 29.7409 32.7829L23.6542 38.8695C23.4855 39.0381 23.2605 39.126 23.0331 39.126C22.8901 39.126 22.746 39.0921 22.6148 39.0208L0.99362 27.302C0.749869 27.1695 0.583463 26.9305 0.542447 26.6575C0.502603 26.3832 0.592838 26.1066 0.788541 25.9097L6.81668 19.8231C6.98074 19.6578 7.19754 19.5688 7.41902 19.564C7.42605 19.5651 7.43308 19.5651 7.44012 19.5651C7.45769 19.5651 7.47527 19.5651 7.49402 19.564C7.61824 19.5722 7.74246 19.6074 7.85848 19.6694L29.5382 31.3882C29.782 31.5196 29.9495 31.7597 29.9894 32.0339Z" fill="#FFD2A6"/>
<path d="M7.49492 19.5634C7.47617 19.5646 7.45859 19.5646 7.44102 19.5646C7.43398 19.5646 7.42695 19.5646 7.41992 19.5634C7.44453 19.5622 7.47031 19.5622 7.49492 19.5634Z" fill="#E2AE83"/>
<path d="M52.3057 30.9342C52.2942 30.9562 52.2823 30.9644 52.2703 30.9534H52.2701L49.0435 32.7023V49.3049C49.0435 49.3354 49.0421 49.3656 49.0391 49.3955C49.0378 49.4083 49.0353 49.4207 49.0336 49.4332C49.0313 49.4486 49.0296 49.4639 49.0265 49.479C49.0228 49.4983 49.0176 49.5168 49.0127 49.5353C49.0103 49.544 49.0086 49.5526 49.006 49.5612C49.0003 49.5802 48.9934 49.5985 48.9864 49.6169C48.9834 49.6251 48.9808 49.6334 48.9774 49.6416C48.9706 49.6581 48.9628 49.674 48.955 49.6901C48.9503 49.6999 48.9459 49.7098 48.9407 49.7196C48.9337 49.7326 48.926 49.7453 48.9184 49.7578C48.9112 49.77 48.9042 49.7821 48.8964 49.7941C48.89 49.8039 48.8827 49.813 48.8758 49.8224C48.8659 49.8364 48.856 49.8501 48.8452 49.8634C48.8393 49.8708 48.8326 49.8776 48.8264 49.8848C48.8138 49.8992 48.8015 49.9133 48.7882 49.9268C48.7811 49.934 48.7736 49.9403 48.7665 49.947C48.7531 49.9595 48.74 49.9722 48.7258 49.9838C48.7121 49.9953 48.6976 50.0056 48.6833 50.016C48.6748 50.0222 48.667 50.0288 48.6583 50.0348C48.6526 50.0385 48.6464 50.0418 48.6406 50.0455L52.096 48.1777C52.123 48.163 52.1491 48.1472 52.1743 48.1303C52.183 48.1244 52.1909 48.1178 52.1992 48.1116C52.2137 48.101 52.2282 48.0907 52.2418 48.0794C52.256 48.0676 52.2691 48.0551 52.2825 48.0424C52.2896 48.0358 52.2972 48.0294 52.3041 48.0223C52.3175 48.0088 52.3299 47.9946 52.3423 47.9802C52.3485 47.9731 52.3552 47.9663 52.3612 47.9589C52.372 47.9456 52.3818 47.9319 52.3918 47.9179C52.3987 47.9085 52.406 47.8994 52.4124 47.8895C52.4201 47.8776 52.4271 47.8655 52.4343 47.8533C52.4419 47.8406 52.4498 47.8281 52.4567 47.8151C52.4619 47.8053 52.4662 47.7954 52.471 47.7856C52.4787 47.7695 52.4866 47.7536 52.4934 47.7371C52.4968 47.7289 52.4994 47.7205 52.5024 47.7123C52.5093 47.694 52.5162 47.6756 52.522 47.6567C52.5246 47.6482 52.5263 47.6394 52.5287 47.6308C52.5336 47.6122 52.5387 47.5937 52.5425 47.5745C52.5455 47.5594 52.5473 47.544 52.5495 47.5287C52.5513 47.5162 52.5539 47.5037 52.555 47.491C52.5581 47.461 52.5596 47.4307 52.5595 47.4004V30.7966L52.3057 30.9342Z" fill="#D39C72"/>
<path d="M29.7421 32.7834L23.6554 38.87C23.4866 39.0387 23.2616 39.1266 23.0343 39.1266C22.8913 39.1266 22.7472 39.0927 22.6159 39.0213L7.44141 30.7966V47.4005C7.4413 47.431 7.44282 47.4612 7.44587 47.4911C7.44715 47.5038 7.44962 47.5163 7.45137 47.5288C7.4536 47.5442 7.45536 47.5595 7.4584 47.5746C7.46215 47.5938 7.46731 47.6124 7.47223 47.6309C7.47458 47.6395 7.47633 47.6482 7.47891 47.6568C7.48465 47.6758 7.49157 47.694 7.49848 47.7124C7.50153 47.7206 7.50411 47.729 7.50751 47.7372C7.5143 47.7537 7.52215 47.7696 7.52989 47.7857C7.53469 47.7955 7.53903 47.8054 7.54419 47.8152C7.55122 47.8282 7.55895 47.8409 7.56657 47.8534C7.57383 47.8655 7.58075 47.8777 7.58848 47.8896C7.59493 47.8995 7.60219 47.9086 7.60911 47.918C7.61907 47.9319 7.62891 47.9456 7.63969 47.959C7.64567 47.9664 7.65235 47.9732 7.65856 47.9803C7.67098 47.9947 7.68341 48.0089 7.69676 48.0224C7.7038 48.0295 7.7113 48.0359 7.71856 48.0426C7.73192 48.0552 7.74505 48.0678 7.75923 48.0795C7.77294 48.091 7.78747 48.1011 7.80176 48.1117C7.8102 48.1179 7.81805 48.1245 7.82673 48.1304C7.85192 48.1474 7.87805 48.1631 7.90501 48.1778L29.5819 59.8949C29.7125 59.9655 29.8561 60.0006 29.9999 60.0006V32.161C29.9999 32.392 29.9085 32.617 29.7421 32.7834Z" fill="#F2C397"/>
</g>
<defs>
<clipPath id="clip0_1051_3032">
<rect width="60" height="60" fill="white"/>
</clipPath>
</defs>
</svg>
