<svg width="120" height="133" viewBox="0 0 120 133" fill="none" xmlns="http://www.w3.org/2000/svg">
<g filter="url(#filter0_d_1751_426)">
<circle cx="38" cy="78" r="75" fill="#ECEFF1"/>
</g>
<path d="M47.2121 54.0003C22.3453 58.5042 15.2405 66.4654 13.5278 72.0794C12.5445 75.2512 13.5595 78.645 15.9383 80.9604C19.5542 84.4811 27.325 90.6978 38.7434 93.0766C48.2587 95.0431 40.9002 99.0078 33.0976 101.958C27.6105 104.019 21.933 105.573 16.1921 106.684C-6.01035 110.965 -84.2898 128.505 -26.8489 153.404C-26.5952 153.499 -26.3097 153.562 -26.056 153.562H86.8275C88.794 153.562 89.5553 151.025 87.9377 149.947C78.3906 143.54 64.0542 129.235 91.1412 112.424C125.174 91.3004 61.1362 77.7569 49.0834 76.0124C46.546 75.6318 44.072 74.8706 41.8518 73.5702C36.3011 70.3032 31.6703 63.6425 54.8877 54.032H47.2121V54.0003Z" fill="#3A556A"/>
<path d="M65.7046 114.104L61.8984 111.694C65.2922 109.474 66.9416 107.127 67.0367 104.811C67.1953 101.259 63.7698 98.1822 62.628 97.3575L64.3407 95.9937C64.531 96.1205 70.0182 99.5143 70.3037 104.843C70.4622 108.49 70.1451 110.489 65.7046 114.104Z" fill="#D5D6DB"/>
<path d="M52.8921 91.4272C51.56 91.0466 41.5689 87.9699 40.0781 84.4176L42.679 83.022C43.6305 84.6396 51.3379 88.1285 55.0489 89.0166L52.8921 91.4272Z" fill="#D5D6DB"/>
<path d="M25.2031 133.865L25.8375 130.249C41.284 130.344 50.0064 120.829 50.0699 120.734L52.8293 122.446C52.4804 122.859 43.2188 133.897 25.2031 133.865Z" fill="#D5D6DB"/>
<path d="M73.0294 24.7584C68.1766 33.0684 64.8145 42.1714 62.9115 48.1027C62.3088 49.9423 59.7397 49.9423 59.1371 48.1027C57.234 42.2032 53.8719 33.1002 49.0191 24.7584C43.7857 15.7505 49.2094 3.8881 59.6128 3.06343C60.0886 3.03172 60.5326 3 61.0084 3C61.4842 3 61.9282 3.03172 62.404 3.06343C72.8391 3.8881 78.2946 15.7505 73.0294 24.7584Z" fill="#44C4A1"/>
<path d="M61.0424 26.7568C66.5078 26.7568 70.9384 22.3263 70.9384 16.8609C70.9384 11.3955 66.5078 6.96497 61.0424 6.96497C55.577 6.96497 51.1465 11.3955 51.1465 16.8609C51.1465 22.3263 55.577 26.7568 61.0424 26.7568Z" fill="white"/>
<defs>
<filter id="filter0_d_1751_426" x="-40" y="0" width="160" height="160" filterUnits="userSpaceOnUse" color-interpolation-filters="sRGB">
<feFlood flood-opacity="0" result="BackgroundImageFix"/>
<feColorMatrix in="SourceAlpha" type="matrix" values="0 0 0 0 0 0 0 0 0 0 0 0 0 0 0 0 0 0 127 0" result="hardAlpha"/>
<feOffset dx="2" dy="2"/>
<feGaussianBlur stdDeviation="2.5"/>
<feComposite in2="hardAlpha" operator="out"/>
<feColorMatrix type="matrix" values="0 0 0 0 0 0 0 0 0 0 0 0 0 0 0 0 0 0 0.15 0"/>
<feBlend mode="normal" in2="BackgroundImageFix" result="effect1_dropShadow_1751_426"/>
<feBlend mode="normal" in="SourceGraphic" in2="effect1_dropShadow_1751_426" result="shape"/>
</filter>
</defs>
</svg>
