<svg width="148" height="147" viewBox="0 0 148 147" fill="none" xmlns="http://www.w3.org/2000/svg">
<g filter="url(#filter0_d_1751_494)">
<circle cx="72.0002" cy="71.8176" r="68.1818" fill="#ECEFF1"/>
</g>
<path d="M99.9386 47.3565H81.202V34.8654H68.7109V16.1288H81.202V3.6377H99.9386V16.1288H112.43V34.8654H99.9386V47.3565Z" fill="#50DBAA"/>
<path d="M99.9425 16.1288V3.6377H90.5742V47.3565H99.9425V34.8654H112.434V16.1288H99.9425Z" fill="#48CC9D"/>
<path d="M128.426 62.2139C127.231 59.8398 125.176 58.0694 122.638 57.2291C120.098 56.3879 117.391 56.5838 115.016 57.781L97.3533 66.7001C95.9244 62.9338 92.2824 60.2491 88.0238 60.2491H76.1275C71.3788 55.7479 64.7116 53.1914 57.6092 53.1914C53.1289 53.1914 48.1678 55.0045 42.9199 57.0549V92.1396L84.6559 99.9949L124.152 75.5606C126.466 74.3515 128.187 72.3169 129.004 69.816C129.836 67.2726 129.627 64.5672 128.426 62.2139Z" fill="#FFDAAA"/>
<path d="M88.022 80.2379H61.0217V73.9924H88.0218C90.0791 73.9924 91.7529 72.304 91.7529 70.2286C91.7529 68.1676 90.0791 66.4907 88.0218 66.4907H73.474L72.5487 65.5018C68.9389 61.645 63.4933 59.433 57.6073 59.433C53.9365 59.433 49.279 61.2619 43.886 63.3798C42.9132 63.7618 41.9224 64.1507 40.915 64.5377L38.6758 58.7073C39.6686 58.3261 40.6446 57.9426 41.6033 57.5662C47.3377 55.3145 52.7543 53.1875 57.6073 53.1875C64.7097 53.1875 71.377 55.744 76.1255 60.2452H88.0218C93.5229 60.2452 97.9984 64.7238 97.9984 70.2286C97.9986 75.7476 93.5228 80.2379 88.022 80.2379Z" fill="#FBCC94"/>
<path d="M22.9102 52.8801H42.9194V101.899H22.9102V52.8801Z" fill="#457899"/>
<path d="M22.9102 77.3906H42.9194V101.9H22.9102V77.3906Z" fill="#365C75"/>
<defs>
<filter id="filter0_d_1751_494" x="0.818359" y="0.635742" width="146.363" height="146.364" filterUnits="userSpaceOnUse" color-interpolation-filters="sRGB">
<feFlood flood-opacity="0" result="BackgroundImageFix"/>
<feColorMatrix in="SourceAlpha" type="matrix" values="0 0 0 0 0 0 0 0 0 0 0 0 0 0 0 0 0 0 127 0" result="hardAlpha"/>
<feOffset dx="2" dy="2"/>
<feGaussianBlur stdDeviation="2.5"/>
<feComposite in2="hardAlpha" operator="out"/>
<feColorMatrix type="matrix" values="0 0 0 0 0 0 0 0 0 0 0 0 0 0 0 0 0 0 0.15 0"/>
<feBlend mode="normal" in2="BackgroundImageFix" result="effect1_dropShadow_1751_494"/>
<feBlend mode="normal" in="SourceGraphic" in2="effect1_dropShadow_1751_494" result="shape"/>
</filter>
</defs>
</svg>
