<svg width="113" height="147" viewBox="0 0 113 147" fill="none" xmlns="http://www.w3.org/2000/svg">
<g filter="url(#filter0_d_1080_440)">
<circle cx="35.0002" cy="93.8176" r="68.1818" fill="#ECEFF1"/>
</g>
<mask id="mask0_1080_440" style="mask-type:alpha" maskUnits="userSpaceOnUse" x="-36" y="-1" width="142" height="163">
<path d="M103.183 93.8177C103.183 131.473 72.6568 162 35.0011 162C-2.65472 162 -33.1808 131.473 -33.1808 93.8177C-33.1808 56.1619 -54.4992 -0.000445578 35.0011 -0.00024414C124.501 -4.27025e-05 103.183 56.1619 103.183 93.8177Z" fill="#ECEFF1"/>
</mask>
<g mask="url(#mask0_1080_440)">
<path d="M22.8789 37.6411H27.1255V83.4888H22.8789V37.6411Z" fill="#EAAE48"/>
<path d="M105.689 131.248V144.62H99.3189L95.0723 136.978V131.248H105.689Z" fill="#CE892A"/>
<path d="M105.689 131.248V140.799H97.1956L95.0723 136.979V131.248H105.689Z" fill="#B0792C"/>
<path d="M41.9883 136.978V35.731C41.9883 34.211 42.6594 32.7533 43.854 31.6786C45.0486 30.6038 46.6688 30 48.3582 30H107.811C109.5 30 111.121 30.6038 112.315 31.6786C113.51 32.7533 114.181 34.211 114.181 35.731V131.247C114.181 132.767 113.51 134.225 112.315 135.299C111.121 136.374 109.5 136.978 107.811 136.978H41.9883Z" fill="#EAAE48"/>
<path d="M75.9629 30H80.2095V136.978H75.9629V30Z" fill="#D7A147"/>
<path d="M75.9624 131.248V144.62H69.5924L65.3457 136.978V131.248H75.9624Z" fill="#EAAE48"/>
<path d="M75.9624 131.248V140.799H67.469L65.3457 136.979V131.248H75.9624Z" fill="#D7A147"/>
<path d="M22.8801 131.248V136.978L18.6335 144.62H12.2637V131.248H22.8801Z" fill="#EAAE48"/>
<path d="M22.8801 131.248V136.979L20.7568 140.799H12.2637V131.248H22.8801Z" fill="#D7A147"/>
<path d="M3.76953 121.696V83.4893C3.76953 81.9693 4.44065 80.5116 5.63525 79.4369C6.82984 78.3621 8.45007 77.7583 10.1395 77.7583H78.0856C79.775 77.7583 81.3953 78.3621 82.5899 79.4369C83.7844 80.5116 84.4556 81.9693 84.4556 83.4893V121.696H3.76953Z" fill="#CACAC9"/>
<path d="M71.7155 119.785V110.422C71.7155 104.137 77.2524 98.878 84.2376 98.7732C85.9195 98.7473 87.5905 99.0214 89.154 99.5796C90.7176 100.138 92.1428 100.969 93.3474 102.025C94.5521 103.082 95.5122 104.342 96.1725 105.734C96.8328 107.126 97.1802 108.622 97.1946 110.135C97.209 111.649 96.8901 113.15 96.2564 114.552C95.6226 115.954 94.6866 117.229 93.5022 118.303C92.3178 119.378 90.9086 120.231 89.3559 120.813C87.8032 121.396 86.1376 121.695 84.4555 121.695V131.247C84.4555 132.767 83.7843 134.225 82.5898 135.299C81.3951 136.374 79.7749 136.978 78.0855 136.978H10.1392C8.44978 136.978 6.82955 136.374 5.63495 135.299C4.44035 134.225 3.76923 132.767 3.76923 131.247V121.695C1.24951 121.695 -1.21362 121.023 -3.30869 119.764C-5.40376 118.504 -7.03667 116.714 -8.00093 114.62C-8.96518 112.525 -9.21748 110.221 -8.7259 107.997C-8.23433 105.774 -7.02097 103.732 -5.23926 102.129C-3.45755 100.526 -1.18751 99.434 1.2838 98.9917C3.7551 98.5495 6.31668 98.7765 8.6446 99.644C10.9725 100.512 12.9622 101.981 14.3621 103.866C15.762 105.75 16.5092 107.966 16.5092 110.233V119.785C16.5092 119.785 25.0025 115.964 44.1124 115.964C63.2223 115.964 71.7155 119.785 71.7155 119.785Z" fill="#E4E4E3"/>
<path d="M3.76843 115.965C2.50857 115.965 1.27699 115.629 0.229455 114.999C-0.818086 114.369 -1.63454 113.474 -2.11667 112.427C-2.5988 111.38 -2.72495 110.228 -2.47916 109.116C-2.23337 108.004 -1.62669 106.983 -0.735832 106.181C0.155028 105.38 1.29005 104.834 2.52571 104.613C3.76137 104.392 5.04216 104.505 6.20612 104.939C7.37009 105.373 8.36495 106.107 9.06489 107.05C9.76483 107.992 10.1384 109.1 10.1384 110.234C10.1365 111.753 9.4648 113.21 8.2706 114.284C7.07641 115.359 5.45728 115.963 3.76843 115.965ZM3.76843 108.324C3.34848 108.324 2.93795 108.436 2.58877 108.646C2.23959 108.855 1.96744 109.154 1.80673 109.503C1.64602 109.852 1.60397 110.236 1.6859 110.607C1.76783 110.977 1.97006 111.318 2.26701 111.585C2.56397 111.852 2.94231 112.034 3.35419 112.108C3.76608 112.181 4.19301 112.143 4.581 111.999C4.96899 111.854 5.3006 111.609 5.53392 111.295C5.76723 110.981 5.89176 110.612 5.89176 110.234C5.89113 109.727 5.66722 109.242 5.26916 108.884C4.87109 108.526 4.33138 108.324 3.76843 108.324Z" fill="#B3B1B3"/>
<path d="M84.4559 115.965C83.1961 115.965 81.9645 115.629 80.917 114.999C79.8694 114.369 79.053 113.474 78.5708 112.427C78.0887 111.38 77.9625 110.228 78.2083 109.116C78.4541 108.004 79.0608 106.983 79.9517 106.181C80.8425 105.38 81.9776 104.834 83.2132 104.613C84.4489 104.392 85.7297 104.505 86.8936 104.939C88.0576 105.373 89.0524 106.107 89.7524 107.05C90.4523 107.992 90.8259 109.1 90.8259 110.234C90.824 111.753 90.1523 113.21 88.9581 114.284C87.7639 115.359 86.1448 115.963 84.4559 115.965ZM84.4559 108.324C84.036 108.324 83.6255 108.436 83.2763 108.646C82.9271 108.855 82.6549 109.154 82.4942 109.503C82.3335 109.852 82.2915 110.236 82.3734 110.607C82.4553 110.977 82.6576 111.318 82.9545 111.585C83.2515 111.852 83.6298 112.034 84.0417 112.108C84.4536 112.181 84.8805 112.143 85.2685 111.999C85.6565 111.854 85.9881 111.609 86.2214 111.295C86.4547 110.981 86.5793 110.612 86.5793 110.234C86.5786 109.727 86.3547 109.242 85.9567 108.884C85.5586 108.526 85.0189 108.324 84.4559 108.324Z" fill="#B3B1B3"/>
<path d="M10.2087 121.814C10.0627 121.58 9.97278 121.321 9.94489 121.055C9.917 120.788 9.95172 120.519 10.0468 120.265C10.1419 120.011 10.2952 119.778 10.4969 119.58C10.6985 119.383 10.9439 119.226 11.2173 119.12C15.5483 117.442 26.4763 114.055 44.1115 114.055C61.7468 114.055 72.6702 117.44 77.0026 119.119C77.2763 119.225 77.522 119.382 77.7239 119.579C77.9257 119.777 78.0792 120.01 78.1743 120.264C78.2694 120.519 78.304 120.788 78.2759 121.055C78.2478 121.322 78.1576 121.581 78.0112 121.815C77.755 122.225 77.3395 122.537 76.8441 122.689C76.3487 122.841 75.8083 122.823 75.3265 122.639C71.4371 121.15 60.9683 117.875 44.1115 117.875C27.2547 117.875 16.7854 121.15 12.895 122.64C12.4127 122.825 11.8717 122.842 11.3759 122.69C10.8802 122.537 10.4645 122.225 10.2087 121.814Z" fill="#B3B1B3"/>
<path d="M31.3711 87.3101H35.6174V91.1304H31.3711V87.3101Z" fill="#969595"/>
<path d="M41.9883 96.8613H46.2349V100.682H41.9883V96.8613Z" fill="#969595"/>
<path d="M20.7539 96.8613H25.0007V100.682H20.7539V96.8613Z" fill="#969595"/>
<path d="M31.3711 106.413H35.6174V110.234H31.3711V106.413Z" fill="#969595"/>
<path d="M52.6035 87.3101H56.8503V91.1304H52.6035V87.3101Z" fill="#969595"/>
<path d="M63.2207 96.8613H67.4673V100.682H63.2207V96.8613Z" fill="#969595"/>
<path d="M52.6035 106.413H56.8503V110.234H52.6035V106.413Z" fill="#969595"/>
<path d="M46.2358 66.2959H3.76953L5.89285 43.3716H44.1125L46.2358 66.2959Z" fill="#E4E4E3"/>
</g>
<defs>
<filter id="filter0_d_1080_440" x="-36.1816" y="22.6357" width="146.363" height="146.364" filterUnits="userSpaceOnUse" color-interpolation-filters="sRGB">
<feFlood flood-opacity="0" result="BackgroundImageFix"/>
<feColorMatrix in="SourceAlpha" type="matrix" values="0 0 0 0 0 0 0 0 0 0 0 0 0 0 0 0 0 0 127 0" result="hardAlpha"/>
<feOffset dx="2" dy="2"/>
<feGaussianBlur stdDeviation="2.5"/>
<feComposite in2="hardAlpha" operator="out"/>
<feColorMatrix type="matrix" values="0 0 0 0 0 0 0 0 0 0 0 0 0 0 0 0 0 0 0.15 0"/>
<feBlend mode="normal" in2="BackgroundImageFix" result="effect1_dropShadow_1080_440"/>
<feBlend mode="normal" in="SourceGraphic" in2="effect1_dropShadow_1080_440" result="shape"/>
</filter>
</defs>
</svg>
