<svg width="148" height="147" viewBox="0 0 148 147" fill="none" xmlns="http://www.w3.org/2000/svg">
<g filter="url(#filter0_d_1751_510)">
<circle cx="72.0002" cy="71.8177" r="68.1818" fill="#ECEFF1"/>
</g>
<path d="M105.932 63.0347H88.3298C86.908 63.0347 85.7559 62.0743 85.7559 60.8904V5.11024C85.7559 3.92631 86.908 2.96594 88.3298 2.96594H96.6164L105.932 63.0347Z" fill="#8C8787"/>
<path d="M105.933 63.0324H90.3145V16.2687C90.3145 15.0848 91.2748 14.1244 92.4602 14.1244H96.6174L105.933 63.0324Z" fill="#9B9696"/>
<path d="M113.373 63.0329L109.617 47.9378C108.451 47.6657 107.439 47.0285 106.698 46.1629C105.874 45.1989 105.383 43.9516 105.383 42.6025V30.9237L98.682 3.9971C98.5185 2.96109 98.5094 2.99078 98.503 2.9654C98.3366 2.22789 97.8564 1.60505 97.2139 1.24359C96.8343 1.02983 96.396 0.909668 95.9321 0.909668H95.8024C94.5497 0.909668 93.4926 1.79176 93.226 2.96564C93.1822 3.15379 93.1602 3.34744 93.1602 3.54804V52.0235C93.1602 58.1042 98.0898 63.0339 104.171 63.0337L113.373 63.0329Z" fill="#82AAF0"/>
<path d="M121.21 15.2359V25.9007H113.654V11.122C113.76 9.5759 115.539 8.76442 116.775 9.69798L120.437 13.6787C120.862 14.1228 121.21 14.6233 121.21 15.2359Z" fill="#5F82C3"/>
<path d="M121.21 18.8931V25.9015H113.654V14.7776C113.76 13.2331 115.539 12.4217 116.775 13.3536L120.437 17.3358C120.862 17.7781 121.21 18.2803 121.21 18.8931Z" fill="#415A87"/>
<path d="M119.718 60.691C121.423 59.2048 122.477 57.1524 122.477 54.8829V34.973C122.477 32.8457 122.241 30.7479 121.788 28.7029C119.685 19.1936 112.857 10.8435 102.93 6.04866L98.6813 3.99628C98.4766 3.89789 98.2667 3.85217 98.0623 3.85217C97.268 3.85217 96.5633 4.53319 96.6452 5.40953L99.5028 36.1599L100.984 52.0983C101.522 57.9083 106.104 62.442 111.791 63.0321C112.206 63.0759 112.628 63.0979 113.053 63.0979C115.657 63.0977 118.012 62.1773 119.718 60.691ZM110.009 48.0136C109.876 47.9935 109.746 47.9679 109.617 47.937C108.45 47.6648 107.438 47.0276 106.697 46.162C105.873 45.1981 105.382 43.9507 105.382 42.6016V20.3016C105.382 19.1038 106.781 18.4448 107.701 19.2132C111.563 22.4505 114.293 26.59 115.551 31.1345C115.837 32.1606 116.048 33.2086 116.177 34.2731C116.283 35.1368 116.338 36.0095 116.338 36.8933V42.6011C116.338 45.967 113.332 48.5359 110.009 48.0136Z" fill="#506EA0"/>
<path d="M109.446 60.6592C107.061 60.6592 105.05 59.0497 104.442 56.8551C104.319 56.4135 104.254 55.9474 104.254 55.4651C104.254 52.5979 106.578 50.2731 109.446 50.2731C111.896 50.2731 113.949 51.9678 114.494 54.2476C114.512 54.317 114.528 54.3867 114.541 54.4561C114.606 54.7833 114.64 55.1194 114.64 55.4648C114.64 55.81 114.606 56.1487 114.541 56.4735C114.072 58.8613 111.97 60.6592 109.446 60.6592Z" fill="#6E96DC"/>
<path d="M109.443 60.657C107.058 60.657 105.047 59.0474 104.439 56.8529C105.098 54.2928 107.423 52.4008 110.189 52.4008C111.884 52.4008 113.411 53.1091 114.491 54.2456C114.509 54.315 114.525 54.3847 114.538 54.4541C114.603 54.7813 114.637 55.1174 114.637 55.4628C114.637 55.808 114.603 56.1467 114.538 56.4715C114.07 58.859 111.967 60.657 109.443 60.657Z" fill="#82AAF0"/>
<path d="M114.54 56.4726H110.977C110.419 56.4726 109.969 56.0221 109.969 55.4639C109.969 54.9079 110.419 54.4552 110.977 54.4552H114.539C114.604 54.7824 114.638 55.1185 114.638 55.4639C114.638 55.8093 114.605 56.1478 114.54 56.4726Z" fill="#FFC364"/>
<path d="M113.054 63.0973C112.629 63.0973 112.207 63.0755 111.792 63.0315C106.105 62.4417 101.523 57.9079 100.985 52.0976L99.5039 36.1592C101.277 34.9377 103.26 34.0286 105.383 33.5079V42.601C105.383 43.9503 105.875 45.1975 106.698 46.1614C107.439 47.027 108.451 47.6642 109.618 47.9364C109.747 47.9673 109.877 47.9929 110.01 48.013C113.333 48.535 116.339 45.9663 116.339 42.601V36.8934C116.339 36.0096 116.284 35.1366 116.178 34.2732C118.55 35.2245 120.688 36.6799 122.477 38.513V54.8825C122.477 57.152 121.424 59.2044 119.718 60.6906C118.013 62.1769 115.658 63.0973 113.054 63.0973Z" fill="#5F82C3"/>
<path d="M105.088 69.8038L77.5936 89.0408L72.0009 92.9536L41.3207 114.421C39.3533 113.242 37.462 111.952 35.6543 110.56L66.4082 89.041L72.0009 85.1256L101.411 64.5477C102.858 63.5356 104.867 63.8918 105.879 65.3362C106.889 66.7827 106.535 68.792 105.088 69.8038Z" fill="#4B5055"/>
<path d="M108.352 110.562C106.544 111.952 104.653 113.244 102.686 114.423L72.0003 92.9537L66.4076 89.0409L38.913 69.8039C37.4662 68.7918 37.1126 66.7828 38.1221 65.336C39.1341 63.8919 41.1432 63.5357 42.59 64.5475L72.0003 85.1257L77.593 89.0409L108.352 110.562Z" fill="#5A5F64"/>
<path d="M133.282 67.2109C133.282 68.358 132.812 69.4043 132.056 70.1607C131.3 70.9171 130.258 71.3863 129.109 71.3863H14.8956C12.5991 71.3863 10.7227 69.5074 10.7227 67.2109C10.7227 66.0638 11.1918 65.0175 11.9482 64.2611C12.7047 63.5047 13.7462 63.0355 14.8956 63.0355H129.108C131.405 63.0353 133.282 64.9144 133.282 67.2109Z" fill="#FF563C"/>
<path d="M133.279 67.2111C133.279 68.3582 132.81 69.4045 132.054 70.1609C131.297 70.9174 130.256 71.3865 129.106 71.3865H27.7049C25.4084 71.3865 23.5293 69.5074 23.5293 67.2109C23.5293 66.0638 23.9985 65.0175 24.7549 64.2611C25.5139 63.5047 26.5552 63.0355 27.7047 63.0355H129.106C131.403 63.0355 133.279 64.9146 133.279 67.2111Z" fill="#FF7251"/>
<path d="M21.1777 57.5659C21.1777 60.5966 23.6574 63.0763 26.6881 63.0763H76.3879C77.9031 63.0763 79.2815 62.4563 80.2799 61.4579C81.2783 60.4595 81.8983 59.0814 81.8983 57.5659C81.8983 56.7121 81.7008 55.9008 81.3501 55.1777C80.4561 53.334 78.5648 52.0565 76.3879 52.0565H26.6883C25.1731 52.0565 23.7948 52.6765 22.7964 53.6749C22.3614 54.1099 21.9966 54.618 21.7261 55.1777C21.3752 55.9008 21.1777 56.7121 21.1777 57.5659Z" fill="#5F82C3"/>
<path d="M21.7227 55.1779C22.6167 57.0204 24.5094 58.2977 26.6849 58.2977H76.3847C77.8999 58.2977 79.2782 57.6777 80.2766 56.6793C80.7116 56.2443 81.0752 55.7362 81.3469 55.1777C80.4528 53.3341 78.5615 52.0565 76.3847 52.0565H26.6849C25.1696 52.0565 23.7913 52.6765 22.7929 53.6749C22.3575 54.1101 21.9929 54.6183 21.7227 55.1779Z" fill="#6E96DC"/>
<path d="M21.1777 46.5466C21.1777 49.5773 23.6574 52.057 26.6881 52.057H76.3879C77.9031 52.057 79.2815 51.437 80.2799 50.4386C81.2783 49.4402 81.8983 48.0621 81.8983 46.5466C81.8983 45.6928 81.7008 44.8816 81.3501 44.1584C80.4561 42.3148 78.5648 41.0372 76.3879 41.0372H26.6883C25.1731 41.0372 23.7948 41.6572 22.7964 42.6556C22.3614 43.0906 21.9966 43.5988 21.7261 44.1584C21.3752 44.8816 21.1777 45.6926 21.1777 46.5466Z" fill="#EBB410"/>
<path d="M21.7227 44.1587C22.6167 46.0011 24.5094 47.2784 26.6849 47.2784H76.3847C77.8999 47.2784 79.2782 46.6584 80.2766 45.66C80.7116 45.2251 81.0752 44.7169 81.3469 44.1584C80.4528 42.3148 78.5615 41.0372 76.3847 41.0372H26.6849C25.1696 41.0372 23.7913 41.6572 22.7929 42.6556C22.3575 43.0911 21.9929 43.5992 21.7227 44.1587Z" fill="#F7D139"/>
<path d="M21.1777 35.5274C21.1777 38.5581 23.6574 41.0377 26.6881 41.0377H76.3879C77.9031 41.0377 79.2815 40.4177 80.2799 39.4193C81.2783 38.4209 81.8983 37.0428 81.8983 35.5274C81.8983 34.6735 81.7008 33.8623 81.3501 33.1391C80.4561 31.2955 78.5648 30.0179 76.3879 30.0179H26.6883C25.1731 30.0179 23.7948 30.6379 22.7964 31.6363C22.3614 32.0713 21.9966 32.5795 21.7261 33.1391C21.3752 33.8623 21.1777 34.6733 21.1777 35.5274Z" fill="#FF876E"/>
<path d="M21.7227 33.1394C22.6167 34.9818 24.5094 36.2591 26.6849 36.2591H76.3847C77.8999 36.2591 79.2782 35.6392 80.2766 34.6407C80.7116 34.2058 81.0752 33.6976 81.3469 33.1391C80.4528 31.2955 78.5615 30.0179 76.3847 30.0179H26.6849C25.1696 30.0179 23.7913 30.6379 22.7929 31.6363C22.3575 32.072 21.9929 32.58 21.7227 33.1394Z" fill="#FF9B82"/>
<defs>
<filter id="filter0_d_1751_510" x="0.818359" y="0.635864" width="146.363" height="146.364" filterUnits="userSpaceOnUse" color-interpolation-filters="sRGB">
<feFlood flood-opacity="0" result="BackgroundImageFix"/>
<feColorMatrix in="SourceAlpha" type="matrix" values="0 0 0 0 0 0 0 0 0 0 0 0 0 0 0 0 0 0 127 0" result="hardAlpha"/>
<feOffset dx="2" dy="2"/>
<feGaussianBlur stdDeviation="2.5"/>
<feComposite in2="hardAlpha" operator="out"/>
<feColorMatrix type="matrix" values="0 0 0 0 0 0 0 0 0 0 0 0 0 0 0 0 0 0 0.15 0"/>
<feBlend mode="normal" in2="BackgroundImageFix" result="effect1_dropShadow_1751_510"/>
<feBlend mode="normal" in="SourceGraphic" in2="effect1_dropShadow_1751_510" result="shape"/>
</filter>
</defs>
</svg>
