<svg width="146" height="147" viewBox="0 0 146 147" fill="none" xmlns="http://www.w3.org/2000/svg">
<g filter="url(#filter0_d_1751_446)">
<circle cx="70.0021" cy="71.8176" r="68.1818" fill="#ECEFF1"/>
</g>
<path d="M76.3129 59.0337V79.0098L72.6808 80.8258L69.0488 79.0098V59.0337H76.3129Z" fill="#898890"/>
<path d="M81.7578 45.5019V55.3995C81.7516 57.4026 80.1289 59.0253 78.1258 59.0315H67.2297C65.2257 59.0253 63.603 57.4026 63.5977 55.3995V45.5019C63.5951 45.1738 63.6899 44.851 63.8699 44.5761C64.0109 44.3208 64.2175 44.1071 64.4694 43.959C66.9362 42.3221 69.7427 41.2669 72.6778 40.8714C75.6119 41.2669 78.4184 42.3221 80.8862 43.959C81.1371 44.1071 81.3437 44.3208 81.4847 44.5761C81.6647 44.851 81.7596 45.1738 81.7578 45.5019Z" fill="#57565C"/>
<path d="M124.195 90.8837L114.262 118.178L104.02 114.455L105.255 111.042L112.718 90.5565L113.953 87.1426L124.195 90.8837Z" fill="#787680"/>
<path d="M70.0832 94.3735C70.1107 94.0675 70.1843 93.7678 70.3013 93.4841C70.9664 91.653 72.5589 90.3158 74.4778 89.9789L94.9265 86.3646L99.158 85.6206L112.723 90.5597L105.259 111.045L101.863 109.81L90.8405 113.514L85.7188 111.662L53.5396 99.9483C51.0239 99.0926 49.4491 96.5947 49.7621 93.9558C49.9962 92.3304 50.9503 90.8975 52.3602 90.0551C53.7701 89.2127 55.4842 89.0513 57.0262 89.6153L70.0832 94.3735Z" fill="#FFDAAA"/>
<path d="M90.6404 29.7763L75.8765 15.0114C73.8317 12.9622 71.0536 11.8121 68.1584 11.8157H49.0726L36.3605 17.2637H32.7285V35.4238H36.3605C36.3605 39.4371 41.8086 42.6878 47.2566 42.6878C52.7046 42.6878 58.1526 39.4371 58.1526 35.4238H70.8647C73.8734 35.4238 76.3127 32.9844 76.3127 29.9758L83.5768 37.2398C84.0042 37.669 84.5096 38.0139 85.0656 38.2569C85.7351 38.5743 86.4675 38.7357 87.2088 38.7286C88.9645 38.7375 90.6023 37.8472 91.5484 36.3682C92.8111 34.2258 92.4351 31.4974 90.6404 29.7763Z" fill="#FFDAAA"/>
<path d="M74.4953 48.1359C74.4953 49.1388 73.6822 49.9519 72.6793 49.9519C71.6764 49.9519 70.8633 49.1388 70.8633 48.1359C70.8633 47.133 71.6764 46.3199 72.6793 46.3199C73.6822 46.3199 74.4953 47.133 74.4953 48.1359Z" fill="#C6C5CA"/>
<path d="M69.0488 59.0337H76.3129V62.6657H69.0488V59.0337Z" fill="#787680"/>
<path d="M76.3129 48.1351C76.3129 50.1409 74.6866 51.7672 72.6808 51.7672C70.6751 51.7672 69.0488 50.1409 69.0488 48.1351C69.0488 46.1294 70.6751 44.5031 72.6808 44.5031C74.6866 44.5031 76.3129 46.1294 76.3129 48.1351Z" fill="#787680"/>
<path d="M72.6765 47.993C72.6809 48.518 72.4575 49.0199 72.0647 49.3675C71.671 49.7159 71.1469 49.8773 70.6255 49.809C63.4732 48.7742 58.1617 42.6496 58.1484 35.4229H61.7805C61.7929 40.8336 65.7627 45.4207 71.1159 46.2081C72.0061 46.3349 72.6703 47.0939 72.6765 47.993Z" fill="#898890"/>
<path d="M81.3938 44.4742C80.7775 43.8225 80.734 42.816 81.2918 42.1138C82.269 40.867 82.9517 39.4163 83.2896 37.8699L83.3135 37.7715C83.9573 34.722 83.2745 31.5423 81.4363 29.0257C79.5982 26.5083 76.7766 24.8909 73.6757 24.5762C71.3747 24.3598 69.0648 24.8874 67.0856 26.0818L65.1934 22.9783C70.1847 19.9581 76.5 20.2223 81.2217 23.6495C85.9435 27.0767 88.1524 32.9991 86.8276 38.6813C86.3683 40.7615 85.4417 42.7105 84.1178 44.3802C83.787 44.7828 83.2984 45.0249 82.7771 45.0426C82.2557 45.0603 81.752 44.8537 81.3938 44.4742Z" fill="#898890"/>
<path d="M47.2539 42.5585C47.2593 41.6487 47.9367 40.8835 48.8394 40.7673C52.7853 40.2503 56.2719 37.8979 56.334 35.4886C56.3198 34.4689 57.1303 33.6301 58.15 33.6088H70.8621C72.7969 33.607 74.3921 32.0907 74.4941 30.1585C74.4896 29.1335 74.0747 28.1536 73.3422 27.4372C72.6098 26.7198 71.6211 26.327 70.5969 26.3447H52.702C51.6991 26.3447 50.8859 25.5316 50.8859 24.5287C50.8859 23.5258 51.6991 22.7127 52.702 22.7127H70.4985C74.3655 22.7375 77.6162 25.6212 78.1022 29.4571C78.2751 31.8327 77.2695 34.1408 75.4127 35.6314C74.0197 36.7105 72.2986 37.278 70.5366 37.2408H59.7009C58.5641 41.0546 53.9584 43.7511 49.273 44.3701C48.7578 44.4286 48.2426 44.2636 47.8569 43.9178C47.4712 43.5711 47.2513 43.0763 47.2539 42.5585Z" fill="#FBCC94"/>
<path d="M75.4226 102.617C71.8996 102.608 68.8865 100.081 68.2623 96.6135C68.1151 95.7755 68.1213 94.918 68.28 94.0819C68.3385 93.666 68.4441 93.2581 68.593 92.8653C69.4833 90.4277 71.6035 88.648 74.159 88.1931L98.8383 83.8349C99.1522 83.7773 99.475 83.8048 99.7738 83.9165L104.426 85.6101C104.88 85.7742 105.249 86.112 105.454 86.5483C105.658 86.9854 105.68 87.4855 105.516 87.9387C105.175 88.8821 104.133 89.3698 103.189 89.0284L98.9926 87.5006L74.8834 91.7524C73.5879 91.9644 72.5008 92.844 72.0211 94.0659C71.9564 94.2246 71.9103 94.3896 71.8819 94.558C71.8748 94.6192 71.8642 94.6795 71.8508 94.7398C71.7693 95.153 71.7666 95.5778 71.842 95.9928C72.2091 97.9551 74.0818 99.2603 76.0495 98.9251L94.7053 95.6407C95.6922 95.4669 96.633 96.1249 96.8086 97.1109C96.9815 98.0987 96.3227 99.0395 95.3357 99.2142L76.672 102.507C76.2596 102.579 75.842 102.616 75.4226 102.617Z" fill="#FBCC94"/>
<defs>
<filter id="filter0_d_1751_446" x="-1.17969" y="0.635742" width="146.363" height="146.364" filterUnits="userSpaceOnUse" color-interpolation-filters="sRGB">
<feFlood flood-opacity="0" result="BackgroundImageFix"/>
<feColorMatrix in="SourceAlpha" type="matrix" values="0 0 0 0 0 0 0 0 0 0 0 0 0 0 0 0 0 0 127 0" result="hardAlpha"/>
<feOffset dx="2" dy="2"/>
<feGaussianBlur stdDeviation="2.5"/>
<feComposite in2="hardAlpha" operator="out"/>
<feColorMatrix type="matrix" values="0 0 0 0 0 0 0 0 0 0 0 0 0 0 0 0 0 0 0.15 0"/>
<feBlend mode="normal" in2="BackgroundImageFix" result="effect1_dropShadow_1751_446"/>
<feBlend mode="normal" in="SourceGraphic" in2="effect1_dropShadow_1751_446" result="shape"/>
</filter>
</defs>
</svg>
