<svg width="116" height="125" viewBox="0 0 116 125" fill="none" xmlns="http://www.w3.org/2000/svg">
<g filter="url(#filter0_d_2731_64)">
<circle cx="37.299" cy="71.8176" r="68.1818" fill="#ECEFF1"/>
</g>
<path d="M89.3443 91.2495C92.0663 91.2495 94.2754 92.5745 94.2754 94.2072V106.83C94.2754 108.463 92.0663 109.788 89.3443 109.788H7.47461V91.2495H89.3443Z" fill="#9DDFF6"/>
<path d="M44.0801 91.2495H7.47461V109.788H44.0801V91.2495Z" fill="#8BB9FF"/>
<path d="M7.15876 116.786C9.88203 116.786 12.0898 114.8 12.0898 112.35V100.519C12.0898 79.8073 -6.63906 62.957 -29.66 62.957C-32.3833 62.957 -34.5911 64.9434 -34.5911 67.3935C-34.5911 69.8436 -32.3833 71.83 -29.66 71.83C-12.0771 71.83 2.22768 84.6998 2.22768 100.519V112.35C2.22768 114.8 4.43549 116.786 7.15876 116.786Z" fill="#7D81E7"/>
<path d="M91.9733 117.082C81.806 117.082 73.5637 109.666 73.5637 100.519C73.5637 91.3714 81.806 83.9561 91.9733 83.9561C102.141 83.9561 110.383 91.3714 110.383 100.519C110.383 109.666 102.141 117.082 91.9733 117.082Z" fill="#406C80"/>
<path d="M91.9739 121.518C104.844 121.518 115.314 112.098 115.314 100.519C115.314 88.9399 104.844 79.5195 91.9739 79.5195C79.104 79.5195 68.6333 88.9399 68.6333 100.519C68.6333 112.098 79.104 121.518 91.9739 121.518ZM91.9739 88.3925C99.4057 88.3925 105.452 93.8325 105.452 100.519C105.452 107.205 99.4057 112.645 91.9739 112.645C84.542 112.645 78.4955 107.205 78.4955 100.519C78.4955 93.8325 84.542 88.3925 91.9739 88.3925Z" fill="#344E66"/>
<path d="M91.9683 102.59C92.2218 102.59 92.4779 102.572 92.7356 102.536C95.4267 102.158 97.2666 99.8886 96.8465 97.4678L83.6968 21.7518C83.3217 19.5921 81.2543 18 78.8249 18H52.5256C49.8023 18 47.5945 19.9864 47.5945 22.4365C47.5945 24.8866 49.8023 26.873 52.5256 26.873H74.6045L87.1026 98.8375C87.4826 101.026 89.5813 102.59 91.9683 102.59Z" fill="#9DDFF6"/>
<path d="M52.2166 74.7114C41.929 74.7114 33.5894 67.2083 33.5894 57.9526C33.5894 48.697 41.929 41.1938 52.2166 41.1938C62.5041 41.1938 70.8438 48.697 70.8438 57.9526C70.8438 67.2083 62.5041 74.7114 52.2166 74.7114Z" fill="#FFB454"/>
<path d="M49.3899 70.0742C52.2728 70.0742 54.3765 67.6641 53.6806 65.19L52.7336 61.8202H56.354C59.2296 61.8202 61.338 59.4132 60.6415 56.9371L58.3213 48.6842C57.7294 46.5785 55.327 45.2986 52.9623 45.8247C50.5943 46.3511 49.1545 48.4848 49.7467 50.5902L50.6936 53.9603H47.0732C44.1976 53.9603 42.0893 56.3673 42.7858 58.8434L45.106 67.0963C45.6077 68.8819 47.41 70.074 49.3899 70.0742Z" fill="#F9F9F9"/>
<defs>
<filter id="filter0_d_2731_64" x="-33.8828" y="0.635742" width="146.363" height="146.364" filterUnits="userSpaceOnUse" color-interpolation-filters="sRGB">
<feFlood flood-opacity="0" result="BackgroundImageFix"/>
<feColorMatrix in="SourceAlpha" type="matrix" values="0 0 0 0 0 0 0 0 0 0 0 0 0 0 0 0 0 0 127 0" result="hardAlpha"/>
<feOffset dx="2" dy="2"/>
<feGaussianBlur stdDeviation="2.5"/>
<feComposite in2="hardAlpha" operator="out"/>
<feColorMatrix type="matrix" values="0 0 0 0 0 0 0 0 0 0 0 0 0 0 0 0 0 0 0.15 0"/>
<feBlend mode="normal" in2="BackgroundImageFix" result="effect1_dropShadow_2731_64"/>
<feBlend mode="normal" in="SourceGraphic" in2="effect1_dropShadow_2731_64" result="shape"/>
</filter>
</defs>
</svg>
