<svg width="150" height="150" viewBox="0 0 150 150" fill="none" xmlns="http://www.w3.org/2000/svg">
<mask id="mask0_1751_703" style="mask-type:alpha" maskUnits="userSpaceOnUse" x="0" y="0" width="150" height="150">
<circle cx="75" cy="75" r="75" fill="#ECEFF1"/>
</mask>
<g mask="url(#mask0_1751_703)">
<circle cx="75.0002" cy="81.8158" r="68.1818" fill="#ECEFF1"/>
<path d="M59.9544 68.0877C75.7437 68.0877 88.5435 55.2879 88.5435 39.4986C88.5435 23.7092 75.7437 10.9094 59.9544 10.9094C44.165 10.9094 31.3652 23.7092 31.3652 39.4986C31.3652 55.2879 44.165 68.0877 59.9544 68.0877Z" fill="#4FBA6F"/>
<path fill-rule="evenodd" clip-rule="evenodd" d="M79.6069 39.5002C79.6069 41.4739 78.007 43.0739 76.0333 43.0739H63.5255V55.5816C63.5255 57.5553 61.9256 59.1553 59.9519 59.1553C57.9782 59.1553 56.3783 57.5553 56.3783 55.5816V43.0739H43.8705C41.8968 43.0739 40.2969 41.4739 40.2969 39.5002C40.2969 37.5266 41.8968 35.9266 43.8705 35.9266H56.3783V23.4189C56.3783 21.4452 57.9782 19.8452 59.9519 19.8452C61.9256 19.8452 63.5255 21.4452 63.5255 23.4189V35.9266H76.0333C78.007 35.9266 79.6069 37.5266 79.6069 39.5002Z" fill="white"/>
<path fill-rule="evenodd" clip-rule="evenodd" d="M118.447 83.5131V107.635C118.447 121.451 107.247 132.651 93.4314 132.651H80.9237C67.108 132.651 55.9082 121.451 55.9082 107.635V94.1626C55.911 88.9569 59.1442 84.2995 64.0204 82.4768L64.2705 82.3875L64.8423 82.173L68.4159 80.8329V56.7108C68.4159 53.2569 71.2159 50.457 74.6698 50.457C75.6002 50.4497 76.5189 50.6641 77.35 51.0824C77.9969 51.3785 78.5843 51.7903 79.0833 52.2974C80.2639 53.4621 80.927 55.0524 80.9237 56.7108V76.3659C80.9237 72.9119 83.7236 70.112 87.1776 70.112C88.831 70.1333 90.4123 70.7927 91.591 71.9524C92.7716 73.1172 93.4348 74.7074 93.4314 76.3659V78.1527C93.4256 75.5065 95.0966 73.147 97.5947 72.274C99.8645 71.4778 102.39 72.0467 104.099 73.7392C105.279 74.904 105.942 76.4942 105.939 78.1527V83.5131C105.939 80.0592 108.739 77.2593 112.193 77.2593C115.64 77.2759 118.43 80.0661 118.447 83.5131Z" fill="#FFDAAA"/>
<path fill-rule="evenodd" clip-rule="evenodd" d="M105.939 78.1495V93.3375C105.939 94.3243 105.139 95.1243 104.152 95.1243C103.165 95.1243 102.365 94.3243 102.365 93.3375V72.521C103.012 72.8171 103.599 73.2289 104.098 73.736C105.279 74.9008 105.942 76.491 105.939 78.1495Z" fill="#FBCC94"/>
<path fill-rule="evenodd" clip-rule="evenodd" d="M93.4291 76.3624V89.7635C93.4291 90.7504 92.6291 91.5503 91.6423 91.5503C90.6555 91.5503 89.8555 90.7504 89.8555 89.7635V70.7339C90.5023 71.03 91.0897 71.4418 91.5887 71.9489C92.7693 73.1137 93.4324 74.7039 93.4291 76.3624Z" fill="#FBCC94"/>
<path fill-rule="evenodd" clip-rule="evenodd" d="M80.9193 56.7078V87.9772C80.9193 88.964 80.1194 89.764 79.1325 89.764C78.1457 89.764 77.3457 88.964 77.3457 87.9772V51.0793C77.9926 51.3755 78.5799 51.7873 79.0789 52.2944C80.2595 53.4591 80.9227 55.0494 80.9193 56.7078V56.7078Z" fill="#FBCC94"/>
<path fill-rule="evenodd" clip-rule="evenodd" d="M68.4135 80.8303V105.846C68.4135 106.833 67.6135 107.633 66.6267 107.633C65.6398 107.633 64.8398 106.833 64.8398 105.846V82.1704L68.4135 80.8303Z" fill="#FBCC94"/>
</g>
</svg>
