<svg width="108" height="117" viewBox="0 0 108 117" fill="none" xmlns="http://www.w3.org/2000/svg">
<path d="M-28.5156 60.2296C-24.4843 26.3078 4.4124 0 39.4667 0C77.2802 0 107.934 30.6106 107.934 68.3708C107.934 73.4145 107.382 78.3286 106.344 83.0614C74.7317 67.8641 44.4051 50.1046 15.6764 29.9472C10.9679 26.6435 4.5627 27.1979 0.493435 31.2612L-28.5156 60.2296Z" fill="#ECEFF1"/>
<path d="M39.4672 136.742C1.65379 136.742 -29 106.131 -29 68.3709C-29 63.6854 -28.5269 59.1101 -27.6277 54.6895L0.58185 26.5199C4.25742 22.8492 10.0434 22.3484 14.2967 25.3327C43.5611 45.8656 74.6594 63.6472 107.191 78.4583C102.307 111.435 73.8482 136.742 39.4672 136.742Z" fill="#87DCFA"/>
<path d="M107.192 78.4585C104.124 99.1745 91.7509 116.862 74.4523 127.152C21.4299 119.859 -18.3008 89.8204 -18.3008 53.8718C-18.3008 50.6827 -17.9863 47.54 -17.3783 44.4561L0.582758 26.5199C4.25832 22.8492 10.0443 22.3484 14.2976 25.3327C43.5622 45.866 74.6607 63.6476 107.192 78.4585Z" fill="#B4EBFF"/>
<path d="M103.661 21.9027L98.0587 26.7982C97.1996 27.5492 96.343 28.3026 95.4872 29.0566C95.4882 29.0582 95.4896 29.0598 95.4906 29.0614C90.4668 33.4855 61.1484 60.8903 55.0666 66.9636L7.31551 114.647L-0.670557 123.762C-6.55526 119.502 -11.7339 114.33 -16 108.454L-6.87299 100.479L40.8778 52.7952C47.0391 46.6426 53.1035 40.3955 59.0778 34.0637C59.5528 33.5605 60.0289 33.0584 60.5028 32.5544C61.8582 31.1112 63.2089 29.6631 64.5544 28.2107C64.7718 27.9762 64.9887 27.7415 65.2059 27.507C69.805 22.5325 74.3484 17.5064 78.833 12.4277C78.8346 12.429 78.836 12.4301 78.8376 12.4311C79.5926 11.5762 80.3476 10.7211 81.0991 9.86322L86.0015 4.26827C90.7685 -1.17231 99.1502 -1.45087 104.269 3.66094C109.389 8.77249 109.11 17.1423 103.661 21.9027Z" fill="#DC550A"/>
<path d="M101.358 49.1355L95.7547 54.0309C93.1928 56.2695 90.6477 58.5271 88.1128 60.7959C86.8387 61.9355 79.0061 69.0568 78.2688 69.7365C69.6055 77.7196 61.099 85.8713 52.7623 94.196L14.7559 132.149C8.20475 129.616 2.14244 126.105 -3.25391 121.796L38.574 80.0271C45.9169 72.6946 53.126 65.2307 60.2041 57.6447C61.168 56.6119 62.1281 55.5754 63.0872 54.5378C63.9899 53.5614 64.8904 52.5829 65.7885 51.6022C70.176 46.8133 74.5154 41.9808 78.7959 37.0955L83.6986 31.5005C88.4656 26.06 96.8472 25.7811 101.966 30.8932C107.085 36.0053 106.806 44.3749 101.358 49.1355Z" fill="#FF7D0A"/>
<path d="M19.8497 89.3808L18.429 87.9621C16.8622 86.3975 16.8622 83.8611 18.429 82.2966L43.4972 57.2635C45.0639 55.699 47.6039 55.699 49.1706 57.2635L50.5913 58.6822C52.158 60.2467 52.158 62.7832 50.5913 64.3477L25.5231 89.3808C23.9566 90.9453 21.4164 90.9453 19.8497 89.3808Z" fill="#A03C19"/>
<path d="M17.545 116.614L16.1243 115.195C14.5575 113.63 14.5575 111.094 16.1243 109.529L41.1925 84.4964C42.7592 82.9319 45.2992 82.9319 46.8659 84.4964L48.2866 85.9151C49.8534 87.4796 49.8534 90.0161 48.2866 91.5806L23.2184 116.614C21.6517 118.178 19.1117 118.178 17.545 116.614Z" fill="#DC550A"/>
<path d="M45.8871 16.0246C45.8871 18.9747 43.4923 21.366 40.5381 21.366C37.5838 21.366 35.189 18.9747 35.189 16.0246C35.189 13.0745 37.5838 10.6831 40.5381 10.6831C43.4923 10.6831 45.8871 13.0745 45.8871 16.0246ZM64.6086 24.0368C63.1315 24.0368 61.9341 25.2327 61.9341 26.7075C61.9341 28.1823 63.1315 29.3782 64.6086 29.3782C66.0858 29.3782 67.2831 28.1823 67.2831 26.7075C67.2831 25.2327 66.0858 24.0368 64.6086 24.0368ZM16.4675 10.6831C14.9903 10.6831 13.793 11.8791 13.793 13.3538C13.793 14.8286 14.9903 16.0246 16.4675 16.0246C17.9446 16.0246 19.142 14.8286 19.142 13.3538C19.142 11.8791 17.9446 10.6831 16.4675 10.6831ZM40.5381 32.049C39.0609 32.049 37.8635 33.2449 37.8635 34.7197C37.8635 36.1945 39.0609 37.3904 40.5381 37.3904C42.0152 37.3904 43.2126 36.1945 43.2126 34.7197C43.2126 33.2449 42.0152 32.049 40.5381 32.049ZM99.3772 64.0977C97.9001 64.0977 96.7027 65.2937 96.7027 66.7685C96.7027 68.2432 97.9001 69.4392 99.3772 69.4392C100.854 69.4392 102.052 68.2432 102.052 66.7685C102.052 65.2937 100.854 64.0977 99.3772 64.0977Z" fill="white"/>
</svg>
