<svg width="146" height="147" viewBox="0 0 146 147" fill="none" xmlns="http://www.w3.org/2000/svg">
<g filter="url(#filter0_d_1751_410)">
<circle cx="70.0002" cy="71.8173" r="68.1818" fill="#ECEFF1"/>
</g>
<path d="M87.9706 21.5713C102.324 21.5713 115.638 26.0042 126.628 33.5709C134.195 44.5611 138.628 57.8759 138.628 72.2277C138.628 107.63 111.83 136.641 77.3648 140.129C77.3456 140.13 77.3265 140.132 77.3073 140.135C75.0275 140.363 20.0819 118.135 19.7251 90.7325C19.7209 90.4301 19.7188 90.1276 19.7188 89.8242C19.7188 52.0608 50.2082 21.5713 87.9706 21.5713Z" fill="#ADE8F0"/>
<path d="M26.1174 105.405C26.1174 111.251 26.769 116.943 27.9979 122.419C22.7216 112.733 19.7188 101.63 19.7188 89.8242C19.7188 52.1289 50.2764 21.5713 87.9716 21.5713C99.7785 21.5713 110.881 24.5731 120.566 29.8504C115.092 28.6216 109.398 27.9699 103.552 27.9699C60.7863 27.9699 26.1174 62.6389 26.1174 105.405ZM132.229 89.8242C132.229 96.7296 130.647 103.266 127.826 109.09C122.521 117.341 115.488 124.374 107.238 129.679C101.413 132.5 94.8771 134.082 87.9716 134.082C63.5283 134.082 43.7138 114.268 43.7138 89.8242C43.7138 65.3819 63.5283 45.5663 87.9716 45.5663C112.415 45.5663 132.229 65.3808 132.229 89.8242ZM124.231 89.8242C124.231 69.7988 107.997 53.5643 87.9716 53.5643C67.9463 53.5643 51.7128 69.7988 51.7128 89.8242C51.7128 109.849 67.9463 126.083 87.9716 126.083C107.997 126.083 124.231 109.849 124.231 89.8242Z" fill="#84DEEA"/>
<path d="M77.3054 140.136C75.0256 140.366 72.7139 140.482 70.3734 140.482C47.8531 140.482 27.8821 129.572 15.4512 112.752V51.0002C15.4512 46.7334 17.994 42.8776 21.9147 41.1973L30.8828 37.3543C32.8432 36.5142 34.1146 34.5857 34.1146 32.4529V25.3046H58.6431V32.4529C58.6431 34.5857 59.9135 36.5142 61.8749 37.3543L70.8419 41.1973C74.7626 42.8776 77.3054 46.7334 77.3054 51.0002V140.136Z" fill="#FFF5F5"/>
<path d="M34.1146 25.3046H58.6431V30.6373H44.2454V37.7856C44.2454 39.9185 42.974 41.8469 41.0137 42.687L32.0456 46.53C28.1249 48.2103 25.582 52.0661 25.582 56.3329V123.728C21.82 120.453 18.421 116.771 15.4512 112.752V51.0002C15.4512 46.7334 17.994 42.8776 21.9147 41.1973L30.8828 37.3543C32.8432 36.5142 34.1146 34.5857 34.1146 32.4529V25.3046Z" fill="#F9EECF"/>
<path d="M61.0426 20.9052V28.9042C61.0426 29.64 60.4452 30.2374 59.7094 30.2374H33.048C32.3122 30.2374 31.7148 29.64 31.7148 28.9042V20.9052C31.7148 18.6967 33.5059 16.9067 35.7144 16.9067H38.1135V14.2404C37.3776 14.2404 36.7803 13.6441 36.7803 12.9072V7.57555C36.7803 5.36601 38.5713 3.57602 40.7798 3.57602H42.3451C42.8946 2.02349 44.3715 0.909668 46.1125 0.909668H46.6449C48.3859 0.909668 49.8629 2.02349 50.4123 3.57602H51.9776C54.1861 3.57602 55.9761 5.36601 55.9761 7.57448V12.9072C55.9761 13.643 55.3798 14.2404 54.6429 14.2404V16.9067H57.0431C59.2515 16.9067 61.0426 18.6967 61.0426 20.9052Z" fill="#E30048"/>
<path d="M43.1785 12.9088V7.5772C43.1785 5.36766 44.9685 3.57767 47.177 3.57767H51.9762C54.1847 3.57767 55.9757 5.36766 55.9757 7.5772V12.9088C55.9757 13.6457 55.3784 14.242 54.6426 14.242H44.5106C43.7748 14.242 43.1785 13.6446 43.1785 12.9088ZM57.0416 16.9084H42.1116C39.9031 16.9084 38.112 18.6984 38.112 20.9068V28.9059C38.112 29.6417 38.7094 30.2391 39.4452 30.2391H59.708C60.4438 30.2391 61.0412 29.6417 61.0412 28.9059V20.9068C61.0412 18.6984 59.2501 16.9084 57.0416 16.9084ZM69.3064 70.6294V127.151C69.3064 130.096 66.9191 132.484 63.9737 132.484H38.293C32.8666 129.588 27.8757 125.984 23.4492 121.79V78.6274C23.4492 75.6821 25.8366 73.2947 28.7809 73.2947C32.3129 73.2947 35.8216 72.7261 39.1715 71.6091L53.0496 66.9834C56.4006 65.8664 59.9092 65.2967 63.4402 65.2967H63.9737C66.9191 65.2967 69.3064 67.6841 69.3064 70.6294Z" fill="#FD3980"/>
<path d="M42.1116 114.619C42.1116 118.3 39.1279 121.285 35.4457 121.285C33.9453 121.285 32.561 120.789 31.4472 119.952V126.515C31.4472 127.226 31.5718 127.906 31.7997 128.538C28.8394 126.507 26.0474 124.25 23.4492 121.79V78.6264C23.4492 75.681 25.8366 73.2937 28.7809 73.2937C29.6721 73.2937 30.5613 73.2575 31.4472 73.1851V75.96C34.3926 75.96 36.7799 78.3474 36.7799 81.2927C36.7799 84.237 34.3926 86.6244 31.4472 86.6244V109.287C32.561 108.45 33.9453 107.954 35.4457 107.954C39.1279 107.954 42.1116 110.938 42.1116 114.619ZM58.1086 83.9591C61.0529 83.9591 63.4403 81.5707 63.4403 78.6264C63.4403 75.681 61.0529 73.2937 58.1086 73.2937C55.1633 73.2937 52.7759 75.681 52.7759 78.6264C52.7759 81.5717 55.1633 83.9591 58.1086 83.9591ZM40.7784 89.2907C38.5699 89.2907 36.7789 91.0818 36.7789 93.2903C36.7789 95.4987 38.5699 97.2887 40.7784 97.2887C42.9869 97.2887 44.7768 95.4987 44.7768 93.2903C44.7779 91.0818 42.9869 89.2907 40.7784 89.2907ZM59.4418 107.954C57.2333 107.954 55.4423 109.744 55.4423 111.953C55.4423 114.161 57.2333 115.952 59.4418 115.952C61.6503 115.952 63.4403 114.161 63.4403 111.953C63.4403 109.744 61.6503 107.954 59.4418 107.954ZM52.7759 118.618C51.3032 118.618 50.1096 119.812 50.1096 121.284C50.1096 122.756 51.3032 123.95 52.7759 123.95C54.2486 123.95 55.4423 122.756 55.4423 121.284C55.4423 119.812 54.2486 118.618 52.7759 118.618Z" fill="#FD0464"/>
<path d="M119.396 58.9679C119.568 59.5568 119.021 60.103 118.432 59.9305L114.523 58.7858C114.381 58.7443 114.229 58.7443 114.087 58.7858L110.177 59.9305C109.588 60.103 109.041 59.5568 109.214 58.9679L110.359 55.0578C110.4 54.9162 110.4 54.7639 110.359 54.6213L109.214 50.7122C109.041 50.1234 109.588 49.5761 110.177 49.7486L114.087 50.8943C114.229 50.9359 114.381 50.9359 114.523 50.8943L118.432 49.7486C119.021 49.5761 119.568 50.1234 119.396 50.7122L118.25 54.6213C118.209 54.7639 118.209 54.9152 118.25 55.0578L119.396 58.9679Z" fill="#FFF5F5"/>
<defs>
<filter id="filter0_d_1751_410" x="-1.18164" y="0.635529" width="146.363" height="146.364" filterUnits="userSpaceOnUse" color-interpolation-filters="sRGB">
<feFlood flood-opacity="0" result="BackgroundImageFix"/>
<feColorMatrix in="SourceAlpha" type="matrix" values="0 0 0 0 0 0 0 0 0 0 0 0 0 0 0 0 0 0 127 0" result="hardAlpha"/>
<feOffset dx="2" dy="2"/>
<feGaussianBlur stdDeviation="2.5"/>
<feComposite in2="hardAlpha" operator="out"/>
<feColorMatrix type="matrix" values="0 0 0 0 0 0 0 0 0 0 0 0 0 0 0 0 0 0 0.15 0"/>
<feBlend mode="normal" in2="BackgroundImageFix" result="effect1_dropShadow_1751_410"/>
<feBlend mode="normal" in="SourceGraphic" in2="effect1_dropShadow_1751_410" result="shape"/>
</filter>
</defs>
</svg>
