<svg width="121" height="131" viewBox="0 0 121 131" fill="none" xmlns="http://www.w3.org/2000/svg">
<g filter="url(#filter0_d_1080_832)">
<path d="M114 71C114 86.4346 108.857 100.673 100.189 112.086L100.186 112.089C98.929 113.743 97.5995 115.336 96.1979 116.868C94.527 118.7 92.7535 120.44 90.8883 122.078C87.8075 124.789 84.4797 127.224 80.9409 129.347C77.5492 131.384 73.966 133.133 70.2247 134.559C62.7002 137.429 54.5347 139 46 139C37.4653 139 29.2998 137.429 21.7753 134.559C21.1869 134.334 20.6041 134.104 20.024 133.863C18.0395 133.041 16.105 132.131 14.2204 131.131C5.43037 126.477 -2.21616 119.952 -8.18906 112.086C-16.857 100.673 -22 86.4374 -22 71C-22 33.4446 8.44457 3 46 3C83.5554 3 114 33.4446 114 71Z" fill="#ECEFF1"/>
</g>
<path d="M93.5256 114.452C92.2644 115.944 90.9279 117.385 89.5219 118.768C87.8458 120.421 86.0667 121.991 84.1957 123.469C81.1051 125.917 77.7668 128.114 74.2169 130.03C70.8146 131.869 67.2201 133.447 63.467 134.734C55.9189 137.324 47.7277 138.742 39.1661 138.742C30.6046 138.742 22.4134 137.324 14.8653 134.734C12.2592 133.84 9.72837 132.805 7.2866 131.641C-1.53109 127.44 -9.20167 121.551 -15.1934 114.452C-14.8398 112.44 -14.3247 110.426 -13.6481 108.415C-12.1919 104.091 -7.92371 101.017 -2.91486 100.664C4.53576 100.136 11.9864 99.7474 19.437 99.5019C40.0376 98.813 60.6438 99.2013 81.2471 100.664C86.2532 101.017 90.527 104.091 91.9776 108.415C92.6542 110.426 93.172 112.44 93.5256 114.452Z" fill="#2D2636"/>
<path d="M93.5237 114.454C92.2624 115.947 90.9288 117.384 89.5227 118.767C87.8466 120.42 86.0675 121.991 84.1965 123.469C81.106 125.916 77.7677 128.113 74.2177 130.029C70.8154 131.868 67.2209 133.446 63.4678 134.734C55.9197 137.324 47.7284 138.742 39.1669 138.742C30.6054 138.742 22.4141 137.324 14.866 134.734C14.2758 134.531 13.6911 134.323 13.1092 134.105C12.7055 132.747 12.3658 131.387 12.0874 130.029C11.6419 127.84 11.3634 125.656 11.2465 123.469C11.1574 121.901 11.1574 120.333 11.2465 118.767C11.3634 116.58 11.6419 114.393 12.0901 112.207C12.4075 110.638 12.8113 109.07 13.3013 107.505C13.4127 107.144 13.5268 106.788 13.6493 106.43C14.6322 103.514 16.7203 101.092 19.4378 99.5014C40.0384 98.8125 60.6446 99.2008 81.248 100.664C85.8949 100.994 89.9097 103.665 91.622 107.505C91.7557 107.8 91.8754 108.106 91.9784 108.414C92.4044 109.679 92.7664 110.942 93.0643 112.207C93.2397 112.956 93.3956 113.705 93.5237 114.454Z" fill="#3B494D"/>
<path d="M93.0625 112.207H7.28711V107.504H91.6208C91.7556 107.801 91.8739 108.105 91.9786 108.415C92.4049 109.679 92.7651 110.942 93.0625 112.207Z" fill="#2D2636"/>
<path d="M89.522 118.767C87.8459 120.42 86.0668 121.991 84.1958 123.469H7.28711V118.767H89.522Z" fill="#2D2636"/>
<path d="M74.217 130.029C70.8147 131.868 67.2203 133.446 63.4672 134.733H14.8658C12.2597 133.839 9.72887 132.805 7.28711 131.64V130.029H74.217Z" fill="#2D2636"/>
<path d="M91.9787 92.2391C90.5259 96.5636 86.2532 99.6354 81.2486 99.9893C60.6439 101.452 40.0364 101.841 19.4317 101.153C11.9839 100.908 4.53332 100.516 -2.9145 99.9893C-7.92193 99.6354 -12.1918 96.5633 -13.6474 92.2391C-16.4951 83.7683 -16.4951 75.3004 -13.6474 66.8297C-12.1918 62.5052 -7.92193 59.4333 -2.9145 59.0794C4.5361 58.5496 11.9867 58.1611 19.4373 57.9158C40.0392 57.2277 60.6439 57.6163 81.2486 59.0794C86.2532 59.4333 90.5259 62.5052 91.9787 66.8297C94.8264 75.3004 94.8264 83.7683 91.9787 92.2391Z" fill="#2D2636"/>
<path d="M94.0415 81.8858C93.904 84.0742 93.5793 86.2597 93.0648 88.4455C92.765 89.7105 92.4044 90.9753 91.9781 92.2403C91.8734 92.5496 91.7554 92.8517 91.6204 93.1488C89.9089 96.9906 85.8949 99.6614 81.248 99.9906C60.6433 101.453 40.0358 101.842 19.431 101.154C16.7156 99.5597 14.6299 97.1389 13.6476 94.2254C13.5265 93.8665 13.411 93.5075 13.301 93.1486C12.8112 91.5817 12.4067 90.0124 12.0876 88.4455C11.6419 86.2575 11.3612 84.0717 11.2457 81.8858C11.1577 80.3165 11.1577 78.7497 11.2457 77.1828C11.3612 74.997 11.6419 72.8089 12.0904 70.6231C12.4067 69.0538 12.8112 67.4869 13.301 65.9201C13.411 65.5611 13.5265 65.2047 13.6476 64.8457C14.6299 61.9297 16.7181 59.509 19.4363 57.9173C40.0383 57.2292 60.643 57.6177 81.2477 59.0809C85.8946 59.41 89.9089 62.081 91.6201 65.9201C91.7548 66.2172 91.8732 66.5215 91.9779 66.8311C92.4044 68.0959 92.7647 69.3584 93.0618 70.6234C93.5791 72.8117 93.9037 74.9973 94.0412 77.1831C94.1376 78.7522 94.1376 80.319 94.0415 81.8858Z" fill="#3B494D"/>
<path d="M93.0642 70.6218H7.28906V65.9189H91.6225C91.7573 66.216 91.8756 66.5204 91.9803 66.83C92.4066 68.0947 92.7669 69.3571 93.0642 70.6218Z" fill="#2D2636"/>
<path d="M94.0422 81.8848H7.28711V77.1816H94.0422C94.1383 78.751 94.1383 80.3179 94.0422 81.8848Z" fill="#2D2636"/>
<path d="M93.0654 88.4443C92.7656 89.7094 92.405 90.9743 91.9787 92.2393C91.8741 92.5487 91.756 92.8508 91.621 93.1479H7.28711V88.4446H93.0654V88.4443Z" fill="#2D2636"/>
<path d="M91.9787 50.6531C90.5259 54.9776 86.2532 58.0495 81.2486 58.4034C60.6439 59.8663 40.0364 60.2551 19.4317 59.5667C11.9839 59.3217 4.53332 58.9304 -2.9145 58.4034C-7.92193 58.0495 -12.1918 54.9774 -13.6474 50.6531C-16.4951 42.1824 -16.4951 33.7145 -13.6474 25.2437C-12.1918 20.9192 -7.92193 17.8474 -2.9145 17.4935C4.5361 16.9637 11.9867 16.5751 19.4373 16.3299C40.0392 15.6418 60.6439 16.0303 81.2486 17.4935C86.2532 17.8474 90.5259 20.9192 91.9787 25.2437C94.8264 33.7145 94.8264 42.1827 91.9787 50.6531Z" fill="#2D2636"/>
<path d="M94.0415 40.2983C93.904 42.4866 93.5793 44.6722 93.0648 46.858C92.765 48.123 92.4044 49.3877 91.9781 50.6527C91.8734 50.962 91.7554 51.2641 91.6204 51.5612C89.9089 55.403 85.8949 58.0738 81.248 58.4029C60.6433 59.8658 40.0358 60.2546 19.431 59.5662C16.7156 57.9721 14.6299 55.5513 13.6476 52.6378C13.5265 52.2789 13.411 51.9199 13.301 51.561C12.8112 49.9941 12.4067 48.4248 12.0876 46.858C11.6419 44.6699 11.3612 42.4841 11.2457 40.2983C11.1577 38.729 11.1577 37.1621 11.2457 35.5953C11.3612 33.4095 11.6419 31.2215 12.0904 29.0357C12.4067 27.4663 12.8112 25.8995 13.301 24.3327C13.411 23.9737 13.5265 23.6172 13.6476 23.2583C14.6299 20.3423 16.7181 17.9215 19.4363 16.3299C40.0383 15.6418 60.643 16.0303 81.2477 17.4934C85.8946 17.8226 89.9089 20.4936 91.6201 24.3327C91.7548 24.6297 91.8732 24.9341 91.9779 25.2437C92.4044 26.5084 92.7647 27.7709 93.0618 29.0359C93.5791 31.2242 93.9037 33.4098 94.0412 35.5956C94.1376 37.1644 94.1376 38.7312 94.0415 40.2983Z" fill="#3B494D"/>
<path d="M93.0642 29.0356H7.28906V24.3325H91.6225C91.7573 24.6296 91.8756 24.934 91.9803 25.2436C92.4066 26.5084 92.7669 27.7709 93.0642 29.0356Z" fill="#2D2636"/>
<path d="M94.0422 40.2996H7.28711V35.5959H94.0422C94.1383 37.1654 94.1383 38.7324 94.0422 40.2996Z" fill="#2D2636"/>
<path d="M93.0654 46.8589C92.7656 48.1239 92.405 49.3887 91.9787 50.6537C91.8741 50.9631 91.756 51.2652 91.621 51.5623H7.28711V46.8591H93.0654V46.8589Z" fill="#2D2636"/>
<defs>
<filter id="filter0_d_1080_832" x="-25" y="0" width="146" height="146" filterUnits="userSpaceOnUse" color-interpolation-filters="sRGB">
<feFlood flood-opacity="0" result="BackgroundImageFix"/>
<feColorMatrix in="SourceAlpha" type="matrix" values="0 0 0 0 0 0 0 0 0 0 0 0 0 0 0 0 0 0 127 0" result="hardAlpha"/>
<feOffset dx="2" dy="2"/>
<feGaussianBlur stdDeviation="2.5"/>
<feComposite in2="hardAlpha" operator="out"/>
<feColorMatrix type="matrix" values="0 0 0 0 0 0 0 0 0 0 0 0 0 0 0 0 0 0 0.15 0"/>
<feBlend mode="normal" in2="BackgroundImageFix" result="effect1_dropShadow_1080_832"/>
<feBlend mode="normal" in="SourceGraphic" in2="effect1_dropShadow_1080_832" result="shape"/>
</filter>
</defs>
</svg>
