<svg width="114" height="135" viewBox="0 0 114 135" fill="none" xmlns="http://www.w3.org/2000/svg">
<g filter="url(#filter0_d_1751_538)">
<circle cx="38.0002" cy="71.8176" r="68.1818" fill="#ECEFF1"/>
</g>
<path d="M82.3668 110.729V119.835C82.3668 120.825 81.563 121.627 80.5754 121.627H68.8109C67.8211 121.627 67.0195 120.825 67.0195 119.835V110.729H82.3668Z" fill="#C8D2DC"/>
<path d="M8.46445 110.729V119.835C8.46445 120.825 7.66284 121.627 6.67308 121.627H-5.09145C-6.07901 121.627 -6.88281 120.825 -6.88281 119.835V110.729H8.46445Z" fill="#C8D2DC"/>
<path d="M74.3103 121.627H68.8109C67.8211 121.627 67.0195 120.825 67.0195 119.835V110.729H72.4899V119.806C72.4897 120.812 73.3049 121.627 74.3103 121.627Z" fill="#B9C3CD"/>
<path d="M86.5696 11.8256V111.691C86.5696 113.2 85.3471 114.422 83.8355 114.422H-8.35576C-9.8671 114.422 -11.0898 113.2 -11.0898 111.691V11.8256C-11.0898 10.3165 -9.86732 9.09375 -8.35576 9.09375H83.8355C85.3468 9.09397 86.5696 10.3165 86.5696 11.8256Z" fill="#EDF4FF"/>
<path d="M64.0866 65.4161C64.0866 79.9215 52.3644 91.6882 37.877 91.7599C37.8322 91.7621 37.7852 91.7621 37.7405 91.7621H37.6689C23.1522 91.7241 11.3945 79.9415 11.3945 65.4161C11.3945 50.866 23.1905 39.0701 37.7405 39.0701C37.8929 39.0701 38.0474 39.0723 38.1995 39.0769H38.2353C52.5572 39.3387 64.0866 51.0315 64.0866 65.4161Z" fill="#C8D2DC"/>
<path d="M40.3625 91.6076C39.5453 91.6973 38.7145 91.7487 37.877 91.7599C37.8076 91.7599 37.7381 91.7621 37.6689 91.7621C23.1522 91.7241 11.3945 79.9415 11.3945 65.4161C11.3945 50.866 23.1905 39.0701 37.7405 39.0701C37.8929 39.0701 38.0474 39.0723 38.1995 39.0769H38.2353C38.9519 39.0971 39.6616 39.1463 40.3625 39.2246C27.1515 40.6397 16.8625 51.8244 16.8625 65.4161C16.8625 79.0078 27.1515 90.1925 40.3625 91.6076Z" fill="#B9C3CD"/>
<path d="M56.5501 65.4192C56.5501 75.8067 48.1285 84.2283 37.7388 84.2283C37.6962 84.2283 37.6559 84.2283 37.6135 84.2261C27.9582 84.1657 20.0338 76.8323 19.0352 67.4302C18.9658 66.7697 18.9277 66.098 18.9277 65.4194C18.9277 55.0544 27.3111 46.6484 37.6696 46.6104H37.7388C37.7836 46.6104 37.8307 46.6104 37.8753 46.6125C47.3627 46.6774 55.1819 53.769 56.3866 62.9427C56.4941 63.7534 56.5501 64.5796 56.5501 65.4192Z" fill="#EDF4FF"/>
<path d="M-11.0898 32.1617V11.8256C-11.0898 10.3165 -9.86732 9.09375 -8.35576 9.09375H83.8355C85.3468 9.09397 86.5696 10.3165 86.5696 11.8256V32.1619H-11.0898" fill="#918291"/>
<path d="M40.3632 84.0134C39.4653 84.1499 38.5472 84.2239 37.6135 84.2261C27.9582 84.1657 20.0338 76.8323 19.0352 67.4302C18.9658 66.7697 18.9277 66.098 18.9277 65.4195C18.9277 55.0544 27.3111 46.6484 37.6696 46.6104C37.739 46.6125 37.8085 46.6125 37.8755 46.6125C38.7174 46.6282 39.546 46.6998 40.3566 46.8231C31.3194 48.2002 24.3959 56.0015 24.3959 65.4195C24.3959 66.098 24.4339 66.7697 24.5034 67.4302C25.4054 75.9322 31.9752 82.7436 40.3632 84.0134Z" fill="#DBEAFF"/>
<path d="M37.7398 25.7387C40.569 25.7387 42.8625 23.4452 42.8625 20.616C42.8625 17.7869 40.569 15.4934 37.7398 15.4934C34.9107 15.4934 32.6172 17.7869 32.6172 20.616C32.6172 23.4452 34.9107 25.7387 37.7398 25.7387Z" fill="#EDF4FF"/>
<path d="M56.554 65.4173C56.554 75.8048 48.1323 84.2264 37.7427 84.2264C37.7 84.2264 37.6598 84.2264 37.6174 84.2242C27.962 84.1638 20.0376 76.8304 19.0391 67.4283C24.8543 67.1304 25.1139 62.9521 31.2784 62.894H31.4083C37.9288 62.894 37.9288 67.4463 44.4514 67.4463C50.5844 67.4463 50.9517 63.4249 56.3906 62.9411C56.4979 63.7515 56.554 64.5777 56.554 65.4173Z" fill="#C3DDFF"/>
<path d="M40.3671 84.0115C39.4692 84.148 38.5511 84.222 37.6174 84.2242C27.962 84.1638 20.0376 76.8304 19.0391 67.4283C24.8543 67.1304 25.1139 62.9521 31.2784 62.894C32.3576 62.9009 33.2533 63.0352 34.0324 63.2501C30.3288 64.2735 29.3235 67.1799 24.507 67.4285C25.4093 75.9303 31.9791 82.7417 40.3671 84.0115Z" fill="#A4CCFF"/>
<path d="M56.5498 65.2517C54.9584 66.3628 53.3282 67.4488 50.1431 67.4488C49.023 67.4488 48.0963 67.3145 47.2949 67.0914C50.8851 66.0988 51.9417 63.3372 56.3904 62.9434C56.4904 63.6988 56.5449 64.4683 56.5498 65.2517Z" fill="#A4CCFF"/>
<path d="M77.4001 95.3918V105.387C77.4001 105.882 76.9991 106.283 76.5044 106.283H57.1379C56.6431 106.283 56.2422 105.882 56.2422 105.387V95.3918C56.2422 94.897 56.6431 94.4961 57.1379 94.4961H76.5044C76.9994 94.4961 77.4001 94.8968 77.4001 95.3918Z" fill="#C3DDFF"/>
<path d="M62.6216 106.283H57.1379C56.6431 106.283 56.2422 105.882 56.2422 105.387V95.3918C56.2422 94.897 56.6431 94.4961 57.1379 94.4961H62.6216C62.1179 94.4961 61.7104 94.9036 61.7104 95.4052V105.374C61.7101 105.876 62.1179 106.283 62.6216 106.283Z" fill="#A4CCFF"/>
<path d="M76.5086 16.3928V24.8456C76.5086 25.3403 76.1077 25.7413 75.6129 25.7413H54.0363C53.5415 25.7413 53.1406 25.3403 53.1406 24.8456V16.3928C53.1406 15.898 53.5415 15.4971 54.0363 15.4971H75.6129C76.1077 15.4971 76.5086 15.8978 76.5086 16.3928Z" fill="#B3E59F"/>
<path d="M59.5201 25.7413H54.0363C53.5415 25.7413 53.1406 25.3403 53.1406 24.8456V16.3928C53.1406 15.898 53.5415 15.4971 54.0363 15.4971H59.5201C59.0163 15.4971 58.6088 15.9046 58.6088 16.4084V24.8322C58.6088 25.3337 59.0163 25.7413 59.5201 25.7413Z" fill="#95D6A4"/>
<path d="M16.7925 18.8817H-4.2502C-5.17775 18.8817 -5.92969 18.1297 -5.92969 17.2022C-5.92969 16.2746 -5.17775 15.5227 -4.2502 15.5227H16.7925C17.72 15.5227 18.472 16.2746 18.472 17.2022C18.472 18.1297 17.72 18.8817 16.7925 18.8817Z" fill="#E9EDF1"/>
<path d="M-11.0859 30.4385H86.5713V33.8535H-11.0859V30.4385Z" fill="white"/>
<path d="M21.9238 9.09033H25.3388V33.8518H21.9238V9.09033Z" fill="white"/>
<defs>
<filter id="filter0_d_1751_538" x="-33.1816" y="0.635742" width="146.363" height="146.364" filterUnits="userSpaceOnUse" color-interpolation-filters="sRGB">
<feFlood flood-opacity="0" result="BackgroundImageFix"/>
<feColorMatrix in="SourceAlpha" type="matrix" values="0 0 0 0 0 0 0 0 0 0 0 0 0 0 0 0 0 0 127 0" result="hardAlpha"/>
<feOffset dx="2" dy="2"/>
<feGaussianBlur stdDeviation="2.5"/>
<feComposite in2="hardAlpha" operator="out"/>
<feColorMatrix type="matrix" values="0 0 0 0 0 0 0 0 0 0 0 0 0 0 0 0 0 0 0.15 0"/>
<feBlend mode="normal" in2="BackgroundImageFix" result="effect1_dropShadow_1751_538"/>
<feBlend mode="normal" in="SourceGraphic" in2="effect1_dropShadow_1751_538" result="shape"/>
</filter>
</defs>
</svg>
