<svg width="119" height="135" viewBox="0 0 119 135" fill="none" xmlns="http://www.w3.org/2000/svg">
<g filter="url(#filter0_d_1751_578)">
<circle cx="43.0002" cy="71.8176" r="68.1818" fill="#ECEFF1"/>
</g>
<path d="M100.426 101.661C100.426 104.061 98.4548 106.007 96.0233 106.007H-11.2322C-13.6637 106.006 -15.6348 104.061 -15.6348 101.661V21.6171C-15.6348 19.2172 -13.6637 17.2717 -11.2322 17.2717H96.0233C98.4548 17.2717 100.426 19.2172 100.426 21.6171V101.661Z" fill="#ECBE6B"/>
<path d="M100.423 21.6169C100.423 19.217 98.4518 17.2717 96.0203 17.2717H90.8184C93.2498 17.2717 95.2209 19.2172 95.2209 21.6169V101.661C95.2209 104.061 93.2498 106.006 90.8184 106.006H96.0203C98.4518 106.006 100.423 104.061 100.423 101.661V21.6169Z" fill="#EAB14D"/>
<path d="M-5.66108 67.6624C-6.01218 67.6624 -6.29688 67.9433 -6.29688 68.2899V94.5341C-6.29688 95.7773 -5.27574 96.785 -4.01638 96.785H37.1904V67.6624H-5.66108Z" fill="#D3EFFB"/>
<path d="M90.4453 57.3949C90.7964 57.3949 91.0811 57.1139 91.0811 56.7674V28.7418C91.0811 27.4986 90.0599 26.491 88.8006 26.491H49.3425C48.3767 26.491 47.5938 27.2637 47.5938 28.217V57.3949H90.4453Z" fill="#D3EFFB"/>
<path d="M37.1943 26.4929H-4.01248C-5.27206 26.4929 -6.29297 27.5008 -6.29297 28.7438V56.7693C-6.29297 57.1159 -6.00828 57.3968 -5.65717 57.3968H37.1943V26.4929Z" fill="#D3EFFB"/>
<path d="M47.5938 96.785H88.8008C90.0604 96.785 91.0813 95.7771 91.0813 94.5341V68.2899C91.0813 67.9433 90.7966 67.6624 90.4455 67.6624H47.5938V96.785Z" fill="#D3EFFB"/>
<path d="M31.9902 67.6624H37.1922V96.785H31.9902V67.6624Z" fill="#B1E4F9"/>
<path d="M88.8016 26.491H83.5996C84.8592 26.491 85.8801 27.4986 85.8801 28.7418V57.3949H90.4463C90.7974 57.3949 91.0821 57.1139 91.0821 56.7674V28.7418C91.0823 27.4986 90.0612 26.491 88.8016 26.491Z" fill="#B1E4F9"/>
<path d="M31.9902 26.4929H37.1922V57.3968H31.9902V26.4929Z" fill="#B1E4F9"/>
<path d="M85.8801 67.6624V94.5341C85.8801 95.7773 84.859 96.785 83.5996 96.785H88.8016C90.0612 96.785 91.0821 95.7773 91.0821 94.5341V68.2899C91.0821 67.9433 90.7974 67.6624 90.4463 67.6624H85.8801Z" fill="#B1E4F9"/>
<path d="M72.9268 86.5196C72.9268 89.4358 70.5316 91.7999 67.577 91.7999H20.4064C17.4518 91.7999 15.0566 89.4358 15.0566 86.5196V47.2954C15.0566 44.3792 17.4518 42.0151 20.4064 42.0151H67.577C70.5316 42.0151 72.9268 44.3792 72.9268 47.2954V86.5196Z" fill="#FFE07D"/>
<path d="M67.5736 42.0151H62.6348C65.5894 42.0151 67.9846 44.3792 67.9846 47.2954V86.5198C67.9846 89.436 65.5894 91.8001 62.6348 91.8001H67.5736C70.5282 91.8001 72.9234 89.436 72.9234 86.5198V47.2957C72.9234 44.3794 70.5282 42.0151 67.5736 42.0151Z" fill="#FFD064"/>
<path d="M20.9888 84.1064V74.7378C20.9888 72.8305 19.4223 71.2842 17.4898 71.2842H16.6631C14.7308 71.2842 13.1641 72.8303 13.1641 74.7378C13.1641 74.1382 13.1641 80.2622 13.1641 84.501C13.1641 87.4674 13.7072 90.4084 14.7673 93.1842L16.0831 96.6293C16.7332 98.3316 17.8348 99.8303 19.2723 100.969C20.3573 101.828 20.9886 103.127 20.9886 104.5V111.396H47.803V110.447C47.803 107.568 48.5995 104.721 50.2261 102.331C51.5546 100.379 52.2867 98.0604 52.2867 95.6563V72.207L20.9888 84.1064Z" fill="#FFDDCE"/>
<path d="M23.6397 86.2241H24.7322C26.3173 86.2241 27.7548 85.5876 28.7959 84.5601C29.4772 83.8876 30.4206 83.5149 31.3797 83.6068C31.5639 83.6245 31.7507 83.6334 31.9395 83.6334H33.0321C33.2209 83.6334 33.4076 83.6245 33.5919 83.6068C34.5509 83.5149 35.4943 83.8876 36.1757 84.5601C37.2168 85.5876 38.6543 86.2241 40.2394 86.2241H41.3319C41.5298 86.2241 41.7254 86.2143 41.9183 86.1948C42.9052 86.0957 43.8835 86.3995 44.6068 87.0698C45.6358 88.0235 47.0196 88.6086 48.5392 88.6086H49.6317C50.5883 88.6086 51.4902 88.3755 52.2844 87.966V72.207H20.9863V83.569C20.9863 85.01 22.1503 86.2172 23.6102 86.2241C23.6206 86.2239 23.6302 86.2241 23.6397 86.2241Z" fill="#FFCBBE"/>
<path d="M47.7994 110.447C47.7994 107.568 48.5959 104.721 50.2225 102.331C51.551 100.379 52.2831 98.0602 52.2831 95.6561V72.207L48.5638 77.665V95.6561C48.5638 98.06 47.8316 100.379 46.5031 102.331C44.8766 104.721 44.0801 107.568 44.0801 110.447V111.396H47.7994V110.447Z" fill="#FFCBBE"/>
<path d="M48.7866 63.9326C50.719 63.9326 52.2857 65.4788 52.2857 67.3862V83.0365C52.2857 84.9438 50.7192 86.4901 48.7866 86.4901H47.96C46.0277 86.4901 44.4609 84.944 44.4609 83.0365V67.3862C44.4609 65.479 46.0274 63.9326 47.96 63.9326H48.7866Z" fill="#FFDDCE"/>
<path d="M25.312 54.3765C27.2444 54.3765 28.8111 55.9226 28.8111 57.8301V80.652C28.8111 82.5593 27.2446 84.1056 25.312 84.1056H24.4854C22.553 84.1056 20.9863 82.5595 20.9863 80.652V57.8301C20.9863 55.9228 22.5528 54.3765 24.4854 54.3765H25.312Z" fill="#FFDDCE"/>
<path d="M44.4595 60.2764V80.6499C44.4595 82.5571 42.893 84.1035 40.9605 84.1035H40.1338C38.2015 84.1035 36.6348 82.5574 36.6348 80.6499V60.2764C36.6348 58.3691 38.2013 56.8228 40.1338 56.8228H40.9605C42.893 56.8228 44.4595 58.3691 44.4595 60.2764Z" fill="#FFDDCE"/>
<path d="M33.1343 50.3755C35.0666 50.3755 36.6333 51.9216 36.6333 53.8291V78.0612C36.6333 79.9684 35.0669 81.5148 33.1343 81.5148H32.3076C30.3753 81.5148 28.8086 79.9686 28.8086 78.0612V53.8291C28.8086 51.9219 30.3751 50.3755 32.3076 50.3755H33.1343Z" fill="#FFDDCE"/>
<path d="M48.7834 63.9326H47.9568C47.7712 63.9326 47.59 63.9512 47.4121 63.9787C48.5207 64.5973 49.2771 65.8166 49.2771 67.2238V83.199C49.2771 84.6062 48.5207 85.8255 47.4121 86.4441C47.59 86.4716 47.7709 86.4899 47.9568 86.4899H48.7834C50.7158 86.4899 52.2825 84.9438 52.2825 83.0363V67.386C52.2825 65.4788 50.716 63.9326 48.7834 63.9326Z" fill="#FFCBBE"/>
<path d="M28.8082 57.8301C28.8082 55.9228 27.2417 54.3765 25.3092 54.3765H24.4825C24.3402 54.3765 24.2005 54.3874 24.0625 54.4038C25.1056 55.0284 25.8128 56.2251 25.8128 57.6023V80.88C25.8128 82.2572 25.1056 83.4537 24.0625 84.0785C24.2003 84.0949 24.3399 84.1058 24.4823 84.1058H25.3089C27.2413 84.1058 28.808 82.5597 28.808 80.6522V57.8301H28.8082Z" fill="#FFCBBE"/>
<path d="M40.9575 56.8228H40.1308C40.0399 56.8228 39.9506 56.8295 39.8613 56.8362C40.8188 57.4968 41.4541 58.6418 41.4541 59.9479V80.9783C41.4541 82.2842 40.819 83.4294 39.8616 84.0898C39.9509 84.0965 40.0399 84.1032 40.1308 84.1032H40.9575C42.8898 84.1032 44.4565 82.5571 44.4565 80.6496V60.2761C44.4563 58.3691 42.8898 56.8228 40.9575 56.8228Z" fill="#FFCBBE"/>
<path d="M36.6314 53.8291C36.6314 51.9216 35.065 50.3755 33.1324 50.3755H32.3058C32.1269 50.3755 31.9528 50.3929 31.7812 50.4184C32.8797 51.0314 33.629 52.2393 33.629 53.6336V78.2565C33.629 79.6507 32.8797 80.8588 31.7812 81.4716C31.9528 81.4971 32.1269 81.5145 32.3058 81.5145H33.1324C35.0647 81.5145 36.6314 79.9684 36.6314 78.0609V53.8291Z" fill="#FFCBBE"/>
<path d="M21.7683 84.4536L21.5466 83.9756L20.9844 81.9638V74.736C20.9844 72.9152 19.5555 71.4267 17.7447 71.2954L17.7928 81.7752C17.8064 83.4744 16.0424 84.6196 14.4646 83.9398C14.0319 83.7534 13.596 83.5959 13.1602 83.5207V84.4991C13.1602 85.2407 13.1942 85.9805 13.2617 86.7168C17.7236 88.1578 21.7683 84.4536 21.7683 84.4536Z" fill="#FFCBBE"/>
<path d="M48.8695 131.815H20.0084C18.5377 131.815 17.3457 130.638 17.3457 129.187V114.022C17.3457 112.57 18.5377 111.394 20.0084 111.394H48.8695C50.3402 111.394 51.5322 112.57 51.5322 114.022V129.187C51.5322 130.638 50.3402 131.815 48.8695 131.815Z" fill="#D3EFFB"/>
<path d="M48.867 111.394H43.2402C44.7108 111.394 45.9029 112.57 45.9029 114.022V129.187C45.9029 130.638 44.7108 131.815 43.2402 131.815H48.867C50.3376 131.815 51.5296 130.638 51.5296 129.187V114.022C51.5296 112.57 50.3376 111.394 48.867 111.394Z" fill="#B1E4F9"/>
<path d="M37.0444 21.9567L38.6437 24.8429C38.7507 25.0357 38.9112 25.1944 39.1068 25.3L42.031 26.8785C42.8389 27.3146 42.8389 28.4596 42.031 28.8956L39.1068 30.4742C38.9114 30.5798 38.7507 30.7382 38.6437 30.9313L37.0444 33.8175C36.6026 34.6149 35.4425 34.6149 35.0008 33.8175L33.4014 30.9313C33.2944 30.7384 33.1339 30.5798 32.9383 30.4742L30.0141 28.8956C29.2062 28.4596 29.2062 27.3146 30.0141 26.8785L32.9383 25.3C33.1337 25.1944 33.2944 25.036 33.4014 24.8429L35.0008 21.9567C35.4423 21.1593 36.6026 21.1593 37.0444 21.9567Z" fill="#80B4FB"/>
<path d="M90.0327 76.295L91.632 79.1813C91.739 79.3741 91.8995 79.5328 92.0951 79.6383L95.0193 81.2169C95.8272 81.653 95.8272 82.798 95.0193 83.234L92.0951 84.8126C91.8997 84.9182 91.739 85.0766 91.632 85.2697L90.0327 88.1559C89.5909 88.9533 88.4308 88.9533 87.989 88.1559L86.3897 85.2697C86.2827 85.0768 86.1222 84.9182 85.9266 84.8126L83.0024 83.234C82.1945 82.798 82.1945 81.653 83.0024 81.2169L85.9266 79.6383C86.122 79.5328 86.2827 79.3744 86.3897 79.1813L87.989 76.295C88.4306 75.4977 89.5909 75.4977 90.0327 76.295Z" fill="#80B4FB"/>
<defs>
<filter id="filter0_d_1751_578" x="-28.1816" y="0.635742" width="146.363" height="146.364" filterUnits="userSpaceOnUse" color-interpolation-filters="sRGB">
<feFlood flood-opacity="0" result="BackgroundImageFix"/>
<feColorMatrix in="SourceAlpha" type="matrix" values="0 0 0 0 0 0 0 0 0 0 0 0 0 0 0 0 0 0 127 0" result="hardAlpha"/>
<feOffset dx="2" dy="2"/>
<feGaussianBlur stdDeviation="2.5"/>
<feComposite in2="hardAlpha" operator="out"/>
<feColorMatrix type="matrix" values="0 0 0 0 0 0 0 0 0 0 0 0 0 0 0 0 0 0 0.15 0"/>
<feBlend mode="normal" in2="BackgroundImageFix" result="effect1_dropShadow_1751_578"/>
<feBlend mode="normal" in="SourceGraphic" in2="effect1_dropShadow_1751_578" result="shape"/>
</filter>
</defs>
</svg>
