<svg width="26" height="20" viewBox="0 0 26 20" fill="none" xmlns="http://www.w3.org/2000/svg">
<path d="M2.47203 14.2599H6.25136C6.70358 14.2599 7.143 14.4084 7.50038 14.682L11.4101 17.6744C11.888 18.0429 12.4769 18.2431 13.0832 18.2431L17.9765 18.2874L7.62123 7.98798L2.6252 7.75067H1.85645L2.47203 14.2599Z" fill="#FED2A4"/>
<path d="M17.0911 17.4071H15.9834L14.4714 16.0773L9.4855 11.6918C9.30929 11.5368 9.05208 11.5163 8.85347 11.6413C8.55396 11.8299 8.52012 12.2535 8.78584 12.4873L14.1716 17.2243C14.244 17.2879 14.1989 17.4072 14.1026 17.4072H13.4484C12.842 17.4072 12.2529 17.2072 11.7751 16.8384L7.86547 13.8459C7.50825 13.5728 7.06851 13.424 6.61676 13.424H2.50977L2.54888 14.4685H6.14674C6.59848 14.4685 7.03822 14.6173 7.39544 14.8904L11.305 17.8829C11.7829 18.2517 12.372 18.4517 12.9783 18.4517H18.1413L17.0911 17.4071Z" fill="#FFBD86"/>
<path d="M7.05259 9.54723L5.1871 7.90683C5.07899 7.81178 5.06855 7.64675 5.1636 7.53812L6.80452 5.67316C7.2572 6.07143 8.00544 6.54767 8.1278 7.09431C8.31299 7.92182 7.65548 8.86162 7.05259 9.54723Z" fill="#80D261"/>
<path d="M13.9498 1.70557C14.102 2.48979 13.146 3.0368 12.1826 2.98734C11.441 2.94927 10.3077 2.5558 10.0752 1.95416L11.7156 0.0886764C11.8112 -0.01943 11.9762 -0.0303973 12.0843 0.065175L13.9498 1.70557Z" fill="#97DA7B"/>
<path d="M20.8717 18.0462L19.2313 19.9112C19.1357 20.0193 18.9707 20.0302 18.8626 19.9347L16.9971 18.2943C17.9988 17.1557 19.7332 17.0445 20.8717 18.0462Z" fill="#97DA7B"/>
<path d="M25.7836 12.4616L24.1427 14.3265C23.3552 14.0429 22.8935 13.0695 22.8352 12.3895C22.7734 11.6696 23.0619 10.6541 23.8946 10.4525L25.7601 12.0929C25.8682 12.1879 25.8786 12.3529 25.7836 12.4616Z" fill="#97DA7B"/>
<path d="M20.8717 18.0461L19.2313 19.911C19.1357 20.0191 18.9707 20.0301 18.8626 19.9345L16.9971 18.2941C17.0925 17.5924 18.2037 16.9499 18.9344 16.9257C19.6082 16.9034 20.4972 17.5301 20.8717 18.0461Z" fill="#97DA7B"/>
<path d="M10.0281 2.19411L8.67464 4.41426L7.10788 5.67325C7.44176 5.96692 7.48793 6.27437 7.53885 6.70977C7.91242 7.64058 7.76039 8.74295 7.05273 9.54748L11.9345 12.2778L14.8706 15.9838L16.9977 18.2945C17.999 17.156 19.7337 17.0448 20.8721 18.0462L24.1432 14.3272C23.0047 13.3259 22.8936 11.5912 23.8949 10.4528L13.9499 1.70575C13.2477 2.50417 12.1848 2.79731 11.2198 2.55582C10.7348 2.60079 10.3681 2.4932 10.0281 2.19411Z" fill="#AFE593"/>
<path d="M12.8484 0.736793L11.2195 2.5558C10.9883 2.49793 10.5214 2.6754 10.3077 2.5558C10.1415 2.46279 10.2239 2.08509 10.0752 1.95416L11.7156 0.0886764C11.8112 -0.01943 11.9762 -0.0303973 12.0843 0.065175L12.8484 0.736793Z" fill="#80D261"/>
<path d="M11.2198 2.55604L10.9634 2.84224L7.69252 6.5612L7.54733 6.73198C7.39327 6.33715 7.14467 5.97262 6.80469 5.67337L10.0756 1.95441C10.4155 2.25366 10.8088 2.45316 11.2198 2.55604Z" fill="#97DA7B"/>
<path d="M15.4732 13.2909C17.2906 13.2909 18.7638 11.8176 18.7638 10.0003C18.7638 8.18291 17.2906 6.70966 15.4732 6.70966C13.6559 6.70966 12.1826 8.18291 12.1826 10.0003C12.1826 11.8176 13.6559 13.2909 15.4732 13.2909Z" fill="#97DA7B"/>
<path d="M0.158203 7.49887C0.158203 7.18494 0.412645 6.9305 0.726571 6.9305L1.04436 6.81122H2.05644C2.37036 6.81122 2.6248 7.06566 2.6248 7.37959V13.4241L2.5098 14.7217C2.5098 15.0357 2.25536 15.2901 1.94144 15.2901H0.771015C0.457089 15.2901 0.202647 15.0357 0.202647 14.7217L0.158203 7.49887Z" fill="#B2CAEC"/>
<path d="M2.62484 13.424V14.8978C2.62484 15.2117 2.37051 15.466 2.05663 15.466H0.568211C0.254337 15.466 0 15.2117 0 14.8978V7.37943C0 7.06556 0.254337 6.81122 0.568211 6.81122H1.04451V13.1629C1.04451 13.307 1.16149 13.424 1.30563 13.424H2.62484Z" fill="#A2B9DD"/>
<path d="M19.7491 19.3235L19.2316 19.9116C19.136 20.0197 18.971 20.0306 18.8629 19.9351L16.9974 18.2947C17.1043 18.1731 16.7485 17.7887 16.8706 17.6907C17.0275 17.5647 17.6667 17.7329 17.8424 17.6466L19.7491 19.3235Z" fill="#80D261"/>
<path d="M20.5539 14.8605C20.462 14.8605 20.3698 14.8284 20.2954 14.7629L19.3283 13.9124C19.1659 13.7695 19.15 13.522 19.2929 13.3596C19.4357 13.1971 19.6832 13.1813 19.8457 13.3241L20.8127 14.1746C20.9751 14.3175 20.991 14.565 20.8482 14.7275C20.7707 14.8155 20.6626 14.8605 20.5539 14.8605Z" fill="#97DA7B"/>
<path d="M11.2678 6.6925C11.1758 6.6925 11.0837 6.66039 11.0092 6.59495L10.0422 5.74441C9.87977 5.60157 9.86389 5.35402 10.0067 5.1916C10.1496 5.02913 10.3972 5.01336 10.5595 5.15614L11.5266 6.00668C11.689 6.14952 11.7049 6.39707 11.5621 6.55949C11.4846 6.64754 11.3764 6.6925 11.2678 6.6925Z" fill="#97DA7B"/>
<path d="M17.8425 17.6462C17.5302 17.7997 17.2419 18.0164 16.9975 18.2943L14.474 16.0747L11.9342 12.2774L7.05273 9.54706C7.76039 8.74226 7.91236 7.64031 7.53843 6.70966C8.93232 6.75823 10.2688 7.28048 11.3216 8.19181L15.4793 11.9113C16.0987 12.4482 16.4705 13.1913 16.5259 14.0061C16.5709 14.6604 16.4071 15.2969 16.0603 15.8409C16.0046 15.9282 16.0196 16.0426 16.0974 16.111L17.8425 17.6462Z" fill="#97DA7B"/>
<path d="M16.3501 13.1723C15.3165 13.4564 14.165 13.2313 13.3001 12.4709C12.3099 11.6003 11.9684 10.267 12.3131 9.07941L15.479 11.9116C15.8785 12.2578 16.1751 12.6903 16.3501 13.1723Z" fill="#80D261"/>
<path d="M2.625 7.75067H7.32282C8.54249 7.75067 9.72064 8.18832 10.6378 8.9822L14.7895 12.696C15.6381 13.4266 15.7262 14.6981 14.9862 15.536C14.7395 15.8153 14.4739 16.0751 14.4739 16.0751L9.12877 11.3739L2.625 7.75067Z" fill="#FED2A4"/>
<path d="M17.011 8.93062L17.0711 8.86377C17.2157 8.70286 17.2024 8.45521 17.0415 8.3106C16.8805 8.16599 16.633 8.17931 16.4884 8.34016L16.4059 8.43197C16.3929 8.42795 16.3803 8.4233 16.3669 8.41975C16.0486 8.33551 15.7096 8.40314 15.4371 8.60546C15.1846 8.793 15.0281 9.07272 15.0184 9.35375C15.0064 9.70679 15.1487 9.9393 15.2864 10.1641C15.3262 10.2289 15.3672 10.296 15.4077 10.3704C15.5108 10.5596 15.4287 10.6819 15.3416 10.7511C15.2167 10.8506 15.0046 10.8885 14.8338 10.7371C14.633 10.5591 14.5924 10.5093 14.5322 10.2822C14.4766 10.0731 14.2621 9.9487 14.053 10.0042C13.8439 10.0597 13.7194 10.2742 13.775 10.4833C13.8427 10.7381 13.9255 10.9044 14.0486 11.0557L13.5379 11.6241C13.3932 11.785 13.4065 12.0327 13.5674 12.1773C13.6422 12.2445 13.7358 12.2776 13.8291 12.2776C13.9364 12.2776 14.0432 12.2338 14.1206 12.1477L14.6663 11.5403C14.8045 11.5948 14.9468 11.6205 15.0862 11.6205C15.3647 11.6205 15.6314 11.5217 15.8294 11.3641C16.2516 11.0281 16.3585 10.4781 16.0955 9.99549C16.0455 9.90378 15.9971 9.82477 15.9545 9.75505C15.8377 9.56437 15.7975 9.49272 15.8013 9.38049C15.8023 9.35281 15.831 9.28862 15.9041 9.23436C15.9419 9.20632 16.043 9.14422 16.1662 9.17702C16.342 9.22365 16.3837 9.46217 16.3879 9.48922C16.4209 9.70308 16.6213 9.84984 16.8347 9.81667C17.0485 9.78372 17.1951 9.5837 17.1621 9.36989C17.1401 9.22684 17.091 9.07325 17.011 8.93062Z" fill="#AFE593"/>
<path d="M15.1522 11.6186C15.1303 11.6202 15.1089 11.6207 15.0869 11.6207C14.9475 11.6207 14.8054 11.5951 14.667 11.5403L14.1213 12.1477C14.044 12.2338 13.9374 12.2777 13.8299 12.2777C13.7369 12.2777 13.6434 12.2448 13.5682 12.1774C13.4074 12.0328 13.3943 11.7852 13.539 11.6244L14.0497 11.0556C13.9265 10.9047 13.8434 10.7381 13.7761 10.4833C13.7667 10.4472 13.762 10.4112 13.763 10.3757L15.1522 11.6186Z" fill="#97DA7B"/>
<path d="M2.625 7.75067H7.32282C8.54249 7.75067 9.72064 8.18832 10.6378 8.9822L14.7895 12.696C15.6381 13.4266 15.7262 14.6981 14.9862 15.536C14.7395 15.8153 14.4739 16.0751 14.4739 16.0751L9.12877 11.3739L2.625 7.75067Z" fill="#FED2A4"/>
</svg>
