<svg width="32" height="11" viewBox="0 0 32 11" fill="none" xmlns="http://www.w3.org/2000/svg">
<path fill-rule="evenodd" clip-rule="evenodd" d="M8.62717 10.3227H5.95449L3.95031 2.74036C3.85518 2.39157 3.6532 2.08322 3.35609 1.93789C2.61462 1.57267 1.79758 1.28202 0.90625 1.13543V0.843506H5.21172C5.80594 0.843506 6.2516 1.28202 6.32588 1.7913L7.36576 7.2607L10.0371 0.843506H12.6355L8.62717 10.3227ZM14.1212 10.3227H11.597L13.6755 0.843506H16.1996L14.1212 10.3227ZM19.465 3.47013C19.5393 2.95959 19.985 2.66767 20.5049 2.66767C21.322 2.59437 22.212 2.74096 22.9548 3.10491L23.4004 1.064C22.6576 0.77208 21.8406 0.625488 21.0991 0.625488C18.6493 0.625488 16.8666 1.9385 16.8666 3.76079C16.8666 5.14709 18.1294 5.875 19.0207 6.31351C19.985 6.75076 20.3564 7.04268 20.2821 7.47993C20.2821 8.1358 19.5393 8.42772 18.7978 8.42772C17.9065 8.42772 17.0152 8.2091 16.1994 7.84388L15.7538 9.88606C16.6451 10.25 17.6094 10.3966 18.5007 10.3966C21.2477 10.4686 22.9548 9.15689 22.9548 7.18801C22.9548 4.70858 19.465 4.56325 19.465 3.47013ZM31.7888 10.3227L29.7846 0.843506H27.6319C27.1862 0.843506 26.7405 1.13543 26.592 1.57267L22.8807 10.3227H25.4791L25.9978 8.93766H29.1904L29.4875 10.3227H31.7888ZM28.003 3.39673L28.7445 6.96927H26.666L28.003 3.39673Z" fill="#172B85"/>
</svg>
