<svg width="12" height="12" viewBox="0 0 12 12" fill="none" xmlns="http://www.w3.org/2000/svg">
<path fill-rule="evenodd" clip-rule="evenodd" d="M12 5.99666C12.0009 5.81094 11.9249 5.62493 11.772 5.49132L6.43865 0.831305C6.16139 0.589046 5.74023 0.617422 5.49797 0.894684C5.25571 1.17195 5.28409 1.5931 5.56135 1.83536L9.56474 5.33333L0.666666 5.33333C0.298477 5.33333 -2.17034e-07 5.63181 -2.33128e-07 6C-2.49222e-07 6.36819 0.298477 6.66667 0.666666 6.66667L9.55335 6.66667L5.56064 10.1653C5.28372 10.4079 5.25594 10.8291 5.49859 11.106C5.74124 11.3829 6.16244 11.4107 6.43936 11.1681L11.7077 6.55171C11.8841 6.43176 12 6.22941 12 6C12 5.99889 12 5.99777 12 5.99666Z" fill="#4C75F2"/>
</svg>
