<svg width="24" height="24" viewBox="0 0 24 24" fill="none" xmlns="http://www.w3.org/2000/svg">
<path d="M6.28571 13.9713V8.62945C6.28571 3.7902 17.7143 3.79014 17.7143 8.62952V13.9713C17.7143 14.0935 17.759 14.211 17.84 14.3024L20.5273 17.337C21.0988 17.9823 20.6407 19 19.7787 19H4.22131C3.35934 19 2.90121 17.9823 3.47267 17.337L6.16004 14.3024C6.24101 14.211 6.28571 14.0935 6.28571 13.9713Z" fill="#4C75F2"/>
<path fill-rule="evenodd" clip-rule="evenodd" d="M16.2973 5.25428C17.5242 5.94696 18.4643 7.0682 18.4643 8.62952V13.8761L21.0888 16.8398C22.0889 17.9691 21.2871 19.75 19.7787 19.75H4.22131C2.71286 19.75 1.91113 17.9691 2.91119 16.8398L5.53571 13.8761V8.62945C5.53571 7.06816 6.47583 5.94693 7.7027 5.25427C8.91595 4.56929 10.4807 4.25 12 4.25C13.5193 4.25 15.084 4.56929 16.2973 5.25428ZM8.44016 6.56047C7.52417 7.07762 7.03571 7.77112 7.03571 8.62945V13.9713C7.03571 14.2774 6.9235 14.5715 6.72152 14.7996L4.03415 17.8343C3.89128 17.9956 4.00582 18.25 4.22131 18.25H19.7787C19.9942 18.25 20.1087 17.9956 19.9658 17.8343L17.2785 14.7996L17.84 14.3024L17.2785 14.7996C17.0765 14.5715 16.9643 14.2774 16.9643 13.9713V8.62952C16.9643 7.77115 16.4758 7.07763 15.5598 6.56047C14.6302 6.03563 13.3378 5.75 12 5.75C10.6622 5.75 9.36976 6.03563 8.44016 6.56047Z" fill="#4C75F2"/>
<path d="M14 3.5C14 4.60457 13.1046 5.5 12 5.5C10.8954 5.5 10 4.60457 10 3.5C10 2.39543 10.8954 1.5 12 1.5C13.1046 1.5 14 2.39543 14 3.5Z" fill="#4C75F2"/>
<path d="M15.4996 19C15.4996 19.7956 15.1308 20.5587 14.4745 21.1213C13.8181 21.6839 12.9278 22 11.9996 22C11.0713 22 10.1563 21.6839 9.4999 21.1213C8.84352 20.5587 8.5 19.7956 8.5 19H11.9996H15.4996Z" fill="white"/>
<path fill-rule="evenodd" clip-rule="evenodd" d="M7.75 18.25H16.2496V19C16.2496 20.0351 15.7689 20.9996 14.9626 21.6908C14.1598 22.3789 13.0926 22.75 11.9996 22.75C10.9117 22.75 9.81814 22.3819 9.01181 21.6908C8.19323 20.9891 7.75 20.0198 7.75 19L7.75 18.25ZM9.39798 19.75C9.51935 20.0445 9.71565 20.3184 9.988 20.5519C10.4944 20.986 11.231 21.25 11.9996 21.25C12.7631 21.25 13.4764 20.989 13.9864 20.5519C14.2624 20.3153 14.4642 20.0408 14.5908 19.75H9.39798Z" fill="#4C75F2"/>
<path fill-rule="evenodd" clip-rule="evenodd" d="M16.8569 3.11412C17.07 2.75893 17.5307 2.64376 17.8859 2.85687C20.7354 4.56658 21.25 7.42288 21.25 9.99999C21.25 10.4142 20.9142 10.75 20.5 10.75C20.0858 10.75 19.75 10.4142 19.75 9.99999C19.75 7.5771 19.2646 5.4334 17.1141 4.14311C16.7589 3.93 16.6438 3.4693 16.8569 3.11412Z" fill="#4C75F2"/>
<path fill-rule="evenodd" clip-rule="evenodd" d="M7.14313 3.11412C6.93002 2.75893 6.46932 2.64376 6.11414 2.85687C4.74385 3.67904 3.87548 4.67191 3.369 5.90193C2.87437 7.10318 2.75001 8.47286 2.75001 9.99999C2.75001 10.4142 3.0858 10.75 3.50001 10.75C3.91422 10.75 4.25001 10.4142 4.25001 9.99999C4.25001 8.52712 4.37565 7.39681 4.75602 6.47305C5.12454 5.57807 5.75617 4.82094 6.88588 4.14311C7.24107 3.93 7.35624 3.4693 7.14313 3.11412Z" fill="#4C75F2"/>
</svg>
