<svg width="18" height="21" viewBox="0 0 18 21" fill="none" xmlns="http://www.w3.org/2000/svg">
<path d="M16.8159 14.874C15.5559 13.809 14.8334 12.2523 14.8334 10.6031V8.27979C14.8334 5.34729 12.6551 2.91979 9.83342 2.51312V1.61312C9.83342 1.15229 9.46008 0.779785 9.00008 0.779785C8.54008 0.779785 8.16675 1.15229 8.16675 1.61312V2.51312C5.34425 2.91979 3.16675 5.34729 3.16675 8.27979V10.6031C3.16675 12.2523 2.44425 13.809 1.17675 14.8806C0.852581 15.1581 0.666748 15.5615 0.666748 15.9881C0.666748 16.7923 1.32091 17.4465 2.12508 17.4465H15.8751C16.6792 17.4465 17.3334 16.7923 17.3334 15.9881C17.3334 15.5615 17.1476 15.1581 16.8159 14.874Z" fill="#272727"/>
<path d="M9.00014 20.7798C10.5093 20.7798 11.7718 19.704 12.0618 18.2798H5.93848C6.22848 19.704 7.49098 20.7798 9.00014 20.7798Z" fill="#272727"/>
</svg>
