<svg width="40" height="40" viewBox="0 0 40 40" fill="none" xmlns="http://www.w3.org/2000/svg">
<circle cx="20" cy="20" r="20" fill="#9CD7F9"/>
<path d="M8 14.7968V30.1301C8 31.1611 8.83889 32 9.86992 32H30.065C31.0961 32 31.935 31.1611 31.935 30.1301V14.7968H8Z" fill="#D8DCE1"/>
<path d="M30.065 9.56097H9.86992C8.83889 9.56097 8 10.3999 8 11.4309V14.7967H31.935V11.4309C31.935 10.3999 31.096 9.56097 30.065 9.56097ZM10.9919 13.3008C10.3722 13.3008 9.86992 12.7985 9.86992 12.1789C9.86992 11.5592 10.3722 11.0569 10.9919 11.0569C11.6115 11.0569 12.1138 11.5592 12.1138 12.1789C12.1138 12.7985 11.6115 13.3008 10.9919 13.3008ZM28.9431 13.3008C28.3234 13.3008 27.8211 12.7985 27.8211 12.1789C27.8211 11.5592 28.3234 11.0569 28.9431 11.0569C29.5627 11.0569 30.065 11.5592 30.065 12.1789C30.065 12.7985 29.5627 13.3008 28.9431 13.3008Z" fill="#FFF6A9"/>
<path d="M19.9674 18.1626C19.1424 18.1626 18.4714 18.8335 18.4714 19.6585C18.4714 20.4835 19.1424 21.1545 19.9674 21.1545C20.7924 21.1545 21.4633 20.4835 21.4633 19.6585C21.4633 18.8335 20.7924 18.1626 19.9674 18.1626Z" fill="white"/>
<path d="M16.2275 18.1626C15.4025 18.1626 14.7316 18.8335 14.7316 19.6585C14.7316 20.4835 15.4025 21.1545 16.2275 21.1545C17.0525 21.1545 17.7234 20.4835 17.7234 19.6585C17.7234 18.8335 17.0525 18.1626 16.2275 18.1626Z" fill="white"/>
<path d="M12.4878 18.1626C11.6627 18.1626 10.9918 18.8335 10.9918 19.6585C10.9918 20.4835 11.6627 21.1545 12.4878 21.1545C13.3128 21.1545 13.9837 20.4835 13.9837 19.6585C13.9837 18.8335 13.3128 18.1626 12.4878 18.1626Z" fill="white"/>
<path d="M23.7071 18.1626C22.8821 18.1626 22.2112 18.8335 22.2112 19.6585C22.2112 20.4835 22.8821 21.1545 23.7071 21.1545C24.5321 21.1545 25.2031 20.4835 25.2031 19.6585C25.2031 18.8335 24.5321 18.1626 23.7071 18.1626Z" fill="white"/>
<path d="M27.4471 21.1545C28.2721 21.1545 28.943 20.4835 28.943 19.6585C28.943 18.8335 28.2721 18.1626 27.4471 18.1626C26.6221 18.1626 25.9512 18.8335 25.9512 19.6585C25.9512 20.4835 26.6221 21.1545 27.4471 21.1545Z" fill="white"/>
<path d="M19.9674 21.9024C19.1424 21.9024 18.4714 22.5734 18.4714 23.3984C18.4714 24.2234 19.1424 24.8943 19.9674 24.8943C20.7924 24.8943 21.4633 24.2234 21.4633 23.3984C21.4633 22.5734 20.7924 21.9024 19.9674 21.9024Z" fill="white"/>
<path d="M16.2275 21.9024C15.4025 21.9024 14.7316 22.5734 14.7316 23.3984C14.7316 24.2234 15.4025 24.8943 16.2275 24.8943C17.0525 24.8943 17.7234 24.2234 17.7234 23.3984C17.7234 22.5734 17.0525 21.9024 16.2275 21.9024Z" fill="white"/>
<path d="M12.4876 21.9024C11.6626 21.9024 10.9917 22.5734 10.9917 23.3984C10.9917 24.2234 11.6626 24.8943 12.4876 24.8943C13.3126 24.8943 13.9836 24.2234 13.9836 23.3984C13.9836 22.5734 13.3126 21.9024 12.4876 21.9024Z" fill="white"/>
<path d="M23.7071 21.9024C22.8821 21.9024 22.2112 22.5734 22.2112 23.3984C22.2112 24.2234 22.8821 24.8943 23.7071 24.8943C24.5321 24.8943 25.2031 24.2234 25.2031 23.3984C25.2031 22.5734 24.5321 21.9024 23.7071 21.9024Z" fill="white"/>
<path d="M27.4471 21.9024C26.6221 21.9024 25.9512 22.5734 25.9512 23.3984C25.9512 24.2234 26.6221 24.8943 27.4471 24.8943C28.2721 24.8943 28.943 24.2234 28.943 23.3984C28.943 22.5734 28.2721 21.9024 27.4471 21.9024Z" fill="white"/>
<path d="M19.9674 25.6423C19.1424 25.6423 18.4714 26.3132 18.4714 27.1382C18.4714 27.9632 19.1424 28.6341 19.9674 28.6341C20.7924 28.6341 21.4633 27.9632 21.4633 27.1382C21.4633 26.3132 20.7924 25.6423 19.9674 25.6423Z" fill="white"/>
<path d="M16.2275 25.6423C15.4025 25.6423 14.7316 26.3132 14.7316 27.1382C14.7316 27.9632 15.4025 28.6341 16.2275 28.6341C17.0525 28.6341 17.7234 27.9632 17.7234 27.1382C17.7234 26.3132 17.0525 25.6423 16.2275 25.6423Z" fill="white"/>
<path d="M12.4876 25.6423C11.6626 25.6423 10.9917 26.3132 10.9917 27.1382C10.9917 27.9632 11.6626 28.6341 12.4876 28.6341C13.3126 28.6341 13.9836 27.9632 13.9836 27.1382C13.9836 26.3132 13.3126 25.6423 12.4876 25.6423Z" fill="white"/>
<path d="M23.7071 25.6423C22.8821 25.6423 22.2112 26.3132 22.2112 27.1382C22.2112 27.9632 22.8821 28.6341 23.7071 28.6341C24.5321 28.6341 25.2031 27.9632 25.2031 27.1382C25.2031 26.3132 24.5321 25.6423 23.7071 25.6423Z" fill="white"/>
<path d="M27.4471 25.6423C26.6221 25.6423 25.9512 26.3132 25.9512 27.1382C25.9512 27.9632 26.6221 28.6341 27.4471 28.6341C28.2721 28.6341 28.943 27.9632 28.943 27.1382C28.943 26.3132 28.2721 25.6423 27.4471 25.6423Z" fill="white"/>
<path d="M10.9919 12.7398C10.6822 12.7398 10.4309 12.4888 10.4309 12.1789V9.56098C10.4309 9.25108 10.6822 9 10.9919 9C11.3016 9 11.5529 9.25108 11.5529 9.56098V12.1789C11.5529 12.4888 11.3016 12.7398 10.9919 12.7398Z" fill="#5C546A"/>
<path d="M28.9431 12.7398C28.6334 12.7398 28.3821 12.4888 28.3821 12.1789V9.56098C28.3821 9.25108 28.6334 9 28.9431 9C29.2528 9 29.504 9.25108 29.504 9.56098V12.1789C29.504 12.4888 29.2528 12.7398 28.9431 12.7398Z" fill="#5C546A"/>
<path d="M12.4879 21.1545C13.3141 21.1545 13.9838 20.4847 13.9838 19.6585C13.9838 18.8324 13.3141 18.1626 12.4879 18.1626C11.6617 18.1626 10.9919 18.8324 10.9919 19.6585C10.9919 20.4847 11.6617 21.1545 12.4879 21.1545Z" fill="#FFD200"/>
<path d="M19.9675 28.6341C20.7937 28.6341 21.4634 27.9644 21.4634 27.1382C21.4634 26.312 20.7937 25.6423 19.9675 25.6423C19.1413 25.6423 18.4716 26.312 18.4716 27.1382C18.4716 27.9644 19.1413 28.6341 19.9675 28.6341Z" fill="#FF9600"/>
<path d="M23.7074 24.8943C24.5335 24.8943 25.2033 24.2246 25.2033 23.3984C25.2033 22.5722 24.5335 21.9024 23.7074 21.9024C22.8812 21.9024 22.2114 22.5722 22.2114 23.3984C22.2114 24.2246 22.8812 24.8943 23.7074 24.8943Z" fill="#FF4F19"/>
</svg>
