<svg width="22" height="22" viewBox="0 0 22 22" fill="none" xmlns="http://www.w3.org/2000/svg">
<path fill-rule="evenodd" clip-rule="evenodd" d="M0.25 7.01245C0.25 4.94138 1.92893 3.26245 4 3.26245H18C20.0711 3.26245 21.75 4.94138 21.75 7.01245V17.9999C21.75 20.071 20.0711 21.7499 18 21.7499H4C1.92893 21.7499 0.25 20.071 0.25 17.9999V7.01245ZM4 4.76245C2.75736 4.76245 1.75 5.76981 1.75 7.01245V17.9999C1.75 19.2426 2.75736 20.2499 4 20.2499H18C19.2426 20.2499 20.25 19.2426 20.25 17.9999V7.01245C20.25 5.76981 19.2426 4.76245 18 4.76245H4Z" fill="#4C75F2"/>
<path fill-rule="evenodd" clip-rule="evenodd" d="M5.99974 0.250019C6.41395 0.249877 6.74986 0.585549 6.75 0.999763L6.75102 4.01251C6.75117 4.42672 6.41549 4.76262 6.00128 4.76276C5.58707 4.7629 5.25117 4.42723 5.25102 4.01302L5.25 1.00027C5.24986 0.586061 5.58553 0.25016 5.99974 0.250019Z" fill="#4C75F2"/>
<path fill-rule="evenodd" clip-rule="evenodd" d="M16 0.25C16.4142 0.25 16.75 0.585786 16.75 1V3.63158C16.75 4.04579 16.4142 4.38158 16 4.38158C15.5858 4.38158 15.25 4.04579 15.25 3.63158V1C15.25 0.585786 15.5858 0.25 16 0.25Z" fill="#4C75F2"/>
<path fill-rule="evenodd" clip-rule="evenodd" d="M4.25 8.36844C4.25 7.95423 4.58579 7.61844 5 7.61844L17 7.61844C17.4142 7.61844 17.75 7.95423 17.75 8.36844C17.75 8.78265 17.4142 9.11844 17 9.11844L5 9.11844C4.58579 9.11844 4.25 8.78265 4.25 8.36844Z" fill="#4C75F2"/>
</svg>
