<svg width="8" height="8" viewBox="0 0 8 8" fill="none" xmlns="http://www.w3.org/2000/svg">
<path d="M4.94255 4.00008L7.80449 1.13814C8.06515 0.877482 8.06515 0.456157 7.80449 0.195496C7.54383 -0.0651653 7.1225 -0.0651653 6.86184 0.195496L3.9999 3.05744L1.13796 0.195496C0.877299 -0.0651653 0.455974 -0.0651653 0.195313 0.195496C-0.0653484 0.456157 -0.0653484 0.877482 0.195313 1.13814L3.05725 4.00008L0.195313 6.86202C-0.0653484 7.12269 -0.0653484 7.54401 0.195313 7.80467C0.32531 7.93467 0.495973 8 0.666636 8C0.837299 8 1.00796 7.93467 1.13796 7.80467L3.9999 4.94273L6.86184 7.80467C6.99184 7.93467 7.1625 8 7.33316 8C7.50383 8 7.67449 7.93467 7.80449 7.80467C8.06515 7.54401 8.06515 7.12269 7.80449 6.86202L4.94255 4.00008Z" fill="#C3C4C7"/>
</svg>
