<svg width="22" height="22" viewBox="0 0 22 22" fill="none" xmlns="http://www.w3.org/2000/svg">
<path d="M1 4C1 2.34314 2.34315 1 4 1H6.57143C8.22828 1 9.57143 2.34315 9.57143 4V6.57143C9.57143 8.22828 8.22828 9.57143 6.57143 9.57143H4C2.34314 9.57143 1 8.22828 1 6.57143V4Z" stroke="#4C75F2"/>
<path d="M12.4287 4C12.4287 2.34314 13.7719 1 15.4287 1H18.0001C19.657 1 21.0001 2.34315 21.0001 4V6.57143C21.0001 8.22828 19.657 9.57143 18.0001 9.57143H15.4287C13.7719 9.57143 12.4287 8.22828 12.4287 6.57143V4Z" stroke="#4C75F2"/>
<path d="M12.4286 15.4286C12.4286 13.7717 13.7717 12.4286 15.4286 12.4286H18C19.6569 12.4286 21 13.7717 21 15.4286V18C21 19.6568 19.6569 21 18 21H15.4286C13.7717 21 12.4286 19.6568 12.4286 18V15.4286Z" stroke="#4C75F2"/>
<path d="M1 15.4286C1 13.7717 2.34315 12.4286 4 12.4286H6.57143C8.22828 12.4286 9.57143 13.7717 9.57143 15.4286V18C9.57143 19.6568 8.22828 21 6.57143 21H4C2.34314 21 1 19.6568 1 18V15.4286Z" stroke="#4C75F2"/>
</svg>
