<svg width="180" height="61" viewBox="0 0 180 61" fill="none" xmlns="http://www.w3.org/2000/svg">
<path d="M165.666 0.000805899H14.3422C13.7906 0.000805899 13.2456 0.000805899 12.6955 0.00381432C12.235 0.00682274 11.7781 0.0155622 11.3132 0.0229178C10.3031 0.0348038 9.29543 0.123664 8.29888 0.288727C7.30373 0.457383 6.33976 0.775348 5.43956 1.23187C4.54046 1.69225 3.71893 2.29047 3.00477 3.00482C2.28686 3.71716 1.68842 4.54054 1.23248 5.44328C0.775271 6.34423 0.458244 7.30967 0.292343 8.30628C0.124866 9.30162 0.0347448 10.3084 0.0227888 11.3177C0.00882972 11.7789 0.00735559 12.2416 0 12.7029V47.4716C0.00735559 47.9387 0.00882972 48.3911 0.0227888 48.8583C0.0347485 49.8675 0.12487 50.8743 0.292343 51.8696C0.457785 52.8668 0.774831 53.8328 1.23248 54.7341C1.68821 55.6339 2.28673 56.4539 3.00477 57.1623C3.71622 57.8799 4.53828 58.4785 5.43956 58.9353C6.33975 59.3931 7.30362 59.7129 8.29888 59.8842C9.2956 60.0479 10.3032 60.1368 11.3132 60.1501C11.7781 60.1604 12.235 60.1662 12.6955 60.1662C13.2456 60.1692 13.7906 60.1692 14.3422 60.1692H165.666C166.207 60.1692 166.756 60.1692 167.296 60.1662C167.755 60.1662 168.225 60.1604 168.683 60.1501C169.691 60.1375 170.697 60.0486 171.692 59.8842C172.69 59.7117 173.657 59.392 174.562 58.9353C175.462 58.4782 176.284 57.8796 176.995 57.1623C177.711 56.4512 178.311 55.6317 178.772 54.7341C179.226 53.8321 179.54 52.8662 179.703 51.8696C179.871 50.8742 179.964 49.8676 179.982 48.8583C179.988 48.3911 179.988 47.9387 179.988 47.4716C180 46.9251 180 46.3816 180 45.8263V14.3452C180 13.7943 180 13.2478 179.988 12.7029C179.988 12.2416 179.988 11.7789 179.982 11.3176C179.964 10.3083 179.871 9.3017 179.703 8.30622C179.54 7.31019 179.226 6.34482 178.772 5.44322C177.843 3.63377 176.371 2.16089 174.562 1.23173C173.657 0.776328 172.69 0.458448 171.692 0.288592C170.697 0.122802 169.691 0.0339102 168.683 0.0227072C168.225 0.0153667 167.755 0.00655198 167.296 0.00361877C166.756 0.000610352 166.207 0.000610352 165.666 0.000610352V0.000805899Z" fill="#A6A6A6"/>
<path d="M12.7028 58.8531C12.2445 58.8531 11.7973 58.8472 11.3426 58.837C10.4006 58.8247 9.46088 58.7427 8.53102 58.5916C7.66398 58.4423 6.82405 58.1646 6.03894 57.7675C5.26102 57.3737 4.5515 56.8574 3.93755 56.2383C3.31472 55.6265 2.79618 54.9169 2.40249 54.1377C2.00446 53.3534 1.729 52.5127 1.58571 51.6449C1.43096 50.7125 1.34723 49.7696 1.33525 48.8245C1.32572 48.5073 1.31323 47.451 1.31323 47.451V12.7029C1.31323 12.7029 1.32653 11.6629 1.33533 11.3573C1.3468 10.4137 1.43004 9.47233 1.58432 8.54134C1.72788 7.67118 2.00356 6.82807 2.4018 6.04119C2.79405 5.26248 3.3097 4.55236 3.92878 3.93837C4.54717 3.31855 5.25896 2.79957 6.0382 2.40036C6.82151 2.00458 7.65985 1.72877 8.52514 1.58216C9.45805 1.42959 10.4011 1.34709 11.3463 1.33538L12.7036 1.31702H167.289L168.663 1.33612C169.599 1.34725 170.534 1.42901 171.458 1.58069C172.332 1.72913 173.179 2.00687 173.971 2.40477C175.533 3.20929 176.803 4.48212 177.604 6.04486C177.996 6.82631 178.267 7.66254 178.409 8.52518C178.565 9.46381 178.653 10.4126 178.671 11.3639C178.675 11.7899 178.675 12.2475 178.675 12.7029C178.687 13.267 178.687 13.8039 178.687 14.3452V45.8263C178.687 46.3728 178.687 46.906 178.675 47.4436C178.675 47.9328 178.675 48.3809 178.669 48.8421C178.652 49.7765 178.566 50.7083 178.412 51.6302C178.272 52.5042 177.998 53.3514 177.6 54.1422C177.203 54.913 176.688 55.6164 176.072 56.2266C175.458 56.849 174.747 57.3683 173.967 57.7646C173.177 58.1647 172.331 58.4435 171.458 58.5916C170.528 58.7435 169.588 58.8255 168.646 58.837C168.206 58.8472 167.744 58.8531 167.297 58.8531L165.666 58.8561L12.7028 58.8531Z" fill="black"/>
<path d="M37.2588 30.5373C37.2749 29.2818 37.6084 28.0508 38.2282 26.9588C38.848 25.8668 39.7339 24.9493 40.8035 24.2917C40.124 23.3213 39.2276 22.5226 38.1854 21.9592C37.1433 21.3958 35.9841 21.0832 34.8 21.0461C32.274 20.781 29.8253 22.5576 28.5381 22.5576C27.226 22.5576 25.2442 21.0725 23.1102 21.1164C21.7298 21.161 20.3845 21.5624 19.2054 22.2815C18.0263 23.0006 17.0535 24.0128 16.3819 25.2197C13.4728 30.2564 15.6428 37.6587 18.4295 41.73C19.8237 43.7236 21.4532 45.9505 23.5854 45.8715C25.6718 45.785 26.451 44.5411 28.9695 44.5411C31.4646 44.5411 32.1957 45.8715 34.3711 45.8213C36.61 45.785 38.0206 43.8189 39.3659 41.8064C40.3677 40.3859 41.1385 38.8159 41.6499 37.1546C40.3492 36.6045 39.2392 35.6836 38.4584 34.5069C37.6775 33.3301 37.2603 31.9496 37.2588 30.5373V30.5373Z" fill="white"/>
<path d="M33.1504 18.3684C34.3711 16.903 34.9725 15.0195 34.8268 13.1178C32.9619 13.3137 31.2391 14.205 30.0019 15.6142C29.397 16.3026 28.9337 17.1035 28.6386 17.9711C28.3434 18.8387 28.2221 19.7559 28.2816 20.6704C29.2144 20.68 30.1372 20.4779 30.9806 20.0791C31.8239 19.6804 32.5658 19.0955 33.1504 18.3684Z" fill="white"/>
<path d="M63.6345 40.8245H56.5144L54.8046 45.8733H51.7888L58.5328 27.194H61.6661L68.41 45.8733H65.3429L63.6345 40.8245ZM57.2519 38.4947H62.8957L60.1135 30.3008H60.0356L57.2519 38.4947Z" fill="white"/>
<path d="M82.9752 39.0641C82.9752 43.2962 80.71 46.0152 77.2918 46.0152C76.4259 46.0605 75.5647 45.861 74.8069 45.4396C74.0491 45.0183 73.4253 44.392 73.0068 43.6325H72.9422V50.378H70.1467V32.254H72.8526V34.5191H72.904C73.3417 33.7633 73.976 33.1403 74.7396 32.7163C75.5032 32.2924 76.3674 32.0834 77.2404 32.1115C80.6968 32.1115 82.9752 34.8438 82.9752 39.0641ZM80.1019 39.0641C80.1019 36.3069 78.677 34.4942 76.5029 34.4942C74.3671 34.4942 72.9304 36.3451 72.9304 39.0641C72.9304 41.8081 74.3671 43.6458 76.5029 43.6458C78.677 43.6458 80.1019 41.8463 80.1019 39.0641Z" fill="white"/>
<path d="M97.9637 39.0641C97.9637 43.2962 95.6986 46.0152 92.2803 46.0152C91.4144 46.0605 90.5532 45.861 89.7954 45.4396C89.0376 45.0182 88.4138 44.392 87.9954 43.6325H87.9307V50.378H85.1353V32.254H87.8411V34.5191H87.8925C88.3301 33.7633 88.9645 33.1403 89.7281 32.7163C90.4917 32.2924 91.3559 32.0834 92.2288 32.1115C95.6853 32.1115 97.9637 34.8438 97.9637 39.0641ZM95.0904 39.0641C95.0904 36.3069 93.6655 34.4942 91.4915 34.4942C89.3556 34.4942 87.919 36.345 87.919 39.0641C87.919 41.8081 89.3556 43.6458 91.4915 43.6458C93.6655 43.6458 95.0904 41.8463 95.0904 39.0641H95.0904Z" fill="white"/>
<path d="M107.87 40.6687C108.077 42.521 109.877 43.7373 112.336 43.7373C114.692 43.7373 116.387 42.521 116.387 40.8508C116.387 39.4009 115.365 38.5328 112.944 37.9378L110.523 37.3546C107.093 36.5262 105.501 34.922 105.501 32.3191C105.501 29.0962 108.31 26.8824 112.298 26.8824C116.245 26.8824 118.951 29.0962 119.042 32.3191H116.22C116.051 30.4549 114.51 29.3297 112.258 29.3297C110.006 29.3297 108.465 30.4682 108.465 32.1252C108.465 33.4458 109.449 34.2228 111.857 34.8177L113.915 35.323C117.748 36.2294 119.34 37.7689 119.34 40.5011C119.34 43.9957 116.556 46.1845 112.129 46.1845C107.986 46.1845 105.189 44.0471 105.009 40.6685L107.87 40.6687Z" fill="white"/>
<path d="M125.373 29.0309V32.2538H127.962V34.4675H125.373V41.9753C125.373 43.1417 125.891 43.6852 127.03 43.6852C127.337 43.6798 127.644 43.6582 127.949 43.6205V45.821C127.437 45.9166 126.917 45.96 126.396 45.9503C123.639 45.9503 122.564 44.9147 122.564 42.2735V34.4675H120.584V32.2538H122.564V29.0309H125.373Z" fill="white"/>
<path d="M129.463 39.0651C129.463 34.7801 131.986 32.0875 135.922 32.0875C139.87 32.0875 142.382 34.7801 142.382 39.0651C142.382 43.3618 139.883 46.0426 135.922 46.0426C131.961 46.0426 129.463 43.3618 129.463 39.0651ZM139.534 39.0651C139.534 36.1257 138.187 34.3908 135.922 34.3908C133.657 34.3908 132.311 36.1389 132.311 39.0651C132.311 42.0162 133.657 43.7378 135.922 43.7378C138.187 43.7378 139.534 42.0162 139.534 39.0651H139.534Z" fill="white"/>
<path d="M144.687 32.2539H147.353V34.5719H147.418C147.598 33.8479 148.022 33.2081 148.619 32.76C149.215 32.312 149.948 32.0829 150.694 32.1114C151.016 32.1103 151.337 32.1452 151.651 32.2157V34.8304C151.245 34.7061 150.82 34.6491 150.395 34.6615C149.989 34.645 149.584 34.7166 149.209 34.8714C148.833 35.0261 148.495 35.2604 148.218 35.5581C147.941 35.8557 147.732 36.2098 147.605 36.5959C147.478 36.9819 147.436 37.3909 147.482 37.7948V45.8726H144.687L144.687 32.2539Z" fill="white"/>
<path d="M164.54 41.8737C164.164 44.346 161.756 46.0426 158.676 46.0426C154.714 46.0426 152.255 43.3882 152.255 39.1297C152.255 34.858 154.727 32.0875 158.558 32.0875C162.326 32.0875 164.695 34.6758 164.695 38.8051V39.7628H155.077V39.9317C155.032 40.4329 155.095 40.9379 155.261 41.413C155.427 41.888 155.691 42.3224 156.038 42.6873C156.384 43.0521 156.805 43.3391 157.271 43.5291C157.736 43.719 158.238 43.8077 158.74 43.7892C159.401 43.8511 160.064 43.6981 160.631 43.353C161.197 43.0079 161.637 42.489 161.885 41.8737L164.54 41.8737ZM155.09 37.8091H161.899C161.924 37.3584 161.855 36.9075 161.698 36.4845C161.54 36.0615 161.297 35.6756 160.984 35.351C160.67 35.0265 160.293 34.7703 159.875 34.5984C159.458 34.4266 159.009 34.343 158.558 34.3527C158.103 34.3499 157.652 34.4374 157.23 34.61C156.809 34.7826 156.426 35.0369 156.104 35.3583C155.781 35.6796 155.526 36.0616 155.352 36.4823C155.178 36.9029 155.089 37.3539 155.09 37.8091V37.8091Z" fill="white"/>
<path d="M55.2622 16.9281H56.4623C56.6689 16.9539 56.8786 16.9365 57.0782 16.8772C57.2777 16.8178 57.4628 16.7178 57.6218 16.5834C57.7808 16.449 57.9102 16.2831 58.0019 16.0962C58.0936 15.9092 58.1456 15.7054 58.1546 15.4974C58.1546 14.6696 57.5317 14.1349 56.4755 14.1349C56.2639 14.1053 56.0484 14.1185 55.8419 14.1735C55.6354 14.2286 55.4421 14.3245 55.2732 14.4555C55.1044 14.5866 54.9635 14.7501 54.8589 14.9365C54.7544 15.1229 54.6882 15.3283 54.6643 15.5407H53.3466C53.3693 15.1552 53.4711 14.7784 53.6457 14.434C53.8203 14.0895 54.0639 13.7846 54.3614 13.5384C54.6589 13.2921 55.0039 13.1098 55.375 13.0026C55.746 12.8955 56.1351 12.8659 56.5181 12.9157C58.2853 12.9157 59.5295 13.905 59.5295 15.3292C59.5337 15.8063 59.3741 16.2704 59.0773 16.644C58.7806 17.0176 58.3646 17.2781 57.899 17.382V17.4878C58.451 17.5123 58.9709 17.7543 59.345 18.161C59.7191 18.5677 59.9169 19.106 59.8953 19.6582C59.8544 20.0551 59.7348 20.4399 59.5433 20.79C59.3518 21.1401 59.0923 21.4485 58.7801 21.697C58.4679 21.9455 58.1092 22.1292 57.7251 22.2373C57.341 22.3454 56.9391 22.3758 56.5431 22.3265C56.1463 22.3806 55.7426 22.3543 55.3562 22.2491C54.9698 22.1438 54.6085 21.9619 54.2939 21.714C53.9793 21.4662 53.7178 21.1575 53.525 20.8065C53.3323 20.4554 53.2122 20.0691 53.1719 19.6707H54.5101C54.5909 20.5293 55.3797 21.0831 56.5431 21.0831C57.7065 21.0831 58.466 20.461 58.466 19.5841C58.466 18.6946 57.7506 18.1467 56.5005 18.1467H55.2622V16.9281Z" fill="white"/>
<path d="M61.416 20.1933C61.416 18.974 62.3253 18.2712 63.9353 18.1713L65.77 18.0655V17.4809C65.77 16.7655 65.2985 16.3615 64.3833 16.3615C63.6371 16.3615 63.1215 16.6355 62.9716 17.1144H61.6775C61.8141 15.9509 62.9099 15.2047 64.4465 15.2047C66.1446 15.2047 67.1024 16.0501 67.1024 17.4809V22.1088H65.8141V21.1569H65.7083C65.4936 21.4984 65.1922 21.7767 64.8348 21.9636C64.4773 22.1504 64.0767 22.239 63.6738 22.2204C63.3895 22.25 63.1021 22.2196 62.8302 22.1313C62.5583 22.043 62.3079 21.8988 62.0952 21.7078C61.8824 21.5168 61.7121 21.2833 61.5951 21.0225C61.4782 20.7616 61.4171 20.4792 61.416 20.1933V20.1933ZM65.77 19.6145V19.0482L64.1159 19.154C63.1831 19.2164 62.76 19.5337 62.76 20.1308C62.76 20.7404 63.2889 21.0952 64.0161 21.0952C64.2291 21.1168 64.4444 21.0953 64.6489 21.032C64.8535 20.9687 65.0433 20.8648 65.2069 20.7267C65.3706 20.5885 65.5048 20.4189 65.6015 20.2278C65.6982 20.0367 65.7555 19.8282 65.77 19.6145V19.6145Z" fill="white"/>
<path d="M70.6488 16.4608V22.1089H69.312V15.3356H73.7718V16.4607L70.6488 16.4608Z" fill="white"/>
<path d="M81.8737 18.7191C81.8737 20.8711 80.7852 22.2203 79.0753 22.2203C78.6556 22.249 78.2364 22.1572 77.8671 21.9556C77.4978 21.754 77.1938 21.4512 76.9909 21.0826H76.8851V24.3606H75.5483V15.3353H76.8351V16.4547H76.935C77.1416 16.0733 77.4496 15.7564 77.825 15.5391C78.2003 15.3217 78.6285 15.2123 79.0621 15.223C80.7852 15.223 81.8737 16.5663 81.8737 18.7191ZM80.4987 18.7191C80.4987 17.2883 79.8215 16.4238 78.689 16.4238C77.5638 16.4238 76.8601 17.3067 76.8601 18.725C76.8601 20.1366 77.5638 21.0202 78.6831 21.0202C79.8215 21.0202 80.4987 20.1557 80.4987 18.7191Z" fill="white"/>
<path d="M83.6541 24.5349V23.384C83.7987 23.4024 83.9445 23.4107 84.0903 23.409C84.3751 23.4301 84.6577 23.3452 84.8838 23.1708C85.1099 22.9963 85.2636 22.7445 85.3154 22.4637L85.4153 22.1339L82.9636 15.3356H84.4194L86.1175 20.7156H86.2233L87.9155 15.3356H89.3331L86.808 22.3888C86.2292 24.0369 85.5887 24.5658 84.2079 24.5658C84.0962 24.5658 83.7789 24.5533 83.6541 24.5349Z" fill="white"/>
<path d="M90.375 20.1874H91.7059C91.8366 20.7845 92.3963 21.0959 93.1792 21.0959C94.0694 21.0959 94.6159 20.7037 94.6159 20.0941C94.6159 19.4412 94.1252 19.1298 93.1792 19.1298H92.1657V18.0912H93.1616C93.9695 18.0912 94.3808 17.7805 94.3808 17.2142C94.3808 16.717 93.9828 16.3373 93.1616 16.3373C92.4139 16.3373 91.8675 16.6546 91.7807 17.1893H90.4925C90.5888 16.5749 90.9224 16.0228 91.4216 15.6518C91.9207 15.2808 92.5455 15.1206 93.1616 15.2055C94.7716 15.2055 95.6926 15.9333 95.6926 17.0776C95.7001 17.3963 95.598 17.7079 95.4034 17.9603C95.2087 18.2127 94.9333 18.3906 94.6232 18.4644V18.5701C94.9924 18.6177 95.3313 18.7992 95.5755 19.0802C95.8198 19.3611 95.9524 19.7219 95.9482 20.0941C95.9482 21.3818 94.8524 22.2337 93.1792 22.2337C91.7 22.2336 90.4984 21.5557 90.375 20.1874Z" fill="white"/>
<path d="M97.8726 22.1089V15.3356H99.1976V19.9944H99.3033L102.425 15.3356H103.75V22.1089H102.425V17.4252H102.325L99.1976 22.109L97.8726 22.1089Z" fill="white"/>
<path d="M111.048 16.4607H108.916V22.1089H107.577V16.4607H105.444V15.3356H111.048V16.4607Z" fill="white"/>
<path d="M118.25 20.2801C118.068 20.8991 117.674 21.4344 117.137 21.7926C116.601 22.1508 115.955 22.309 115.314 22.2397C114.867 22.2514 114.424 22.166 114.014 21.9892C113.604 21.8124 113.237 21.5485 112.94 21.2159C112.642 20.8832 112.42 20.4898 112.29 20.0629C112.16 19.6359 112.124 19.1858 112.185 18.7435C112.125 18.3 112.162 17.8488 112.292 17.4206C112.422 16.9924 112.643 16.5971 112.939 16.2616C113.235 15.926 113.6 15.658 114.008 15.4757C114.417 15.2934 114.86 15.201 115.308 15.2048C117.192 15.2048 118.331 16.4924 118.331 18.6194V19.0858H113.548V19.1607C113.527 19.4094 113.558 19.6597 113.639 19.8956C113.72 20.1315 113.85 20.3477 114.02 20.5305C114.19 20.7132 114.396 20.8584 114.626 20.9567C114.855 21.055 115.102 21.1042 115.352 21.1012C115.671 21.1394 115.995 21.0817 116.282 20.9355C116.568 20.7893 116.805 20.5611 116.962 20.28L118.25 20.2801ZM113.548 18.0972H116.968C116.984 17.87 116.954 17.6418 116.877 17.4272C116.801 17.2126 116.68 17.0164 116.523 16.8511C116.366 16.6859 116.177 16.5553 115.966 16.4677C115.756 16.3801 115.53 16.3375 115.302 16.3426C115.07 16.3394 114.841 16.3826 114.627 16.4697C114.412 16.5568 114.218 16.6859 114.054 16.8495C113.891 17.0131 113.762 17.2078 113.675 17.4221C113.588 17.6364 113.545 17.866 113.548 18.0972H113.548Z" fill="white"/>
<path d="M123.917 15.3365H126.97C128.295 15.3365 129.073 16.0079 129.073 17.0589C129.075 17.3924 128.962 17.7165 128.754 17.9769C128.545 18.2373 128.254 18.4184 127.928 18.4896V18.5954C128.324 18.6204 128.695 18.7964 128.964 19.0869C129.234 19.3775 129.381 19.7606 129.377 20.1569C129.377 21.3387 128.488 22.1099 127.001 22.1099H123.917V15.3365ZM125.242 16.3626V18.1165H126.567C127.374 18.1165 127.761 17.8058 127.761 17.233C127.761 16.7049 127.424 16.3626 126.715 16.3626L125.242 16.3626ZM125.242 19.0993V21.0839H126.827C127.617 21.0839 128.04 20.735 128.04 20.0945C128.04 19.4166 127.561 19.0993 126.659 19.0993L125.242 19.0993Z" fill="white"/>
</svg>
