<svg width="22" height="22" viewBox="0 0 22 22" fill="none" xmlns="http://www.w3.org/2000/svg">
<path d="M21 11C21 16.5228 16.5228 21 11 21C5.47715 21 1 16.5228 1 11C1 5.47715 5.47715 1 11 1C16.5228 1 21 5.47715 21 11Z" fill="white"/>
<path fill-rule="evenodd" clip-rule="evenodd" d="M11 1.75C5.89137 1.75 1.75 5.89137 1.75 11C1.75 16.1086 5.89137 20.25 11 20.25C16.1086 20.25 20.25 16.1086 20.25 11C20.25 5.89137 16.1086 1.75 11 1.75ZM0.25 11C0.25 5.06294 5.06294 0.25 11 0.25C16.9371 0.25 21.75 5.06294 21.75 11C21.75 16.9371 16.9371 21.75 11 21.75C5.06294 21.75 0.25 16.9371 0.25 11Z" fill="#4C75F2"/>
<path fill-rule="evenodd" clip-rule="evenodd" d="M1.25 8C1.25 7.58579 1.58579 7.25 2 7.25H20C20.4142 7.25 20.75 7.58579 20.75 8C20.75 8.41421 20.4142 8.75 20 8.75H2C1.58579 8.75 1.25 8.41421 1.25 8Z" fill="#4C75F2"/>
<path fill-rule="evenodd" clip-rule="evenodd" d="M1.25 14C1.25 13.5858 1.58579 13.25 2 13.25H20C20.4142 13.25 20.75 13.5858 20.75 14C20.75 14.4142 20.4142 14.75 20 14.75H2C1.58579 14.75 1.25 14.4142 1.25 14Z" fill="#4C75F2"/>
<path fill-rule="evenodd" clip-rule="evenodd" d="M9.60002 1.66836C10.2749 0.68052 11.7253 0.680535 12.4001 1.66839C14.5999 4.88836 15.7499 7.91791 15.7499 11C15.7499 14.0821 14.5999 17.1116 12.4001 20.3316C11.7253 21.3195 10.2749 21.3195 9.60003 20.3316C7.40014 17.1117 6.24999 14.0821 6.25 11C6.25001 7.91789 7.40018 4.88833 9.60002 1.66836ZM11.1616 2.51453C11.0823 2.39848 10.9179 2.39848 10.8386 2.51452C8.74606 5.5774 7.75001 8.31497 7.75 11C7.74999 13.685 8.74602 16.4226 10.8386 19.4855C10.9178 19.6015 11.0823 19.6015 11.1616 19.4855C13.254 16.4226 14.2499 13.685 14.2499 11C14.2499 8.31496 13.254 5.57739 11.1616 2.51453Z" fill="#4C75F2"/>
</svg>
