<svg width="168" height="47" viewBox="0 0 168 47" fill="none" xmlns="http://www.w3.org/2000/svg">
<path d="M31.5821 14.3881C31.5821 14.8734 31.4048 15.1161 31.0501 15.1161C31.0918 15.1161 30.8623 15.0094 30.3616 14.7958C30.0487 14.6405 29.2454 14.5628 27.9519 14.5628H26.5436C26.0429 14.5628 25.7299 14.6405 25.6047 14.7958C25.4796 14.9317 25.3753 15.2618 25.2918 15.786C25.2292 16.2908 25.1144 17.048 24.9475 18.0576C24.5512 21.0281 24.3529 24.2024 24.3529 27.5807C24.3529 30.0853 24.6346 31.7744 25.1979 32.6481C25.1979 32.9199 25.0936 33.0558 24.8849 33.0558C23.8001 33.0558 23.1116 32.4733 22.8195 31.3084C22.6943 30.8619 22.6317 29.8911 22.6317 28.3961C22.6317 26.2217 22.6734 24.5811 22.7569 23.4744C22.7777 22.9502 22.8925 21.727 23.1011 19.8049C23.2681 18.2711 23.3515 17.048 23.3515 16.1354C23.3515 15.0288 23.3619 14.757 23.3828 15.32C23.3619 15.0288 23.2263 14.8832 22.9759 14.8832C22.6004 14.8832 22.0371 14.9511 21.286 15.087C20.5558 15.2229 20.0029 15.2909 19.6274 15.2909C18.7928 15.2909 18.2504 14.9802 18 14.3589C18.2086 14.0289 19.763 13.6988 22.663 13.3688C25.0832 13.1164 26.8461 12.9902 27.9519 12.9902C30.3721 12.9902 31.5821 13.4561 31.5821 14.3881Z" fill="white"/>
<path d="M44.7232 25.7897C44.7232 26.4498 44.5042 27.0031 44.066 27.4497C43.6487 27.8768 43.1272 28.2263 42.5013 28.4981C41.8962 28.7505 41.2599 28.9349 40.5923 29.0514C39.9246 29.1485 39.3404 29.197 38.8397 29.197C38.0261 29.197 37.1081 29.1096 36.0857 28.9349C36.044 29.1096 35.971 29.2456 35.8667 29.3426C35.7624 29.4591 35.5746 29.5174 35.3034 29.5174C35.0321 29.5174 34.8235 29.4494 34.6774 29.3135C34.5523 29.1776 34.4897 28.9155 34.4897 28.5272C34.4897 28.4107 34.4375 28.3331 34.3332 28.2942C34.2497 28.236 34.1454 28.1874 34.0203 28.1486C33.916 28.0904 33.8116 28.0321 33.7073 27.9739C33.6238 27.8962 33.5821 27.7797 33.5821 27.6244C33.5821 27.4885 33.6134 27.3817 33.676 27.3041C33.7386 27.2264 33.8116 27.1682 33.8951 27.1293C33.9785 27.0711 34.0515 27.0226 34.1141 26.9837C34.1767 26.9449 34.208 26.8769 34.208 26.7799C34.208 26.5275 34.2185 26.2071 34.2393 25.8188C34.2602 25.4305 34.2706 25.0907 34.2706 24.7995C34.2706 24.5859 34.1767 24.45 33.989 24.3917C33.8221 24.3141 33.7386 24.1976 33.7386 24.0423C33.7386 23.887 33.8116 23.7705 33.9576 23.6928C34.1246 23.6151 34.208 23.4987 34.208 23.3433V17.81C34.208 17.6159 34.3332 17.4217 34.5836 17.2275C34.8548 17.014 35.126 16.9072 35.3972 16.9072C35.7311 16.9072 35.9397 16.946 36.0232 17.0237C36.1275 17.1013 36.1796 17.2275 36.1796 17.4023C36.1796 17.6547 36.1587 17.9459 36.117 18.276C36.0753 18.5866 36.0544 18.8972 36.0544 19.2079C36.3048 18.9555 36.5238 18.674 36.7116 18.3633C36.8994 18.0333 37.1185 17.7421 37.3688 17.4897C37.6192 17.2178 37.9322 16.9946 38.3077 16.8198C38.6832 16.6257 39.184 16.5286 39.8098 16.5286C40.3314 16.5286 40.78 16.616 41.1555 16.7907C41.552 16.9654 41.9588 17.1887 42.3761 17.4605C43.0437 17.9265 43.5131 18.3633 43.7844 18.7711C44.0556 19.1593 44.1912 19.6544 44.1912 20.2563C44.1912 20.7999 43.9826 21.3727 43.5653 21.9746C43.1689 22.5765 42.5952 23.0521 41.8441 23.4016C41.7188 23.4598 41.6563 23.5181 41.6563 23.5763C41.6563 23.6346 41.7084 23.6831 41.8127 23.7219C41.9171 23.7413 42.0631 23.7705 42.2509 23.8093C42.5638 23.887 42.8664 23.984 43.1585 24.1005C43.4505 24.217 43.7113 24.3626 43.9409 24.5374C44.1703 24.6927 44.3581 24.8771 44.5042 25.0907C44.6502 25.3043 44.7232 25.5373 44.7232 25.7897ZM42.4074 20.1689C42.4074 19.4312 42.1466 18.8778 41.625 18.509C41.1243 18.1207 40.488 17.9265 39.716 17.9265C39.1944 17.9265 38.7145 18.0624 38.2764 18.3342C37.8383 18.5866 37.4627 18.9167 37.1498 19.3244C36.8368 19.7321 36.5865 20.1883 36.3987 20.6931C36.2109 21.198 36.0962 21.6833 36.0544 22.1493C36.0336 22.3046 36.0232 22.4794 36.0232 22.6735C36.0232 22.8483 36.0232 23.023 36.0232 23.1977C36.0232 23.3336 36.1066 23.4016 36.2735 23.4016C37.734 23.3628 38.871 23.2851 39.6847 23.1686C40.4984 23.0327 41.1034 22.8386 41.4998 22.5862C41.9171 22.3338 42.1674 22.0134 42.2509 21.6251C42.3552 21.2174 42.4074 20.732 42.4074 20.1689ZM42.7516 25.7314C42.7516 25.5373 42.7203 25.3625 42.6577 25.2072C42.5952 25.0324 42.4386 24.8868 42.1883 24.7703C41.9588 24.6538 41.6145 24.5665 41.1555 24.5082C40.6966 24.45 40.0602 24.4209 39.2465 24.4209C39.0171 24.4209 38.798 24.4306 38.5894 24.45C38.3807 24.45 38.1616 24.4597 37.9322 24.4791C37.7235 24.4791 37.4836 24.4888 37.2124 24.5082C36.9411 24.5276 36.6386 24.5471 36.3048 24.5665C36.0962 24.5665 35.9918 24.6636 35.9918 24.8577C35.9918 25.2849 35.9918 25.7508 35.9918 26.2556C36.0127 26.741 36.0336 27.1487 36.0544 27.4788C36.4717 27.6729 36.8994 27.8186 37.3375 27.9156C37.7965 28.0127 38.2764 28.0612 38.7771 28.0612C39.5491 28.0612 40.1958 27.9933 40.7174 27.8574C41.239 27.7021 41.6459 27.5176 41.938 27.3041C42.23 27.0711 42.4386 26.8187 42.5638 26.5469C42.689 26.2751 42.7516 26.0032 42.7516 25.7314Z" fill="white"/>
<path d="M56.6438 23.2414C56.6438 24.9111 56.2474 26.3673 55.4546 27.6098C54.5157 29.1048 53.2117 29.8523 51.5427 29.8523C49.8527 29.8523 48.5905 29.2407 47.756 28.0176C47.0674 27.008 46.7232 25.6683 46.7232 23.9986C46.7232 22.3483 47.1196 20.7271 47.9124 19.1351C48.9139 17.1742 50.1865 16.1937 51.7304 16.1937C52.1269 16.1937 52.6902 16.4072 53.4204 16.8344C55.5693 18.077 56.6438 20.2126 56.6438 23.2414ZM55.1416 23.2123C55.1416 21.9697 54.9643 20.8533 54.6096 19.8631C54.088 18.4847 53.2847 17.7955 52.1999 17.7955C50.9481 17.7955 49.9675 18.5623 49.2581 20.0961C48.7156 21.2805 48.4444 22.5522 48.4444 23.9112C48.4444 25.1344 48.6322 26.1634 49.0077 26.9983C49.5502 28.1438 50.3952 28.7165 51.5427 28.7165C52.7945 28.7165 53.7437 28.0564 54.3905 26.7362C54.8913 25.7072 55.1416 24.5325 55.1416 23.2123Z" fill="white"/>
<path d="M58.6438 29.0951C58.6438 28.6874 58.8211 28.2797 59.1758 27.872C59.5514 27.4448 59.9895 27.0468 60.4902 26.6779C61.0118 26.309 61.5438 25.979 62.0863 25.6878C62.6496 25.3771 63.1086 25.1441 63.4633 24.9888C62.9834 24.8917 62.5035 24.7656 62.0237 24.6102C61.5647 24.4355 61.1578 24.2122 60.8032 23.9404C60.4485 23.6492 60.1564 23.29 59.9269 22.8628C59.7183 22.4357 59.614 21.9018 59.614 21.2611C59.614 20.6204 59.7704 20.0185 60.0834 19.4555C60.4172 18.873 60.8345 18.3682 61.3352 17.9411C61.8567 17.5139 62.441 17.1839 63.0877 16.9509C63.7553 16.6985 64.423 16.5723 65.0906 16.5723C65.341 16.5723 65.6017 16.5917 65.873 16.6306C66.1651 16.65 66.3946 16.6597 66.5615 16.6597C66.7075 16.6597 66.8432 16.6014 66.9683 16.4849C67.1144 16.3685 67.2604 16.3102 67.4065 16.3102C67.636 16.3102 67.8342 16.3685 68.0011 16.4849C68.1888 16.582 68.3036 16.6888 68.3453 16.8053C68.5748 16.8441 68.7626 16.9218 68.9086 17.0383C69.0755 17.1548 69.159 17.3295 69.159 17.5625C69.159 17.7178 69.1068 17.8149 69.0025 17.8537C68.9191 17.8925 68.8252 17.9216 68.7208 17.9411C68.6165 17.9605 68.5122 17.9896 68.4079 18.0284C68.3244 18.0478 68.2827 18.1158 68.2827 18.2323C68.2827 18.64 68.2932 19.1642 68.314 19.805C68.3557 20.4262 68.3975 21.0378 68.4392 21.6397C68.4809 22.2221 68.5226 22.7269 68.5644 23.1541C68.6061 23.5812 68.6374 23.7948 68.6583 23.7948C68.9295 23.8919 69.1068 24.0083 69.1903 24.1443C69.2737 24.2608 69.3155 24.3967 69.3155 24.552C69.3155 24.7656 69.2633 24.9306 69.159 25.0471C69.0755 25.1441 68.9712 25.2218 68.8461 25.28C68.7208 25.3383 68.6061 25.3868 68.5018 25.4257C68.4183 25.4645 68.3766 25.513 68.3766 25.5713C68.3766 26.2508 68.314 26.94 68.1888 27.639C68.0845 28.3185 67.9489 28.8525 67.782 29.2408C67.6985 29.4155 67.5734 29.532 67.4065 29.5902C67.2604 29.6679 67.0935 29.7067 66.9057 29.7067C66.8014 29.7067 66.6345 29.6776 66.405 29.6193C66.1755 29.5805 66.0607 29.4737 66.0607 29.299C66.0607 29.2019 66.1129 29.1049 66.2172 29.0078C66.3842 28.7748 66.5302 28.3477 66.6554 27.7264C66.8014 27.1051 66.8744 26.3867 66.8744 25.5713C66.8744 25.513 66.791 25.4645 66.6241 25.4257C66.478 25.3868 66.1755 25.3674 65.7165 25.3674C65.2366 25.4451 64.7464 25.6004 64.2456 25.8334C63.7658 26.0469 63.2859 26.309 62.8061 26.6197C62.3471 26.9303 61.909 27.2701 61.4916 27.639C61.0744 28.0079 60.6989 28.3865 60.365 28.7748C60.1981 28.969 60.0521 29.1728 59.9269 29.3864C59.8017 29.6193 59.5931 29.7358 59.301 29.7358C59.1341 29.7358 58.9776 29.6776 58.8316 29.5611C58.7064 29.464 58.6438 29.3087 58.6438 29.0951ZM61.3665 21.1155C61.3665 22.0862 61.7212 22.8046 62.4305 23.2706C63.1607 23.7365 64.11 24.0472 65.2784 24.2025C65.4244 24.2025 65.6226 24.1831 65.873 24.1443C66.1234 24.1054 66.4572 24.0181 66.8744 23.8821C66.9579 23.8627 66.9996 23.8045 66.9996 23.7074C66.9996 22.659 66.9475 21.6397 66.8432 20.6495C66.7388 19.6399 66.5928 18.6983 66.405 17.8246C66.0503 17.7663 65.6017 17.7372 65.0593 17.7372C64.5168 17.7372 64.0162 17.844 63.5572 18.0575C63.119 18.2517 62.7435 18.5138 62.4305 18.8439C62.1176 19.1545 61.8672 19.5137 61.6794 19.9214C61.4916 20.3292 61.3873 20.7272 61.3665 21.1155Z" fill="white"/>
<path d="M78.2628 18.3779C78.7844 19.4069 79.2539 20.2321 79.6713 20.8533C80.0886 21.4746 80.4539 21.96 80.7665 22.3095C81.0797 22.6589 81.3197 22.8919 81.4865 23.0084C81.6744 23.1249 81.7892 23.1832 81.8307 23.1832C82.0186 23.1832 82.1749 23.1055 82.3002 22.9502C82.9676 21.9988 83.646 20.9504 84.3344 19.8049C85.0228 18.6594 85.7218 17.2615 86.4313 15.6112C86.6813 15.0094 86.9002 14.524 87.0881 14.1551C87.276 13.7862 87.4428 13.5144 87.5892 13.3396C87.756 13.1455 87.9228 13.0193 88.0897 12.9611C88.2565 12.9028 88.4549 12.8737 88.6844 12.8737C88.8928 12.8737 89.0807 12.9222 89.2476 13.0193C89.4144 13.1164 89.4981 13.2523 89.4981 13.427C89.4771 13.6212 89.3834 13.8541 89.2165 14.126C89.0702 14.3784 88.9555 14.5919 88.8723 14.7667C88.5176 15.4462 88.1002 16.2131 87.6202 17.0674C87.1613 17.9216 86.6707 18.7953 86.1492 19.6884C85.6486 20.5815 85.1271 21.4843 84.5844 22.3968C84.0628 23.29 83.5623 24.1345 83.0823 24.9306C82.6234 25.7071 82.206 26.4061 81.8307 27.0274C81.4549 27.6487 81.1628 28.1341 80.9544 28.4836C80.5371 29.1631 80.0992 29.8038 79.6402 30.4056C79.2018 30.9881 78.7323 31.5026 78.2318 31.9491C77.7307 32.3763 77.1886 32.7161 76.6044 32.9685C76.0413 33.2209 75.4149 33.3471 74.7265 33.3471C74.4139 33.3471 74.0592 33.3082 73.6628 33.2306C73.2871 33.1529 72.9218 33.0364 72.5671 32.8811C72.2123 32.7258 71.9102 32.5219 71.6597 32.2695C71.4302 32.0171 71.3155 31.7259 71.3155 31.3958C71.3155 31.124 71.4092 30.9007 71.5971 30.726C71.7849 30.5318 72.0039 30.4347 72.2544 30.4347C72.5671 30.4347 72.8592 30.5901 73.1307 30.9007C73.4434 31.289 73.7044 31.5414 73.9128 31.6579C74.1218 31.7744 74.3407 31.8327 74.5702 31.8327C74.9665 31.8327 75.3523 31.7453 75.7281 31.5705C76.1034 31.3958 76.4581 31.1628 76.7923 30.8716C77.1465 30.5804 77.4807 30.2503 77.7934 29.8814C78.1065 29.5125 78.3986 29.1437 78.6697 28.7748C79.275 27.9593 79.7649 27.2409 80.1407 26.6196C80.5371 25.9984 80.7355 25.5324 80.7355 25.2218C80.7355 25.1053 80.7039 24.9694 80.6413 24.8141C80.2865 24.2316 79.8486 23.5812 79.3271 22.8628C78.8265 22.125 78.305 21.3678 77.7623 20.5912C77.2197 19.8146 76.6776 19.0477 76.1349 18.2905C75.6134 17.5333 75.1439 16.8441 74.7265 16.2228C74.3092 15.5821 73.9649 15.0385 73.6939 14.5919C73.4434 14.126 73.3181 13.8153 73.3181 13.66C73.3181 13.0193 73.6834 12.6989 74.4139 12.6989C74.5807 12.6989 74.8207 12.7475 75.1334 12.8446C75.4671 12.9222 75.7802 13.0387 76.0723 13.194C76.0934 13.4853 76.1765 13.8444 76.3228 14.2716C76.4897 14.6987 76.6776 15.155 76.886 15.6404C77.0944 16.1063 77.3239 16.582 77.5744 17.0674C77.8249 17.5528 78.0544 17.9896 78.2628 18.3779Z" fill="white"/>
<path d="M92.8439 16.1354C92.8439 15.3588 93.0939 14.7376 93.595 14.2716C94.1165 13.8056 94.7634 13.4464 95.5349 13.194C96.3071 12.9416 97.1207 12.7766 97.976 12.6989C98.8523 12.6213 99.6555 12.5825 100.386 12.5825C100.803 12.5825 101.074 12.6504 101.2 12.7863C101.345 12.9222 101.419 13.097 101.419 13.3105C101.419 13.6406 101.335 13.8639 101.168 13.9804C101.001 14.0774 100.772 14.126 100.48 14.126C100.292 14.126 100.146 14.1163 100.042 14.0968C99.9581 14.0774 99.8749 14.058 99.7913 14.0386C99.7076 13.9998 99.6139 13.9706 99.5097 13.9512C99.4055 13.9318 99.2592 13.9221 99.0713 13.9221C98.9044 13.9221 98.5707 13.9415 98.0702 13.9804C97.5692 13.9998 97.0476 14.0774 96.5055 14.2133C95.9839 14.3298 95.5144 14.5337 95.0971 14.8249C94.7007 15.0967 94.5023 15.485 94.5023 15.9898C94.5023 16.5529 94.7839 17.145 95.3471 17.7663C95.9107 18.3682 96.7555 19.038 97.8823 19.7758C98.3828 20.1059 98.8418 20.4748 99.2592 20.8825C99.6976 21.2902 100.073 21.7756 100.386 22.3386C100.72 22.8822 100.97 23.5327 101.137 24.2899C101.325 25.0276 101.419 25.9013 101.419 26.9109C101.419 27.804 101.304 28.6486 101.074 29.4446C100.865 30.2406 100.542 30.9396 100.104 31.5414C99.6871 32.1239 99.176 32.5899 98.5707 32.9393C97.9865 33.2888 97.3192 33.4636 96.5676 33.4636C95.0028 33.4636 93.7618 32.9976 92.8439 32.0656C91.9465 31.1337 91.4981 29.6679 91.4981 27.6681C91.4981 26.1343 91.686 24.882 92.0613 23.9113C92.4576 22.9405 92.8855 22.1736 93.3444 21.6105C93.8034 21.0281 94.2207 20.6204 94.596 20.3874C94.9928 20.135 95.1907 19.9603 95.1907 19.8632C95.1907 19.7079 95.0655 19.5428 94.8155 19.3681C94.565 19.1739 94.2418 18.8536 93.8449 18.407C93.5323 18.0575 93.2818 17.6789 93.0939 17.2712C92.9271 16.8441 92.8439 16.4655 92.8439 16.1354ZM93.2192 27.6972C93.2192 29.2116 93.4802 30.3571 94.0018 31.1337C94.5439 31.9103 95.285 32.2986 96.2234 32.2986C96.745 32.2986 97.2144 32.1724 97.6318 31.92C98.0702 31.6482 98.4455 31.2696 98.7586 30.7842C99.0713 30.2989 99.3113 29.7358 99.4781 29.0951C99.666 28.435 99.7597 27.7069 99.7597 26.9109C99.7597 26.076 99.6871 25.3383 99.5407 24.6976C99.4155 24.0569 99.2281 23.5035 98.9776 23.0376C98.7481 22.5522 98.4665 22.1445 98.1328 21.8144C97.7986 21.4649 97.4439 21.1737 97.0686 20.9407C96.7765 20.766 96.5576 20.6786 96.4113 20.6786C96.2655 20.6786 96.0149 20.8534 95.6602 21.2028C95.3055 21.5523 94.9507 22.0474 94.596 22.6881C94.2418 23.3094 93.9181 24.0472 93.626 24.9015C93.3549 25.7557 93.2192 26.6876 93.2192 27.6972Z" fill="white"/>
<path d="M113.339 23.2414C113.339 24.9111 112.942 26.3673 112.15 27.6098C111.211 29.1048 109.907 29.8523 108.238 29.8523C106.548 29.8523 105.285 29.2407 104.451 28.0176C103.763 27.008 103.419 25.6683 103.419 23.9986C103.419 22.3483 103.815 20.7271 104.608 19.1351C105.609 17.1742 106.882 16.1937 108.425 16.1937C108.822 16.1937 109.385 16.4072 110.115 16.8344C112.264 18.077 113.339 20.2126 113.339 23.2414ZM111.837 23.2123C111.837 21.9697 111.66 20.8533 111.305 19.8631C110.783 18.4847 109.98 17.7955 108.895 17.7955C107.643 17.7955 106.663 18.5623 105.953 20.0961C105.411 21.2805 105.14 22.5522 105.14 23.9112C105.14 25.1344 105.328 26.1634 105.703 26.9983C106.245 28.1438 107.09 28.7165 108.238 28.7165C109.49 28.7165 110.439 28.0564 111.085 26.7362C111.587 25.7072 111.837 24.5325 111.837 23.2123Z" fill="white"/>
<path d="M124.728 18.9895C124.728 20.9116 124.425 22.5231 123.82 23.8239C123.007 25.6295 121.723 26.5323 119.971 26.5323C118.823 26.5323 117.822 26.0372 116.967 25.047C116.82 25.1053 116.748 25.7072 116.748 26.8527C116.748 29.3766 116.883 31.1628 117.154 32.2112C117.175 32.3083 117.269 32.5413 117.436 32.9102C117.624 33.2791 117.718 33.5024 117.718 33.58C117.718 33.8907 117.509 34.046 117.092 34.046C116.591 34.046 116.236 33.978 116.028 33.8421C115.84 33.7062 115.673 33.2597 115.527 32.5025C115.402 31.8618 115.339 31.357 115.339 30.9881V23.5909C115.339 22.9114 115.381 21.9989 115.464 20.8533C115.548 19.5137 115.6 18.6012 115.621 18.1158C115.642 17.5916 115.642 16.9121 115.621 16.0772C115.6 15.0093 115.59 14.3201 115.59 14.0095C115.59 12.6698 115.965 12 116.716 12C117.092 12 117.279 12.1262 117.279 12.3786C117.279 12.864 117.238 13.5726 117.154 14.5046C117.071 15.4365 117.029 16.1354 117.029 16.6014H117.154C117.634 15.9995 118.114 15.3879 118.594 14.7667C119.157 14.0871 119.856 13.7474 120.691 13.7474C122.089 13.7474 123.142 14.3298 123.851 15.4947C124.435 16.4267 124.728 17.5916 124.728 18.9895ZM123.194 19.106C123.194 18.077 123.08 17.1936 122.85 16.4558C122.495 15.3685 121.921 14.8249 121.129 14.8249C120.544 14.8249 119.835 15.3006 119.001 16.2519C118.27 17.0868 117.759 17.9411 117.467 18.8147C117.238 19.4748 117.05 20.4456 116.904 21.727C116.8 22.659 116.748 23.1055 116.748 23.0667C116.748 23.1249 116.841 23.222 117.029 23.3579C117.154 23.4356 117.279 23.5229 117.404 23.62C117.739 24.0665 118.072 24.5228 118.406 24.9888C118.761 25.4353 119.282 25.6586 119.971 25.6586C121.118 25.6586 121.984 24.7849 122.568 23.0376C122.985 21.795 123.194 20.4844 123.194 19.106Z" fill="white"/>
<path d="M137.462 29.6776C136.92 30.0659 136.502 30.26 136.21 30.26C135.981 30.26 135.689 30.1338 135.334 29.8814C134.979 29.6484 134.604 29.3475 134.207 28.9786C133.811 28.5903 133.404 28.1826 132.987 27.7555C132.57 27.3089 132.183 26.8915 131.829 26.5032C131.495 26.0955 131.203 25.746 130.952 25.4548C130.723 25.1635 130.577 24.9888 130.514 24.9305C129.951 24.3869 129.471 23.9986 129.075 23.7656C128.783 23.7656 128.605 23.9307 128.543 24.2607C128.501 24.5908 128.48 24.9305 128.48 25.28C128.48 25.6877 128.48 26.0858 128.48 26.4741C128.48 26.843 128.491 27.1342 128.511 27.3478C128.532 27.5225 128.605 27.7749 128.731 28.1049C128.856 28.4156 128.918 28.6583 128.918 28.833C128.918 28.9495 128.845 29.0563 128.699 29.1533C128.553 29.2698 128.376 29.3281 128.167 29.3281C127.75 29.3281 127.437 29.2019 127.229 28.9495C127.02 28.6971 126.915 28.2311 126.915 27.5516C126.915 26.3673 126.915 25.348 126.915 24.4937C126.937 23.62 126.947 22.8628 126.947 22.2221C126.968 21.5814 126.978 21.0378 126.978 20.5912C126.999 20.1253 127.009 19.7273 127.009 19.3972C127.009 19.1836 127.009 19.0089 127.009 18.873C127.009 18.7371 126.999 18.6109 126.978 18.4944C126.957 18.3779 126.937 18.2614 126.915 18.1449C126.894 18.0285 126.863 17.8828 126.822 17.7081C126.759 17.4557 126.728 17.2324 126.728 17.0383C126.728 16.8441 126.884 16.6499 127.197 16.4558C127.531 16.2616 127.823 16.1645 128.073 16.1645C128.261 16.1645 128.459 16.2228 128.668 16.3393C128.898 16.4364 129.012 16.5626 129.012 16.7179C129.012 16.7761 128.95 17.0188 128.824 17.446C128.699 17.8537 128.637 18.4944 128.637 19.3681C128.637 19.9699 128.616 20.465 128.574 20.8533C128.532 21.2416 128.511 21.4843 128.511 21.5814C128.511 21.6785 128.564 21.727 128.668 21.727C128.898 21.5717 129.2 21.3581 129.575 21.0863C129.951 20.7951 130.358 20.465 130.796 20.0961C131.255 19.7078 131.724 19.2904 132.204 18.8439C132.705 18.3973 133.174 17.9411 133.613 17.4751C134.176 16.8732 134.635 16.4461 134.99 16.1937C135.365 15.9219 135.605 15.7859 135.709 15.7859C136.001 15.7859 136.241 15.883 136.429 16.0772C136.617 16.2713 136.711 16.5237 136.711 16.8344C136.711 16.9897 136.7 17.0965 136.68 17.1547C136.283 17.4071 135.793 17.7566 135.209 18.2032C134.624 18.6303 133.947 19.1545 133.174 19.7758C131.401 21.2319 130.514 22.193 130.514 22.659C130.514 22.7561 130.629 22.9599 130.859 23.2706C131.109 23.5618 131.412 23.9112 131.766 24.319C132.142 24.7073 132.538 25.115 132.955 25.5421C133.373 25.9693 133.759 26.3673 134.113 26.7362C134.76 27.4157 135.365 27.969 135.929 28.3962C136.492 28.8233 137.003 29.1436 137.462 29.3572C137.524 29.396 137.556 29.4543 137.556 29.5319C137.556 29.5708 137.524 29.6193 137.462 29.6776Z" fill="white"/>
<path d="M149.289 29.43C149.289 29.7018 149.059 29.8377 148.6 29.8377C148.1 29.8377 147.797 29.6436 147.693 29.2553C147.672 29.197 147.661 28.8184 147.661 28.1195C147.661 27.9254 147.63 27.77 147.568 27.6535C146.399 28.4496 145.137 28.8476 143.781 28.8476C142.842 28.8476 141.934 28.6049 141.058 28.1195C140.057 27.5759 139.556 26.8963 139.556 26.0809C139.556 25.2849 140.15 24.5083 141.34 23.7511C142.424 23.0521 143.426 22.7026 144.344 22.7026H147.442C147.568 22.5862 147.63 22.3823 147.63 22.091C147.63 20.7902 147.516 19.8098 147.286 19.1497C146.91 18.043 146.17 17.4896 145.064 17.4896C144.271 17.4896 143.541 17.9556 142.873 18.8876C142.268 19.7418 141.965 20.5573 141.965 21.3339C141.965 21.3727 141.965 21.4309 141.965 21.5086C141.965 21.5862 141.965 21.6348 141.965 21.6542C141.965 21.8095 141.882 21.8872 141.715 21.8872C141.507 21.8872 141.277 21.7707 141.027 21.5377C140.777 21.3047 140.651 21.1009 140.651 20.9261C140.651 20.3825 140.829 19.703 141.183 18.8876C141.538 18.0527 141.924 17.4217 142.341 16.9946C142.863 16.4704 143.51 16.2083 144.281 16.2083C145.471 16.2083 146.566 16.5577 147.568 17.2567C148.631 18.0139 149.174 18.9264 149.195 19.9942L149.289 29.43ZM147.63 24.7995C147.63 24.0229 146.983 23.6346 145.69 23.6346C144.668 23.6346 143.77 23.7996 142.998 24.1297C142.018 24.5568 141.528 25.1975 141.528 26.0517C141.528 26.576 141.788 26.9837 142.31 27.2749C142.748 27.5273 143.27 27.6535 143.874 27.6535C144.772 27.6535 145.617 27.3817 146.41 26.8381C147.223 26.2944 147.63 25.6149 147.63 24.7995Z" fill="white"/>
</svg>
