<svg width="132" height="29" viewBox="0 0 132 29" fill="none" xmlns="http://www.w3.org/2000/svg">
<path d="M13.5821 2.12599C13.5821 2.61136 13.4048 2.85406 13.0501 2.85406C13.0918 2.85406 12.8623 2.74727 12.3616 2.53371C12.0487 2.37838 11.2454 2.30072 9.9519 2.30072H8.54358C8.0429 2.30072 7.7299 2.37838 7.60474 2.53371C7.47958 2.66961 7.37526 2.99967 7.29179 3.52388C7.22921 4.02867 7.11442 4.78587 6.94753 5.79547C6.55116 8.766 6.35295 11.9404 6.35295 15.3186C6.35295 17.8232 6.63458 19.5123 7.1979 20.386C7.1979 20.6578 7.09358 20.7937 6.88495 20.7937C5.80005 20.7937 5.11155 20.2113 4.81946 19.0464C4.69428 18.5998 4.6317 17.629 4.6317 16.1341C4.6317 13.9596 4.67342 12.319 4.75687 11.2123C4.77774 10.6881 4.89249 9.46492 5.10112 7.54284C5.26805 6.00905 5.35147 4.78587 5.35147 3.87335C5.35147 2.76668 5.3619 2.49488 5.38279 3.05791C5.3619 2.76669 5.2263 2.62107 4.97594 2.62107C4.6004 2.62107 4.03709 2.68902 3.286 2.82493C2.55577 2.96084 2.0029 3.02879 1.62735 3.02879C0.792811 3.02879 0.250362 2.71815 0 2.09686C0.208635 1.7668 1.76296 1.43674 4.66299 1.10668C7.08316 0.854286 8.84611 0.728088 9.9519 0.728088C12.3721 0.728088 13.5821 1.19406 13.5821 2.12599Z" fill="#272727"/>
<path d="M26.3564 17.0369C26.3564 17.697 26.1374 18.2503 25.6992 18.6969C25.282 19.124 24.7604 19.4735 24.1345 19.7453C23.5294 19.9977 22.8931 20.1821 22.2255 20.2986C21.5579 20.3957 20.9737 20.4442 20.4729 20.4442C19.6593 20.4442 18.7413 20.3569 17.719 20.1821C17.6772 20.3569 17.6042 20.4928 17.4999 20.5898C17.3956 20.7063 17.2078 20.7646 16.9366 20.7646C16.6653 20.7646 16.4567 20.6966 16.3106 20.5607C16.1855 20.4248 16.1229 20.1627 16.1229 19.7744C16.1229 19.6579 16.0708 19.5803 15.9664 19.5414C15.883 19.4832 15.7786 19.4347 15.6535 19.3958C15.5492 19.3376 15.4449 19.2793 15.3405 19.2211C15.2571 19.1434 15.2153 19.0269 15.2153 18.8716C15.2153 18.7357 15.2466 18.6289 15.3092 18.5513C15.3718 18.4736 15.4449 18.4154 15.5283 18.3765C15.6118 18.3183 15.6848 18.2698 15.7473 18.2309C15.81 18.1921 15.8412 18.1241 15.8412 18.0271C15.8412 17.7747 15.8517 17.4543 15.8725 17.066C15.8934 16.6777 15.9039 16.3379 15.9039 16.0467C15.9039 15.8331 15.81 15.6972 15.6222 15.639C15.4553 15.5613 15.3718 15.4448 15.3718 15.2895C15.3718 15.1342 15.4449 15.0177 15.5909 14.94C15.7578 14.8624 15.8412 14.7459 15.8412 14.5906V9.05719C15.8412 8.86307 15.9664 8.66889 16.2168 8.47472C16.488 8.26119 16.7592 8.1544 17.0304 8.1544C17.3643 8.1544 17.5729 8.19321 17.6564 8.27089C17.7607 8.34852 17.8129 8.47472 17.8129 8.64949C17.8129 8.90188 17.792 9.19309 17.7502 9.52317C17.7085 9.83379 17.6876 10.1445 17.6876 10.4551C17.938 10.2027 18.1571 9.92117 18.3449 9.61055C18.5327 9.28048 18.7517 8.98927 19.0021 8.73687C19.2524 8.46502 19.5654 8.24178 19.9409 8.06701C20.3164 7.87289 20.8172 7.7758 21.4431 7.7758C21.9647 7.7758 22.4132 7.86319 22.7888 8.0379C23.1852 8.21262 23.592 8.4359 24.0093 8.70771C24.6769 9.17369 25.1463 9.61055 25.4176 10.0183C25.6888 10.4066 25.8244 10.9016 25.8244 11.5035C25.8244 12.0471 25.6158 12.6199 25.1985 13.2218C24.8021 13.8237 24.2284 14.2993 23.4773 14.6488C23.3521 14.707 23.2895 14.7653 23.2895 14.8235C23.2895 14.8818 23.3417 14.9303 23.446 14.9691C23.5503 14.9886 23.6963 15.0177 23.8841 15.0565C24.1971 15.1342 24.4996 15.2312 24.7917 15.3477C25.0838 15.4642 25.3446 15.6098 25.5741 15.7846C25.8035 15.9399 25.9913 16.1243 26.1374 16.3379C26.2834 16.5515 26.3564 16.7845 26.3564 17.0369ZM24.0406 11.4161C24.0406 10.6784 23.7798 10.125 23.2582 9.75616C22.7575 9.36786 22.1212 9.17369 21.3492 9.17369C20.8276 9.17369 20.3478 9.30959 19.9097 9.58139C19.4715 9.83379 19.096 10.1639 18.783 10.5716C18.47 10.9793 18.2197 11.4355 18.0319 11.9403C17.8441 12.4452 17.7294 12.9305 17.6876 13.3965C17.6668 13.5518 17.6564 13.7266 17.6564 13.9207C17.6564 14.0955 17.6564 14.2702 17.6564 14.4449C17.6564 14.5809 17.7398 14.6488 17.9068 14.6488C19.3672 14.61 20.5042 14.5323 21.3179 14.4158C22.1316 14.2799 22.7367 14.0858 23.133 13.8334C23.5503 13.581 23.8007 13.2606 23.8841 12.8723C23.9884 12.4646 24.0406 11.9792 24.0406 11.4161ZM24.3849 16.9786C24.3849 16.7845 24.3535 16.6097 24.291 16.4544C24.2284 16.2796 24.0719 16.134 23.8215 16.0175C23.592 15.9011 23.2478 15.8137 22.7888 15.7554C22.3298 15.6972 21.6934 15.6681 20.8798 15.6681C20.6503 15.6681 20.4312 15.6778 20.2226 15.6972C20.014 15.6972 19.7949 15.7069 19.5654 15.7263C19.3568 15.7263 19.1168 15.736 18.8456 15.7554C18.5743 15.7749 18.2719 15.7943 17.938 15.8137C17.7294 15.8137 17.6251 15.9108 17.6251 16.1049C17.6251 16.5321 17.6251 16.998 17.6251 17.5028C17.6459 17.9882 17.6668 18.396 17.6876 18.726C18.1049 18.9202 18.5326 19.0658 18.9708 19.1628C19.4298 19.2599 19.9096 19.3085 20.4103 19.3085C21.1823 19.3085 21.8291 19.2405 22.3507 19.1046C22.8722 18.9493 23.2791 18.7648 23.5712 18.5513C23.8632 18.3183 24.0719 18.0659 24.1971 17.7941C24.3222 17.5223 24.3849 17.2504 24.3849 16.9786Z" fill="#272727"/>
<path d="M37.6481 14.5615C37.6481 16.2312 37.2517 17.6873 36.4589 18.9299C35.52 20.4249 34.2161 21.1723 32.547 21.1723C30.8571 21.1723 29.5948 20.5608 28.7603 19.3376C28.0717 18.328 27.7275 16.9883 27.7275 15.3187C27.7275 13.6683 28.1239 12.0472 28.9167 10.4551C29.9182 8.49421 31.1909 7.51373 32.7347 7.51373C33.1312 7.51373 33.6945 7.72726 34.4247 8.15443C36.5736 9.397 37.6481 11.5327 37.6481 14.5615ZM36.146 14.5323C36.146 13.2897 35.9686 12.1734 35.6139 11.1832C35.0923 9.80471 34.2891 9.11549 33.2042 9.11549C31.9524 9.11549 30.9718 9.88239 30.2624 11.4162C29.72 12.6005 29.4488 13.8722 29.4488 15.2313C29.4488 16.4544 29.6365 17.4834 30.0121 18.3183C30.5545 19.4638 31.3995 20.0366 32.547 20.0366C33.7988 20.0366 34.7481 19.3765 35.3949 18.0562C35.8956 17.0272 36.146 15.8526 36.146 14.5323Z" fill="#272727"/>
<path d="M38.561 20.1239C38.561 19.7161 38.7384 19.3084 39.093 18.9007C39.4686 18.4736 39.9067 18.0756 40.4075 17.7067C40.929 17.3378 41.461 17.0077 42.0035 16.7165C42.5668 16.4059 43.0258 16.1729 43.3805 16.0175C42.9006 15.9205 42.4208 15.7943 41.9409 15.6389C41.4819 15.4642 41.0751 15.2409 40.7204 14.9691C40.3657 14.6779 40.0736 14.3187 39.8441 13.8916C39.6355 13.4645 39.5312 12.9305 39.5312 12.2898C39.5312 11.6491 39.6877 11.0472 40.0006 10.4842C40.3344 9.90175 40.7517 9.39696 41.2524 8.9698C41.774 8.54269 42.3582 8.21261 43.0049 7.97962C43.6726 7.72723 44.3402 7.60103 45.0078 7.60103C45.2582 7.60103 45.519 7.62049 45.7902 7.6593C46.0823 7.67871 46.3118 7.68841 46.4787 7.68841C46.6248 7.68841 46.7604 7.63019 46.8856 7.51369C47.0316 7.3972 47.1777 7.33893 47.3237 7.33893C47.5532 7.33893 47.7514 7.3972 47.9183 7.51369C48.1061 7.61073 48.2208 7.71752 48.2626 7.83402C48.492 7.87288 48.6798 7.95051 48.8259 8.06701C48.9928 8.1835 49.0762 8.35827 49.0762 8.59121C49.0762 8.74656 49.0241 8.8436 48.9198 8.88247C48.8363 8.92128 48.7424 8.95039 48.6381 8.9698C48.5338 8.98926 48.4295 9.01837 48.3251 9.05718C48.2417 9.07659 48.2 9.14457 48.2 9.26106C48.2 9.66877 48.2104 10.193 48.2312 10.8337C48.273 11.455 48.3147 12.0665 48.3565 12.6684C48.3981 13.2509 48.4399 13.7557 48.4816 14.1828C48.5233 14.6099 48.5547 14.8235 48.5755 14.8235C48.8467 14.9206 49.0241 15.0371 49.1075 15.173C49.191 15.2895 49.2327 15.4254 49.2327 15.5807C49.2327 15.7943 49.1806 15.9593 49.0762 16.0758C48.9928 16.1729 48.8884 16.2505 48.7633 16.3088C48.6381 16.367 48.5233 16.4156 48.419 16.4544C48.3356 16.4932 48.2939 16.5418 48.2939 16.6C48.2939 17.2796 48.2312 17.9688 48.1061 18.6677C48.0018 19.3473 47.8661 19.8812 47.6992 20.2695C47.6158 20.4442 47.4906 20.5607 47.3237 20.619C47.1777 20.6966 47.0107 20.7354 46.823 20.7354C46.7187 20.7354 46.5517 20.7063 46.3222 20.6481C46.0928 20.6092 45.978 20.5025 45.978 20.3277C45.978 20.2306 46.0301 20.1336 46.1345 20.0365C46.3014 19.8035 46.4474 19.3764 46.5726 18.7551C46.7187 18.1338 46.7917 17.4155 46.7917 16.6C46.7917 16.5418 46.7082 16.4932 46.5413 16.4544C46.3952 16.4156 46.0928 16.3961 45.6338 16.3961C45.1539 16.4738 44.6636 16.6291 44.1629 16.8621C43.683 17.0757 43.2031 17.3378 42.7233 17.6485C42.2643 17.9591 41.8262 18.2989 41.4089 18.6677C40.9916 19.0366 40.6161 19.4152 40.2822 19.8035C40.1154 19.9977 39.9693 20.2015 39.8441 20.4151C39.7189 20.6481 39.5103 20.7646 39.2182 20.7646C39.0514 20.7646 38.8948 20.7063 38.7488 20.5898C38.6236 20.4928 38.561 20.3374 38.561 20.1239ZM41.2837 12.1442C41.2837 13.115 41.6384 13.8334 42.3478 14.2993C43.078 14.7653 44.0272 15.0759 45.1956 15.2312C45.3417 15.2312 45.5399 15.2118 45.7902 15.173C46.0406 15.1341 46.3744 15.0468 46.7917 14.9109C46.8751 14.8915 46.9169 14.8332 46.9169 14.7361C46.9169 13.6877 46.8647 12.6684 46.7604 11.6782C46.6561 10.6686 46.51 9.72704 46.3222 8.85336C45.9676 8.79508 45.519 8.76597 44.9766 8.76597C44.4341 8.76597 43.9334 8.87276 43.4744 9.08629C43.0362 9.28047 42.6607 9.54257 42.3478 9.87264C42.0348 10.1833 41.7845 10.5424 41.5967 10.9502C41.4089 11.3579 41.3046 11.7559 41.2837 12.1442Z" fill="#272727"/>
<path d="M63.2916 5.67896C63.8132 6.70795 64.2827 7.53312 64.7 8.1544C65.1174 8.77569 65.4827 9.26108 65.7953 9.61056C66.1085 9.95999 66.3484 10.193 66.5153 10.3095C66.7032 10.426 66.8179 10.4842 66.8595 10.4842C67.0474 10.4842 67.2037 10.4066 67.329 10.2513C67.9963 9.29989 68.6748 8.25149 69.3632 7.10596C70.0516 5.96047 70.7506 4.56258 71.46 2.91228C71.71 2.31041 71.929 1.82503 72.1169 1.45614C72.3048 1.08725 72.4716 0.81544 72.6179 0.640704C72.7848 0.44655 72.9516 0.320351 73.1185 0.262106C73.2853 0.20386 73.4837 0.174737 73.7132 0.174737C73.9216 0.174737 74.1095 0.223275 74.2763 0.320351C74.4432 0.417427 74.5269 0.553336 74.5269 0.728072C74.5058 0.922221 74.4121 1.1552 74.2453 1.42702C74.099 1.67942 73.9842 1.89299 73.9011 2.06772C73.5463 2.74726 73.129 3.51416 72.649 4.36843C72.19 5.22269 71.6995 6.09637 71.1779 6.98946C70.6774 7.8826 70.1558 8.78539 69.6132 9.69789C69.0916 10.591 68.5911 11.4356 68.1111 12.2316C67.6521 13.0082 67.2348 13.7072 66.8595 14.3285C66.4837 14.9497 66.1916 15.4351 65.9832 15.7846C65.5658 16.4641 65.1279 17.1048 64.669 17.7067C64.2306 18.2892 63.7611 18.8037 63.2606 19.2502C62.7595 19.6773 62.2174 20.0171 61.6332 20.2695C61.07 20.5219 60.4437 20.6481 59.7553 20.6481C59.4427 20.6481 59.0879 20.6092 58.6916 20.5316C58.3158 20.4539 57.9506 20.3374 57.5958 20.1821C57.2411 20.0268 56.939 19.8229 56.6884 19.5705C56.459 19.3182 56.3442 19.0269 56.3442 18.6969C56.3442 18.4251 56.4379 18.2018 56.6258 18.0271C56.8137 17.8329 57.0327 17.7358 57.2832 17.7358C57.5958 17.7358 57.8879 17.8911 58.1595 18.2018C58.4721 18.5901 58.7332 18.8425 58.9416 18.959C59.1506 19.0755 59.3695 19.1337 59.599 19.1337C59.9953 19.1337 60.3811 19.0464 60.7569 18.8716C61.1321 18.6969 61.4869 18.4639 61.8211 18.1727C62.1753 17.8814 62.5095 17.5514 62.8221 17.1825C63.1353 16.8136 63.4274 16.4447 63.6984 16.0758C64.3037 15.2604 64.7937 14.542 65.1695 13.9207C65.5658 13.2994 65.7642 12.8335 65.7642 12.5228C65.7642 12.4063 65.7327 12.2704 65.67 12.1151C65.3153 11.5326 64.8774 10.8822 64.3558 10.1639C63.8553 9.42609 63.3337 8.6689 62.7911 7.8923C62.2484 7.11566 61.7063 6.34877 61.1637 5.59158C60.6421 4.83439 60.1727 4.14515 59.7553 3.52387C59.3379 2.88316 58.9937 2.33954 58.7227 1.89299C58.4721 1.42702 58.3469 1.11637 58.3469 0.961056C58.3469 0.320351 58.7121 0 59.4427 0C59.6095 0 59.8495 0.0485376 60.1621 0.145613C60.4958 0.223275 60.809 0.339767 61.1011 0.495088C61.1221 0.786319 61.2053 1.1455 61.3516 1.57263C61.5184 1.99977 61.7063 2.45603 61.9148 2.94141C62.1232 3.40737 62.3527 3.88305 62.6032 4.36843C62.8537 4.85381 63.0832 5.29066 63.2916 5.67896Z" fill="#272727"/>
<path d="M76.7662 3.93155C76.7662 3.15494 77.0162 2.53365 77.5173 2.06768C78.0388 1.60171 78.6857 1.24253 79.4572 0.990135C80.2294 0.737739 81.043 0.572706 81.8983 0.495047C82.7746 0.417386 83.5778 0.378555 84.3083 0.378555C84.7257 0.378555 84.9967 0.446508 85.122 0.582415C85.2678 0.718322 85.3409 0.893058 85.3409 1.10662C85.3409 1.43669 85.2572 1.65996 85.0904 1.77645C84.9236 1.87353 84.6941 1.92207 84.402 1.92207C84.2141 1.92207 84.0683 1.91236 83.9641 1.89294C83.8804 1.87353 83.7972 1.85411 83.7136 1.8347C83.6299 1.79587 83.5362 1.76675 83.432 1.74733C83.3278 1.72792 83.1815 1.71821 82.9936 1.71821C82.8267 1.71821 82.493 1.73762 81.9925 1.77645C81.4915 1.79587 80.9699 1.87353 80.4278 2.00943C79.9062 2.12593 79.4367 2.32979 79.0194 2.62102C78.623 2.89283 78.4246 3.28113 78.4246 3.78593C78.4246 4.34897 78.7062 4.94114 79.2694 5.56243C79.833 6.16431 80.6778 6.83411 81.8046 7.57189C82.3051 7.90197 82.7641 8.27086 83.1815 8.67857C83.6199 9.08627 83.9951 9.57166 84.3083 10.1347C84.642 10.6783 84.8925 11.3288 85.0594 12.086C85.2472 12.8237 85.3409 13.6974 85.3409 14.707C85.3409 15.6001 85.2262 16.4447 84.9967 17.2407C84.7878 18.0367 84.4646 18.7357 84.0267 19.3375C83.6094 19.92 83.0983 20.386 82.493 20.7354C81.9088 21.0849 81.2415 21.2597 80.4899 21.2597C78.9251 21.2597 77.6841 20.7937 76.7662 19.8617C75.8688 18.9298 75.4204 17.464 75.4204 15.4642C75.4204 13.9304 75.6083 12.6781 75.9836 11.7074C76.3799 10.7366 76.8078 9.96971 77.2667 9.40664C77.7257 8.82417 78.143 8.41647 78.5183 8.18348C78.9151 7.93108 79.113 7.75636 79.113 7.65928C79.113 7.50397 78.9878 7.33891 78.7378 7.16419C78.4873 6.97002 78.1641 6.64969 77.7673 6.20312C77.4546 5.85364 77.2041 5.47505 77.0162 5.06734C76.8494 4.6402 76.7662 4.2616 76.7662 3.93155ZM77.1415 15.4933C77.1415 17.0077 77.4025 18.1532 77.9241 18.9298C78.4662 19.7064 79.2073 20.0947 80.1457 20.0947C80.6673 20.0947 81.1367 19.9685 81.5541 19.7161C81.9925 19.4443 82.3678 19.0657 82.6809 18.5803C82.9936 18.095 83.2336 17.5319 83.4004 16.8912C83.5883 16.2311 83.682 15.503 83.682 14.707C83.682 13.8721 83.6094 13.1344 83.463 12.4937C83.3378 11.853 83.1504 11.2996 82.8999 10.8337C82.6704 10.3483 82.3888 9.94055 82.0551 9.61052C81.7209 9.26104 81.3662 8.96978 80.9909 8.73684C80.6988 8.56207 80.4799 8.47469 80.3336 8.47469C80.1878 8.47469 79.9373 8.64946 79.5825 8.99894C79.2278 9.34842 78.873 9.84351 78.5183 10.4842C78.1641 11.1055 77.8404 11.8433 77.5483 12.6975C77.2773 13.5518 77.1415 14.4837 77.1415 15.4933Z" fill="#272727"/>
<path d="M96.8653 14.5615C96.8653 16.2312 96.4685 17.6873 95.6759 18.9299C94.7369 20.4249 93.4332 21.1723 91.7643 21.1723C90.0743 21.1723 88.8117 20.5608 87.9775 19.3376C87.289 18.328 86.9448 16.9883 86.9448 15.3187C86.9448 13.6683 87.3411 12.0472 88.1338 10.4551C89.1353 8.49421 90.408 7.51373 91.9517 7.51373C92.348 7.51373 92.9117 7.72726 93.6417 8.15443C95.7906 9.397 96.8653 11.5327 96.8653 14.5615ZM95.3632 14.5323C95.3632 13.2897 95.1859 12.1734 94.8311 11.1832C94.3096 9.80471 93.5064 9.11549 92.4211 9.11549C91.1696 9.11549 90.189 9.88239 89.4796 11.4162C88.9369 12.6005 88.6659 13.8722 88.6659 15.2313C88.6659 16.4544 88.8538 17.4834 89.229 18.3183C89.7717 19.4638 90.6164 20.0366 91.7643 20.0366C93.0159 20.0366 93.9653 19.3765 94.6117 18.0562C95.1127 17.0272 95.3632 15.8526 95.3632 14.5323Z" fill="#272727"/>
<path d="M107.824 13.1635C107.824 15.0856 107.521 16.6971 106.917 17.9979C106.103 19.8035 104.82 20.7063 103.067 20.7063C101.92 20.7063 100.918 20.2112 100.063 19.221C99.9166 19.2793 99.844 19.8812 99.844 21.0267C99.844 23.5506 99.9792 25.3369 100.251 26.3853C100.271 26.4824 100.366 26.7153 100.532 27.0842C100.72 27.4531 100.814 27.6764 100.814 27.754C100.814 28.0647 100.606 28.22 100.188 28.22C99.6871 28.22 99.3324 28.152 99.124 28.0161C98.9361 27.8802 98.7692 27.4337 98.6234 26.6765C98.4982 26.0358 98.4355 25.531 98.4355 25.1621V17.7649C98.4355 17.0854 98.4771 16.1729 98.5608 15.0273C98.644 13.6877 98.6961 12.7752 98.7171 12.2898C98.7382 11.7656 98.7382 11.0861 98.7171 10.2512C98.6961 9.18337 98.6861 8.49416 98.6861 8.18349C98.6861 6.84383 99.0613 6.17403 99.8124 6.17403C100.188 6.17403 100.376 6.30022 100.376 6.55262C100.376 7.03801 100.334 7.74667 100.251 8.67858C100.167 9.61053 100.126 10.3095 100.126 10.7754H100.251C100.73 10.1735 101.21 9.56197 101.69 8.94068C102.253 8.26117 102.952 7.92139 103.787 7.92139C105.185 7.92139 106.238 8.50386 106.948 9.66876C107.532 10.6007 107.824 11.7656 107.824 13.1635ZM106.291 13.28C106.291 12.251 106.176 11.3676 105.947 10.6298C105.592 9.54256 105.018 8.99895 104.225 8.99895C103.641 8.99895 102.931 9.47463 102.097 10.4259C101.367 11.2608 100.856 12.1151 100.563 12.9888C100.334 13.6489 100.146 14.6196 100 15.901C99.8961 16.833 99.844 17.2796 99.844 17.2407C99.844 17.299 99.9377 17.396 100.126 17.532C100.251 17.6096 100.376 17.697 100.501 17.7941C100.835 18.2406 101.169 18.6968 101.502 19.1628C101.857 19.6093 102.379 19.8326 103.067 19.8326C104.214 19.8326 105.08 18.9589 105.664 17.2116C106.082 15.969 106.291 14.6585 106.291 13.28Z" fill="#272727"/>
<path d="M120.122 20.9976C119.58 21.3859 119.163 21.58 118.871 21.58C118.641 21.58 118.349 21.4538 117.995 21.2014C117.64 20.9684 117.265 20.6675 116.868 20.2986C116.471 19.9103 116.065 19.5026 115.647 19.0754C115.23 18.6289 114.844 18.2115 114.489 17.8232C114.156 17.4155 113.863 17.066 113.613 16.7748C113.383 16.4835 113.238 16.3088 113.175 16.2505C112.612 15.7069 112.132 15.3186 111.736 15.0856C111.443 15.0856 111.266 15.2506 111.203 15.5807C111.162 15.9108 111.141 16.2505 111.141 16.6C111.141 17.0077 111.141 17.4058 111.141 17.7941C111.141 18.1629 111.151 18.4542 111.172 18.6677C111.193 18.8425 111.266 19.0948 111.391 19.4249C111.517 19.7355 111.579 19.9782 111.579 20.153C111.579 20.2695 111.506 20.3763 111.36 20.4733C111.214 20.5898 111.037 20.6481 110.828 20.6481C110.411 20.6481 110.098 20.5219 109.889 20.2695C109.68 20.0171 109.576 19.5511 109.576 18.8716C109.576 17.6873 109.576 16.668 109.576 15.8137C109.597 14.94 109.607 14.1828 109.607 13.5421C109.628 12.9014 109.639 12.3578 109.639 11.9112C109.66 11.4452 109.67 11.0472 109.67 10.7172C109.67 10.5036 109.67 10.3289 109.67 10.193C109.67 10.0571 109.66 9.93085 109.639 9.81436C109.618 9.69786 109.597 9.58137 109.576 9.46488C109.555 9.34843 109.524 9.20278 109.482 9.02806C109.42 8.77566 109.388 8.55238 109.388 8.35825C109.388 8.16408 109.545 7.96991 109.858 7.77578C110.191 7.58161 110.483 7.48452 110.734 7.48452C110.922 7.48452 111.12 7.54279 111.329 7.65929C111.558 7.75637 111.673 7.88257 111.673 8.03788C111.673 8.0961 111.61 8.3388 111.485 8.76596C111.36 9.17366 111.297 9.81436 111.297 10.688C111.297 11.2899 111.277 11.785 111.234 12.1733C111.193 12.5616 111.172 12.8043 111.172 12.9014C111.172 12.9985 111.224 13.047 111.329 13.047C111.558 12.8917 111.861 12.6781 112.236 12.4063C112.612 12.1151 113.019 11.785 113.457 11.4161C113.916 11.0278 114.385 10.6104 114.865 10.1638C115.366 9.71732 115.835 9.26105 116.273 8.79507C116.837 8.19319 117.296 7.76608 117.65 7.51368C118.026 7.24188 118.266 7.10593 118.37 7.10593C118.662 7.10593 118.902 7.20301 119.09 7.39719C119.278 7.59131 119.371 7.84371 119.371 8.15438C119.371 8.30969 119.361 8.41648 119.34 8.4747C118.944 8.72709 118.453 9.07658 117.869 9.52315C117.285 9.95026 116.607 10.4745 115.835 11.0958C114.062 12.5519 113.175 13.513 113.175 13.9789C113.175 14.076 113.29 14.2799 113.519 14.5905C113.77 14.8817 114.072 15.2312 114.427 15.6389C114.802 16.0272 115.199 16.435 115.616 16.8621C116.033 17.2893 116.419 17.6873 116.774 18.0562C117.421 18.7357 118.026 19.289 118.589 19.7161C119.152 20.1433 119.663 20.4636 120.122 20.6772C120.185 20.716 120.217 20.7743 120.217 20.8519C120.217 20.8908 120.185 20.9393 120.122 20.9976Z" fill="#272727"/>
<path d="M131.053 21.1433C131.053 21.4151 130.824 21.551 130.365 21.551C129.864 21.551 129.561 21.3568 129.457 20.9685C129.436 20.9103 129.426 20.5317 129.426 19.8327C129.426 19.6386 129.395 19.4832 129.332 19.3667C128.163 20.1628 126.901 20.5608 125.545 20.5608C124.606 20.5608 123.699 20.3181 122.822 19.8327C121.821 19.2891 121.32 18.6095 121.32 17.7941C121.32 16.9981 121.915 16.2215 123.104 15.4643C124.189 14.7653 125.19 14.4158 126.108 14.4158H129.207C129.332 14.2994 129.395 14.0955 129.395 13.8043C129.395 12.5035 129.28 11.523 129.05 10.8629C128.675 9.75623 127.934 9.20287 126.828 9.20287C126.035 9.20287 125.305 9.66884 124.638 10.6008C124.032 11.4551 123.73 12.2705 123.73 13.0471C123.73 13.0859 123.73 13.1442 123.73 13.2218C123.73 13.2995 123.73 13.348 123.73 13.3674C123.73 13.5228 123.647 13.6004 123.479 13.6004C123.271 13.6004 123.041 13.4839 122.791 13.251C122.541 13.018 122.416 12.8141 122.416 12.6394C122.416 12.0958 122.593 11.4162 122.948 10.6008C123.302 9.76593 123.688 9.13494 124.106 8.70778C124.627 8.18358 125.274 7.92148 126.046 7.92148C127.235 7.92148 128.33 8.27096 129.332 8.96988C130.396 9.72711 130.938 10.6396 130.959 11.7075L131.053 21.1433ZM129.395 16.5127C129.395 15.7361 128.748 15.3478 127.454 15.3478C126.432 15.3478 125.535 15.5128 124.762 15.8429C123.782 16.27 123.292 16.9107 123.292 17.765C123.292 18.2892 123.552 18.6969 124.074 18.9881C124.512 19.2405 125.034 19.3667 125.639 19.3667C126.536 19.3667 127.381 19.0949 128.174 18.5513C128.988 18.0077 129.395 17.3282 129.395 16.5127Z" fill="#272727"/>
</svg>
