<svg width="20" height="20" viewBox="0 0 20 20" fill="none" xmlns="http://www.w3.org/2000/svg">
<path d="M9.693 13.4074C9.12117 13.4074 8.6582 13.8839 8.6582 14.4558C8.6582 15.014 9.10754 15.5042 9.693 15.5042C10.2785 15.5042 10.7414 15.0141 10.7414 14.4558C10.7414 13.8839 10.2649 13.4074 9.693 13.4074Z" fill="black"/>
<path d="M9.86984 5.46891C8.03168 5.46891 7.1875 6.55817 7.1875 7.29344C7.1875 7.82449 7.6368 8.06957 8.00445 8.06957C8.73969 8.06957 8.44016 7.02113 9.82898 7.02113C10.5098 7.02113 11.0545 7.3207 11.0545 7.94703C11.0545 8.68234 10.292 9.10441 9.84262 9.48566C9.44777 9.82605 8.93035 10.3843 8.93035 11.5553C8.93035 12.2633 9.12094 12.4676 9.67922 12.4676C10.3464 12.4676 10.4825 12.168 10.4825 11.9093C10.4825 11.2013 10.4962 10.7928 11.2451 10.2073C11.6127 9.9214 12.7701 8.99551 12.7701 7.71559C12.7701 6.43567 11.6127 5.46891 9.86984 5.46891Z" fill="black"/>
<path d="M10 0C4.47328 0 0 4.47254 0 10V19.2188C0 19.6502 0.349766 20 0.78125 20H10C15.5267 20 20 15.5275 20 10C20 4.47328 15.5275 0 10 0ZM10 18.4375H1.5625V10C1.5625 5.33684 5.33621 1.5625 10 1.5625C14.6632 1.5625 18.4375 5.33621 18.4375 10C18.4375 14.6632 14.6638 18.4375 10 18.4375Z" fill="black"/>
</svg>
