<svg width="22" height="22" viewBox="0 0 22 22" fill="none" xmlns="http://www.w3.org/2000/svg">
<path d="M1 11.5875C1 10.404 1.95939 9.44461 3.14286 9.44461C4.32632 9.44461 5.28571 10.404 5.28571 11.5875V14.5241C5.28571 15.7075 4.32632 16.6669 3.14286 16.6669C1.95939 16.6669 1 15.7075 1 14.5241V11.5875Z" fill="#4C75F2"/>
<path fill-rule="evenodd" clip-rule="evenodd" d="M0.25 11.5875C0.25 9.98978 1.54518 8.69461 3.14286 8.69461C4.74054 8.69461 6.03571 9.98979 6.03571 11.5875V14.5241C6.03571 16.1217 4.74054 17.4169 3.14286 17.4169C1.54518 17.4169 0.25 16.1217 0.25 14.5241V11.5875ZM3.14286 10.1946C2.3736 10.1946 1.75 10.8182 1.75 11.5875V14.5241C1.75 15.2933 2.3736 15.9169 3.14286 15.9169C3.91211 15.9169 4.53571 15.2933 4.53571 14.5241V11.5875C4.53571 10.8182 3.91211 10.1946 3.14286 10.1946Z" fill="#4C75F2"/>
<path d="M16.7148 11.5875C16.7148 10.404 17.6742 9.44461 18.8577 9.44461C20.0412 9.44461 21.0006 10.404 21.0006 11.5875V14.5241C21.0006 15.7075 20.0412 16.6669 18.8577 16.6669C17.6742 16.6669 16.7148 15.7075 16.7148 14.5241V11.5875Z" fill="#4C75F2"/>
<path fill-rule="evenodd" clip-rule="evenodd" d="M15.9648 11.5875C15.9648 9.98978 17.26 8.69461 18.8577 8.69461C20.4554 8.69461 21.7506 9.98979 21.7506 11.5875V14.5241C21.7506 16.1217 20.4554 17.4169 18.8577 17.4169C17.26 17.4169 15.9648 16.1217 15.9648 14.5241V11.5875ZM18.8577 10.1946C18.0884 10.1946 17.4648 10.8182 17.4648 11.5875V14.5241C17.4648 15.2933 18.0884 15.9169 18.8577 15.9169C19.627 15.9169 20.2506 15.2933 20.2506 14.5241V11.5875C20.2506 10.8182 19.627 10.1946 18.8577 10.1946Z" fill="#4C75F2"/>
<path fill-rule="evenodd" clip-rule="evenodd" d="M3.89355 8.00226V9.44453C3.89355 9.85874 3.55777 10.1945 3.14355 10.1945C2.72934 10.1945 2.39355 9.85874 2.39355 9.44453V8.00007H3.14355C2.39355 8.00007 2.39355 8.00056 2.39355 8.00007L2.39356 7.998L2.39357 7.99532L2.39362 7.98816L2.39394 7.9668C2.39427 7.94948 2.39491 7.92604 2.39608 7.89688C2.39843 7.83858 2.40296 7.75729 2.41168 7.65625C2.4291 7.45446 2.4634 7.17231 2.53109 6.83631C2.66594 6.16698 2.93662 5.26748 3.48382 4.36209C4.60742 2.50303 6.82062 0.75 11.0007 0.75C15.1808 0.75 17.394 2.50303 18.5176 4.36209C19.0648 5.26748 19.3355 6.16698 19.4703 6.83631C19.538 7.17231 19.5723 7.45446 19.5897 7.65625C19.5984 7.75729 19.603 7.83858 19.6053 7.89688C19.6065 7.92604 19.6071 7.94948 19.6075 7.9668L19.6078 7.98816L19.6078 7.99532L19.6078 7.998L19.6078 7.99911C19.6078 7.9996 19.6078 8.00007 18.8578 8.00007L19.6078 7.99911V9.44453C19.6078 9.85874 19.2721 10.1945 18.8578 10.1945C18.4436 10.1945 18.1078 9.85874 18.1078 9.44453L18.1078 8.00088L18.1077 7.99604C18.1076 7.98877 18.1073 7.97571 18.1065 7.95727C18.105 7.92034 18.1019 7.86199 18.0953 7.78529C18.082 7.63161 18.0549 7.40594 17.9998 7.13256C17.8892 6.58312 17.6688 5.85761 17.2338 5.13798C16.3931 3.74701 14.6778 2.25 11.0007 2.25C7.32363 2.25 5.60826 3.74701 4.76757 5.13798C4.33263 5.85761 4.11224 6.58312 4.00155 7.13256C3.94647 7.40594 3.91939 7.63161 3.90612 7.78529C3.8995 7.86199 3.89635 7.92034 3.89486 7.95727C3.89412 7.97571 3.89379 7.98877 3.89365 7.99604L3.89355 8.00226ZM18.1078 8.00225C18.1078 8.00266 18.1078 8.00259 18.1078 8.00225V8.00225Z" fill="#4C75F2"/>
<path fill-rule="evenodd" clip-rule="evenodd" d="M16.7139 13.0277C17.1281 13.0277 17.4639 13.3635 17.4639 13.7777V13.8006C17.4639 14.8665 17.4639 15.8872 17.3828 16.8006C17.3012 17.7198 17.1334 18.5935 16.7612 19.3463C16.3783 20.1206 15.7911 20.742 14.9299 21.1567C14.0888 21.5616 13.0276 21.75 11.7139 21.75C11.2997 21.75 10.9639 21.4142 10.9639 21C10.9639 20.5858 11.2997 20.25 11.7139 20.25C12.9002 20.25 13.7139 20.0773 14.2791 19.8052C14.8241 19.5428 15.1745 19.1711 15.4166 18.6814C15.6693 18.1703 15.814 17.5094 15.8887 16.668C15.9633 15.8275 15.9639 14.8702 15.9639 13.7777C15.9639 13.3635 16.2997 13.0277 16.7139 13.0277Z" fill="#4C75F2"/>
</svg>
