<svg width="28" height="28" viewBox="0 0 28 28" fill="none" xmlns="http://www.w3.org/2000/svg">
<path fill-rule="evenodd" clip-rule="evenodd" d="M14 0.666656C21.352 0.666656 27.3334 6.64799 27.3334 14C27.3334 21.352 21.352 27.3333 14 27.3333C6.64802 27.3333 0.666687 21.352 0.666687 14C0.666687 6.64799 6.64802 0.666656 14 0.666656ZM14 2.66666C7.75069 2.66666 2.66669 7.75066 2.66669 14C2.66669 20.2493 7.75069 25.3333 14 25.3333C20.2494 25.3333 25.3334 20.2493 25.3334 14C25.3334 7.75066 20.2494 2.66666 14 2.66666ZM13.5483 7.46052C14.1016 7.46052 14.5483 7.90852 14.5483 8.46052V14.3565L19.0883 17.0632C19.5616 17.3472 19.7176 17.9605 19.435 18.4352C19.247 18.7485 18.915 18.9232 18.575 18.9232C18.4003 18.9232 18.2243 18.8779 18.063 18.7832L13.0363 15.7845C12.735 15.6032 12.5483 15.2765 12.5483 14.9245V8.46052C12.5483 7.90852 12.9963 7.46052 13.5483 7.46052Z" fill="#4C75F2"/>
</svg>
